%TF.GenerationSoftware,KiCad,Pcbnew,9.0.4*%
%TF.CreationDate,2026-05-05T23:42:29-03:00*%
%TF.ProjectId,eval_trilha_v2,6576616c-5f74-4726-996c-68615f76322e,rev?*%
%TF.SameCoordinates,Original*%
%TF.FileFunction,Copper,L2,Inr*%
%TF.FilePolarity,Positive*%
%FSLAX46Y46*%
G04 Gerber Fmt 4.6, Leading zero omitted, Abs format (unit mm)*
G04 Created by KiCad (PCBNEW 9.0.4) date 2026-05-05 23:42:29*
%MOMM*%
%LPD*%
G01*
G04 APERTURE LIST*
%TA.AperFunction,ComponentPad*%
%ADD10C,1.900000*%
%TD*%
%TA.AperFunction,ComponentPad*%
%ADD11R,1.370000X1.370000*%
%TD*%
%TA.AperFunction,ComponentPad*%
%ADD12C,1.370000*%
%TD*%
G04 APERTURE END LIST*
D10*
%TO.N,Net-(U1-RFC)*%
%TO.C,J13*%
X128632500Y-96540000D03*
%TO.N,GND*%
X126132500Y-96540000D03*
X131132500Y-96540000D03*
X131132500Y-99040000D03*
X126132500Y-99040000D03*
%TD*%
%TO.N,Net-(J2-Pad1)*%
%TO.C,J3*%
X191000000Y-90840000D03*
%TO.N,GND*%
X191000000Y-93340000D03*
X191000000Y-88340000D03*
X193500000Y-88340000D03*
X193500000Y-93340000D03*
%TD*%
%TO.N,Net-(J0-Pad1)*%
%TO.C,J0*%
X111250000Y-107860000D03*
%TO.N,GND*%
X111250000Y-105360000D03*
X111250000Y-110360000D03*
X108750000Y-110360000D03*
X108750000Y-105360000D03*
%TD*%
%TO.N,Net-(J4-Pad1)*%
%TO.C,J5*%
X191000000Y-124880000D03*
%TO.N,GND*%
X191000000Y-127380000D03*
X191000000Y-122380000D03*
X193500000Y-122380000D03*
X193500000Y-127380000D03*
%TD*%
%TO.N,Net-(J10-Pad1)*%
%TO.C,J11*%
X191000000Y-56800000D03*
%TO.N,GND*%
X191000000Y-59300000D03*
X191000000Y-54300000D03*
X193500000Y-54300000D03*
X193500000Y-59300000D03*
%TD*%
%TO.N,/RF2*%
%TO.C,J15*%
X108632500Y-76540000D03*
%TO.N,GND*%
X108632500Y-74040000D03*
X108632500Y-79040000D03*
X106132500Y-79040000D03*
X106132500Y-74040000D03*
%TD*%
%TO.N,Net-(J6-Pad1)*%
%TO.C,J7*%
X191000000Y-73820000D03*
%TO.N,GND*%
X191000000Y-76320000D03*
X191000000Y-71320000D03*
X193500000Y-71320000D03*
X193500000Y-76320000D03*
%TD*%
%TO.N,Net-(J8-Pad1)*%
%TO.C,J8*%
X111250000Y-141900000D03*
%TO.N,GND*%
X111250000Y-139400000D03*
X111250000Y-144400000D03*
X108750000Y-144400000D03*
X108750000Y-139400000D03*
%TD*%
%TO.N,Net-(J8-Pad1)*%
%TO.C,J9*%
X191000000Y-141900000D03*
%TO.N,GND*%
X191000000Y-144400000D03*
X191000000Y-139400000D03*
X193500000Y-139400000D03*
X193500000Y-144400000D03*
%TD*%
%TO.N,/RF3*%
%TO.C,J14*%
X128632500Y-56665000D03*
%TO.N,GND*%
X131132500Y-56665000D03*
X126132500Y-56665000D03*
X126132500Y-54165000D03*
X131132500Y-54165000D03*
%TD*%
%TO.N,Net-(J10-Pad1)*%
%TO.C,J10*%
X161250000Y-56800000D03*
%TO.N,GND*%
X161250000Y-54300000D03*
X161250000Y-59300000D03*
X158750000Y-59300000D03*
X158750000Y-54300000D03*
%TD*%
%TO.N,Net-(J0-Pad1)*%
%TO.C,J1*%
X191000000Y-107860000D03*
%TO.N,GND*%
X191000000Y-110360000D03*
X191000000Y-105360000D03*
X193500000Y-105360000D03*
X193500000Y-110360000D03*
%TD*%
%TO.N,Net-(J2-Pad1)*%
%TO.C,J2*%
X161250000Y-90840000D03*
%TO.N,GND*%
X161250000Y-88340000D03*
X161250000Y-93340000D03*
X158750000Y-93340000D03*
X158750000Y-88340000D03*
%TD*%
%TO.N,Net-(J6-Pad1)*%
%TO.C,J6*%
X161250000Y-73820000D03*
%TO.N,GND*%
X161250000Y-71320000D03*
X161250000Y-76320000D03*
X158750000Y-76320000D03*
X158750000Y-71320000D03*
%TD*%
%TO.N,Net-(J4-Pad1)*%
%TO.C,J4*%
X111250000Y-124880000D03*
%TO.N,GND*%
X111250000Y-122380000D03*
X111250000Y-127380000D03*
X108750000Y-127380000D03*
X108750000Y-122380000D03*
%TD*%
D11*
%TO.N,/Ctrl1*%
%TO.C,J12*%
X122472500Y-53200000D03*
D12*
%TO.N,/Ctrl2*%
X117392500Y-53200000D03*
%TO.N,VDD*%
X112312500Y-53200000D03*
%TO.N,GND*%
X107232500Y-53200000D03*
%TO.N,unconnected-(J12-Pad05)*%
X102152500Y-53200000D03*
%TD*%
D10*
%TO.N,/RF1*%
%TO.C,J16*%
X148507500Y-76540000D03*
%TO.N,GND*%
X148507500Y-79040000D03*
X148507500Y-74040000D03*
X151007500Y-74040000D03*
X151007500Y-79040000D03*
%TD*%
%TA.AperFunction,Conductor*%
%TO.N,GND*%
G36*
X199442539Y-50520185D02*
G01*
X199488294Y-50572989D01*
X199499500Y-50624500D01*
X199499500Y-149375500D01*
X199479815Y-149442539D01*
X199427011Y-149488294D01*
X199375500Y-149499500D01*
X100624500Y-149499500D01*
X100557461Y-149479815D01*
X100511706Y-149427011D01*
X100500500Y-149375500D01*
X100500500Y-139285883D01*
X107300000Y-139285883D01*
X107300000Y-139514116D01*
X107335704Y-139739544D01*
X107406230Y-139956604D01*
X107509851Y-140159969D01*
X107563135Y-140233309D01*
X107563137Y-140233309D01*
X108129824Y-139666622D01*
X108151823Y-139719732D01*
X108225693Y-139830287D01*
X108319713Y-139924307D01*
X108430268Y-139998177D01*
X108483376Y-140020175D01*
X107916688Y-140586862D01*
X107916689Y-140586863D01*
X107990030Y-140640148D01*
X108193395Y-140743769D01*
X108410455Y-140814295D01*
X108635884Y-140850000D01*
X108864116Y-140850000D01*
X109089544Y-140814295D01*
X109306604Y-140743769D01*
X109509966Y-140640150D01*
X109583309Y-140586862D01*
X109583310Y-140586862D01*
X109016622Y-140020175D01*
X109069732Y-139998177D01*
X109180287Y-139924307D01*
X109274307Y-139830287D01*
X109348177Y-139719732D01*
X109370175Y-139666623D01*
X109936861Y-140233309D01*
X109990276Y-140229106D01*
X110009735Y-140229106D01*
X110063137Y-140233309D01*
X110629824Y-139666622D01*
X110651823Y-139719732D01*
X110725693Y-139830287D01*
X110819713Y-139924307D01*
X110930268Y-139998177D01*
X110983376Y-140020175D01*
X110416688Y-140586862D01*
X110416689Y-140586863D01*
X110490030Y-140640148D01*
X110575174Y-140683532D01*
X110625970Y-140731507D01*
X110642765Y-140799328D01*
X110620228Y-140865463D01*
X110591765Y-140894334D01*
X110467933Y-140984305D01*
X110467924Y-140984312D01*
X110334312Y-141117924D01*
X110334312Y-141117925D01*
X110334310Y-141117927D01*
X110286610Y-141183579D01*
X110223240Y-141270800D01*
X110137454Y-141439163D01*
X110079059Y-141618881D01*
X110049500Y-141805513D01*
X110049500Y-141994486D01*
X110079059Y-142181118D01*
X110137454Y-142360836D01*
X110223240Y-142529199D01*
X110334310Y-142682073D01*
X110467927Y-142815690D01*
X110591765Y-142905664D01*
X110634430Y-142960995D01*
X110640409Y-143030608D01*
X110607803Y-143092403D01*
X110575175Y-143116466D01*
X110490040Y-143159845D01*
X110490033Y-143159849D01*
X110416689Y-143213135D01*
X110416689Y-143213136D01*
X110983377Y-143779824D01*
X110930268Y-143801823D01*
X110819713Y-143875693D01*
X110725693Y-143969713D01*
X110651823Y-144080268D01*
X110629824Y-144133377D01*
X110063136Y-143566689D01*
X110009734Y-143570892D01*
X109990277Y-143570892D01*
X109936862Y-143566688D01*
X109370175Y-144133376D01*
X109348177Y-144080268D01*
X109274307Y-143969713D01*
X109180287Y-143875693D01*
X109069732Y-143801823D01*
X109016621Y-143779824D01*
X109583309Y-143213137D01*
X109583309Y-143213135D01*
X109509969Y-143159851D01*
X109306604Y-143056230D01*
X109089544Y-142985704D01*
X108864116Y-142950000D01*
X108635884Y-142950000D01*
X108410455Y-142985704D01*
X108193395Y-143056230D01*
X107990035Y-143159848D01*
X107990033Y-143159849D01*
X107916689Y-143213135D01*
X107916689Y-143213136D01*
X108483377Y-143779824D01*
X108430268Y-143801823D01*
X108319713Y-143875693D01*
X108225693Y-143969713D01*
X108151823Y-144080268D01*
X108129824Y-144133377D01*
X107563136Y-143566689D01*
X107563135Y-143566689D01*
X107509849Y-143640033D01*
X107509848Y-143640035D01*
X107406230Y-143843395D01*
X107335704Y-144060455D01*
X107300000Y-144285883D01*
X107300000Y-144514116D01*
X107335704Y-144739544D01*
X107406230Y-144956604D01*
X107509851Y-145159969D01*
X107563135Y-145233309D01*
X107563137Y-145233309D01*
X108129824Y-144666622D01*
X108151823Y-144719732D01*
X108225693Y-144830287D01*
X108319713Y-144924307D01*
X108430268Y-144998177D01*
X108483376Y-145020175D01*
X107916688Y-145586862D01*
X107916689Y-145586863D01*
X107990030Y-145640148D01*
X108193395Y-145743769D01*
X108410455Y-145814295D01*
X108635884Y-145850000D01*
X108864116Y-145850000D01*
X109089544Y-145814295D01*
X109306604Y-145743769D01*
X109509966Y-145640150D01*
X109583309Y-145586862D01*
X109583310Y-145586862D01*
X109016622Y-145020175D01*
X109069732Y-144998177D01*
X109180287Y-144924307D01*
X109274307Y-144830287D01*
X109348177Y-144719732D01*
X109370175Y-144666623D01*
X109936861Y-145233309D01*
X109990276Y-145229106D01*
X110009735Y-145229106D01*
X110063137Y-145233309D01*
X110629824Y-144666622D01*
X110651823Y-144719732D01*
X110725693Y-144830287D01*
X110819713Y-144924307D01*
X110930268Y-144998177D01*
X110983376Y-145020175D01*
X110416688Y-145586862D01*
X110416689Y-145586863D01*
X110490030Y-145640148D01*
X110693395Y-145743769D01*
X110910455Y-145814295D01*
X111135884Y-145850000D01*
X111364116Y-145850000D01*
X111589544Y-145814295D01*
X111806604Y-145743769D01*
X112009966Y-145640150D01*
X112083309Y-145586862D01*
X112083310Y-145586862D01*
X111516622Y-145020175D01*
X111569732Y-144998177D01*
X111680287Y-144924307D01*
X111774307Y-144830287D01*
X111848177Y-144719732D01*
X111870175Y-144666623D01*
X112436862Y-145233310D01*
X112436862Y-145233309D01*
X112490150Y-145159966D01*
X112593769Y-144956604D01*
X112664295Y-144739544D01*
X112700000Y-144514116D01*
X112700000Y-144285883D01*
X112664295Y-144060455D01*
X112593769Y-143843395D01*
X112490148Y-143640030D01*
X112436863Y-143566689D01*
X112436862Y-143566688D01*
X111870175Y-144133376D01*
X111848177Y-144080268D01*
X111774307Y-143969713D01*
X111680287Y-143875693D01*
X111569732Y-143801823D01*
X111516621Y-143779824D01*
X112083309Y-143213137D01*
X112083309Y-143213135D01*
X112009965Y-143159848D01*
X112009964Y-143159847D01*
X111924825Y-143116466D01*
X111874029Y-143068492D01*
X111857234Y-143000671D01*
X111879772Y-142934536D01*
X111908231Y-142905666D01*
X112032073Y-142815690D01*
X112165690Y-142682073D01*
X112276760Y-142529199D01*
X112362547Y-142360832D01*
X112420940Y-142181118D01*
X112450500Y-141994486D01*
X112450500Y-141805513D01*
X112420940Y-141618881D01*
X112362545Y-141439163D01*
X112276759Y-141270800D01*
X112165690Y-141117927D01*
X112032073Y-140984310D01*
X111908234Y-140894335D01*
X111865569Y-140839004D01*
X111859590Y-140769391D01*
X111892196Y-140707596D01*
X111924826Y-140683532D01*
X112009964Y-140640152D01*
X112083309Y-140586862D01*
X112083310Y-140586862D01*
X111516622Y-140020175D01*
X111569732Y-139998177D01*
X111680287Y-139924307D01*
X111774307Y-139830287D01*
X111848177Y-139719732D01*
X111870175Y-139666623D01*
X112436862Y-140233310D01*
X112436862Y-140233309D01*
X112490150Y-140159966D01*
X112593769Y-139956604D01*
X112664295Y-139739544D01*
X112700000Y-139514116D01*
X112700000Y-139285883D01*
X189550000Y-139285883D01*
X189550000Y-139514116D01*
X189585704Y-139739544D01*
X189656230Y-139956604D01*
X189759851Y-140159969D01*
X189813135Y-140233309D01*
X189813137Y-140233309D01*
X190379824Y-139666622D01*
X190401823Y-139719732D01*
X190475693Y-139830287D01*
X190569713Y-139924307D01*
X190680268Y-139998177D01*
X190733376Y-140020175D01*
X190166688Y-140586862D01*
X190166689Y-140586863D01*
X190240030Y-140640148D01*
X190325174Y-140683532D01*
X190375970Y-140731507D01*
X190392765Y-140799328D01*
X190370228Y-140865463D01*
X190341765Y-140894334D01*
X190217933Y-140984305D01*
X190217924Y-140984312D01*
X190084312Y-141117924D01*
X190084312Y-141117925D01*
X190084310Y-141117927D01*
X190036610Y-141183579D01*
X189973240Y-141270800D01*
X189887454Y-141439163D01*
X189829059Y-141618881D01*
X189799500Y-141805513D01*
X189799500Y-141994486D01*
X189829059Y-142181118D01*
X189887454Y-142360836D01*
X189973240Y-142529199D01*
X190084310Y-142682073D01*
X190217927Y-142815690D01*
X190341765Y-142905664D01*
X190384430Y-142960995D01*
X190390409Y-143030608D01*
X190357803Y-143092403D01*
X190325175Y-143116466D01*
X190240040Y-143159845D01*
X190240033Y-143159849D01*
X190166689Y-143213135D01*
X190166689Y-143213136D01*
X190733377Y-143779824D01*
X190680268Y-143801823D01*
X190569713Y-143875693D01*
X190475693Y-143969713D01*
X190401823Y-144080268D01*
X190379824Y-144133377D01*
X189813136Y-143566689D01*
X189813135Y-143566689D01*
X189759849Y-143640033D01*
X189759848Y-143640035D01*
X189656230Y-143843395D01*
X189585704Y-144060455D01*
X189550000Y-144285883D01*
X189550000Y-144514116D01*
X189585704Y-144739544D01*
X189656230Y-144956604D01*
X189759851Y-145159969D01*
X189813135Y-145233309D01*
X189813137Y-145233309D01*
X190379824Y-144666622D01*
X190401823Y-144719732D01*
X190475693Y-144830287D01*
X190569713Y-144924307D01*
X190680268Y-144998177D01*
X190733376Y-145020175D01*
X190166688Y-145586862D01*
X190166689Y-145586863D01*
X190240030Y-145640148D01*
X190443395Y-145743769D01*
X190660455Y-145814295D01*
X190885884Y-145850000D01*
X191114116Y-145850000D01*
X191339544Y-145814295D01*
X191556604Y-145743769D01*
X191759966Y-145640150D01*
X191833309Y-145586862D01*
X191833310Y-145586862D01*
X191266622Y-145020175D01*
X191319732Y-144998177D01*
X191430287Y-144924307D01*
X191524307Y-144830287D01*
X191598177Y-144719732D01*
X191620175Y-144666623D01*
X192186861Y-145233309D01*
X192240276Y-145229106D01*
X192259735Y-145229106D01*
X192313137Y-145233309D01*
X192879824Y-144666622D01*
X192901823Y-144719732D01*
X192975693Y-144830287D01*
X193069713Y-144924307D01*
X193180268Y-144998177D01*
X193233376Y-145020175D01*
X192666688Y-145586862D01*
X192666689Y-145586863D01*
X192740030Y-145640148D01*
X192943395Y-145743769D01*
X193160455Y-145814295D01*
X193385884Y-145850000D01*
X193614116Y-145850000D01*
X193839544Y-145814295D01*
X194056604Y-145743769D01*
X194259966Y-145640150D01*
X194333309Y-145586862D01*
X194333310Y-145586862D01*
X193766622Y-145020175D01*
X193819732Y-144998177D01*
X193930287Y-144924307D01*
X194024307Y-144830287D01*
X194098177Y-144719732D01*
X194120175Y-144666622D01*
X194686862Y-145233310D01*
X194686862Y-145233309D01*
X194740150Y-145159966D01*
X194843769Y-144956604D01*
X194914295Y-144739544D01*
X194950000Y-144514116D01*
X194950000Y-144285883D01*
X194914295Y-144060455D01*
X194843769Y-143843395D01*
X194740148Y-143640030D01*
X194686863Y-143566689D01*
X194686862Y-143566688D01*
X194120175Y-144133376D01*
X194098177Y-144080268D01*
X194024307Y-143969713D01*
X193930287Y-143875693D01*
X193819732Y-143801823D01*
X193766621Y-143779824D01*
X194333309Y-143213137D01*
X194333309Y-143213135D01*
X194259969Y-143159851D01*
X194056604Y-143056230D01*
X193839544Y-142985704D01*
X193614116Y-142950000D01*
X193385884Y-142950000D01*
X193160455Y-142985704D01*
X192943395Y-143056230D01*
X192740035Y-143159848D01*
X192740033Y-143159849D01*
X192666689Y-143213135D01*
X192666689Y-143213136D01*
X193233377Y-143779824D01*
X193180268Y-143801823D01*
X193069713Y-143875693D01*
X192975693Y-143969713D01*
X192901823Y-144080268D01*
X192879824Y-144133377D01*
X192313136Y-143566689D01*
X192259734Y-143570892D01*
X192240277Y-143570892D01*
X192186862Y-143566688D01*
X191620175Y-144133376D01*
X191598177Y-144080268D01*
X191524307Y-143969713D01*
X191430287Y-143875693D01*
X191319732Y-143801823D01*
X191266621Y-143779824D01*
X191833309Y-143213137D01*
X191833309Y-143213135D01*
X191759965Y-143159848D01*
X191759964Y-143159847D01*
X191674825Y-143116466D01*
X191624029Y-143068492D01*
X191607234Y-143000671D01*
X191629772Y-142934536D01*
X191658231Y-142905666D01*
X191782073Y-142815690D01*
X191915690Y-142682073D01*
X192026760Y-142529199D01*
X192112547Y-142360832D01*
X192170940Y-142181118D01*
X192200500Y-141994486D01*
X192200500Y-141805513D01*
X192170940Y-141618881D01*
X192112545Y-141439163D01*
X192026759Y-141270800D01*
X191915690Y-141117927D01*
X191782073Y-140984310D01*
X191658234Y-140894335D01*
X191615569Y-140839004D01*
X191609590Y-140769391D01*
X191642196Y-140707596D01*
X191674826Y-140683532D01*
X191759964Y-140640152D01*
X191833309Y-140586862D01*
X191833310Y-140586862D01*
X191266622Y-140020175D01*
X191319732Y-139998177D01*
X191430287Y-139924307D01*
X191524307Y-139830287D01*
X191598177Y-139719732D01*
X191620175Y-139666623D01*
X192186861Y-140233309D01*
X192240276Y-140229106D01*
X192259735Y-140229106D01*
X192313137Y-140233309D01*
X192879824Y-139666622D01*
X192901823Y-139719732D01*
X192975693Y-139830287D01*
X193069713Y-139924307D01*
X193180268Y-139998177D01*
X193233376Y-140020175D01*
X192666688Y-140586862D01*
X192666689Y-140586863D01*
X192740030Y-140640148D01*
X192943395Y-140743769D01*
X193160455Y-140814295D01*
X193385884Y-140850000D01*
X193614116Y-140850000D01*
X193839544Y-140814295D01*
X194056604Y-140743769D01*
X194259966Y-140640150D01*
X194333309Y-140586862D01*
X194333310Y-140586862D01*
X193766622Y-140020175D01*
X193819732Y-139998177D01*
X193930287Y-139924307D01*
X194024307Y-139830287D01*
X194098177Y-139719732D01*
X194120175Y-139666622D01*
X194686862Y-140233310D01*
X194686862Y-140233309D01*
X194740150Y-140159966D01*
X194843769Y-139956604D01*
X194914295Y-139739544D01*
X194950000Y-139514116D01*
X194950000Y-139285883D01*
X194914295Y-139060455D01*
X194843769Y-138843395D01*
X194740148Y-138640030D01*
X194686863Y-138566689D01*
X194686862Y-138566688D01*
X194120175Y-139133376D01*
X194098177Y-139080268D01*
X194024307Y-138969713D01*
X193930287Y-138875693D01*
X193819732Y-138801823D01*
X193766621Y-138779824D01*
X194333309Y-138213137D01*
X194333309Y-138213135D01*
X194259969Y-138159851D01*
X194056604Y-138056230D01*
X193839544Y-137985704D01*
X193614116Y-137950000D01*
X193385884Y-137950000D01*
X193160455Y-137985704D01*
X192943395Y-138056230D01*
X192740035Y-138159848D01*
X192740033Y-138159849D01*
X192666689Y-138213135D01*
X192666689Y-138213136D01*
X193233377Y-138779824D01*
X193180268Y-138801823D01*
X193069713Y-138875693D01*
X192975693Y-138969713D01*
X192901823Y-139080268D01*
X192879824Y-139133377D01*
X192313136Y-138566689D01*
X192259734Y-138570892D01*
X192240277Y-138570892D01*
X192186862Y-138566688D01*
X191620175Y-139133376D01*
X191598177Y-139080268D01*
X191524307Y-138969713D01*
X191430287Y-138875693D01*
X191319732Y-138801823D01*
X191266621Y-138779824D01*
X191833309Y-138213137D01*
X191833309Y-138213135D01*
X191759969Y-138159851D01*
X191556604Y-138056230D01*
X191339544Y-137985704D01*
X191114116Y-137950000D01*
X190885884Y-137950000D01*
X190660455Y-137985704D01*
X190443395Y-138056230D01*
X190240035Y-138159848D01*
X190240033Y-138159849D01*
X190166689Y-138213135D01*
X190166689Y-138213136D01*
X190733377Y-138779824D01*
X190680268Y-138801823D01*
X190569713Y-138875693D01*
X190475693Y-138969713D01*
X190401823Y-139080268D01*
X190379824Y-139133377D01*
X189813136Y-138566689D01*
X189813135Y-138566689D01*
X189759849Y-138640033D01*
X189759848Y-138640035D01*
X189656230Y-138843395D01*
X189585704Y-139060455D01*
X189550000Y-139285883D01*
X112700000Y-139285883D01*
X112664295Y-139060455D01*
X112593769Y-138843395D01*
X112490148Y-138640030D01*
X112436863Y-138566689D01*
X112436862Y-138566688D01*
X111870175Y-139133376D01*
X111848177Y-139080268D01*
X111774307Y-138969713D01*
X111680287Y-138875693D01*
X111569732Y-138801823D01*
X111516621Y-138779824D01*
X112083309Y-138213137D01*
X112083309Y-138213135D01*
X112009969Y-138159851D01*
X111806604Y-138056230D01*
X111589544Y-137985704D01*
X111364116Y-137950000D01*
X111135884Y-137950000D01*
X110910455Y-137985704D01*
X110693395Y-138056230D01*
X110490035Y-138159848D01*
X110490033Y-138159849D01*
X110416689Y-138213135D01*
X110416689Y-138213136D01*
X110983377Y-138779824D01*
X110930268Y-138801823D01*
X110819713Y-138875693D01*
X110725693Y-138969713D01*
X110651823Y-139080268D01*
X110629824Y-139133377D01*
X110063136Y-138566689D01*
X110009734Y-138570892D01*
X109990277Y-138570892D01*
X109936862Y-138566688D01*
X109370175Y-139133376D01*
X109348177Y-139080268D01*
X109274307Y-138969713D01*
X109180287Y-138875693D01*
X109069732Y-138801823D01*
X109016621Y-138779824D01*
X109583309Y-138213137D01*
X109583309Y-138213135D01*
X109509969Y-138159851D01*
X109306604Y-138056230D01*
X109089544Y-137985704D01*
X108864116Y-137950000D01*
X108635884Y-137950000D01*
X108410455Y-137985704D01*
X108193395Y-138056230D01*
X107990035Y-138159848D01*
X107990033Y-138159849D01*
X107916689Y-138213135D01*
X107916689Y-138213136D01*
X108483377Y-138779824D01*
X108430268Y-138801823D01*
X108319713Y-138875693D01*
X108225693Y-138969713D01*
X108151823Y-139080268D01*
X108129824Y-139133377D01*
X107563136Y-138566689D01*
X107563135Y-138566689D01*
X107509849Y-138640033D01*
X107509848Y-138640035D01*
X107406230Y-138843395D01*
X107335704Y-139060455D01*
X107300000Y-139285883D01*
X100500500Y-139285883D01*
X100500500Y-122265883D01*
X107300000Y-122265883D01*
X107300000Y-122494116D01*
X107335704Y-122719544D01*
X107406230Y-122936604D01*
X107509851Y-123139969D01*
X107563135Y-123213309D01*
X107563137Y-123213309D01*
X108129824Y-122646622D01*
X108151823Y-122699732D01*
X108225693Y-122810287D01*
X108319713Y-122904307D01*
X108430268Y-122978177D01*
X108483376Y-123000175D01*
X107916688Y-123566862D01*
X107916689Y-123566863D01*
X107990030Y-123620148D01*
X108193395Y-123723769D01*
X108410455Y-123794295D01*
X108635884Y-123830000D01*
X108864116Y-123830000D01*
X109089544Y-123794295D01*
X109306604Y-123723769D01*
X109509966Y-123620150D01*
X109583309Y-123566862D01*
X109583310Y-123566862D01*
X109016622Y-123000175D01*
X109069732Y-122978177D01*
X109180287Y-122904307D01*
X109274307Y-122810287D01*
X109348177Y-122699732D01*
X109370175Y-122646623D01*
X109936861Y-123213309D01*
X109990276Y-123209106D01*
X110009735Y-123209106D01*
X110063137Y-123213309D01*
X110629824Y-122646622D01*
X110651823Y-122699732D01*
X110725693Y-122810287D01*
X110819713Y-122904307D01*
X110930268Y-122978177D01*
X110983376Y-123000175D01*
X110416688Y-123566862D01*
X110416689Y-123566863D01*
X110490030Y-123620148D01*
X110575174Y-123663532D01*
X110625970Y-123711507D01*
X110642765Y-123779328D01*
X110620228Y-123845463D01*
X110591765Y-123874334D01*
X110467933Y-123964305D01*
X110467924Y-123964312D01*
X110334312Y-124097924D01*
X110334312Y-124097925D01*
X110334310Y-124097927D01*
X110286610Y-124163579D01*
X110223240Y-124250800D01*
X110137454Y-124419163D01*
X110079059Y-124598881D01*
X110049500Y-124785513D01*
X110049500Y-124974486D01*
X110079059Y-125161118D01*
X110137454Y-125340836D01*
X110223240Y-125509199D01*
X110334310Y-125662073D01*
X110467927Y-125795690D01*
X110591765Y-125885664D01*
X110634430Y-125940995D01*
X110640409Y-126010608D01*
X110607803Y-126072403D01*
X110575175Y-126096466D01*
X110490040Y-126139845D01*
X110490033Y-126139849D01*
X110416689Y-126193135D01*
X110416689Y-126193136D01*
X110983377Y-126759824D01*
X110930268Y-126781823D01*
X110819713Y-126855693D01*
X110725693Y-126949713D01*
X110651823Y-127060268D01*
X110629824Y-127113377D01*
X110063136Y-126546689D01*
X110009734Y-126550892D01*
X109990277Y-126550892D01*
X109936862Y-126546688D01*
X109370175Y-127113376D01*
X109348177Y-127060268D01*
X109274307Y-126949713D01*
X109180287Y-126855693D01*
X109069732Y-126781823D01*
X109016621Y-126759824D01*
X109583309Y-126193137D01*
X109583309Y-126193135D01*
X109509969Y-126139851D01*
X109306604Y-126036230D01*
X109089544Y-125965704D01*
X108864116Y-125930000D01*
X108635884Y-125930000D01*
X108410455Y-125965704D01*
X108193395Y-126036230D01*
X107990035Y-126139848D01*
X107990033Y-126139849D01*
X107916689Y-126193135D01*
X107916689Y-126193136D01*
X108483377Y-126759824D01*
X108430268Y-126781823D01*
X108319713Y-126855693D01*
X108225693Y-126949713D01*
X108151823Y-127060268D01*
X108129824Y-127113377D01*
X107563136Y-126546689D01*
X107563135Y-126546689D01*
X107509849Y-126620033D01*
X107509848Y-126620035D01*
X107406230Y-126823395D01*
X107335704Y-127040455D01*
X107300000Y-127265883D01*
X107300000Y-127494116D01*
X107335704Y-127719544D01*
X107406230Y-127936604D01*
X107509851Y-128139969D01*
X107563135Y-128213309D01*
X107563137Y-128213309D01*
X108129824Y-127646622D01*
X108151823Y-127699732D01*
X108225693Y-127810287D01*
X108319713Y-127904307D01*
X108430268Y-127978177D01*
X108483376Y-128000175D01*
X107916688Y-128566862D01*
X107916689Y-128566863D01*
X107990030Y-128620148D01*
X108193395Y-128723769D01*
X108410455Y-128794295D01*
X108635884Y-128830000D01*
X108864116Y-128830000D01*
X109089544Y-128794295D01*
X109306604Y-128723769D01*
X109509966Y-128620150D01*
X109583309Y-128566862D01*
X109583310Y-128566862D01*
X109016622Y-128000175D01*
X109069732Y-127978177D01*
X109180287Y-127904307D01*
X109274307Y-127810287D01*
X109348177Y-127699732D01*
X109370175Y-127646623D01*
X109936861Y-128213309D01*
X109990276Y-128209106D01*
X110009735Y-128209106D01*
X110063137Y-128213309D01*
X110629824Y-127646622D01*
X110651823Y-127699732D01*
X110725693Y-127810287D01*
X110819713Y-127904307D01*
X110930268Y-127978177D01*
X110983376Y-128000175D01*
X110416688Y-128566862D01*
X110416689Y-128566863D01*
X110490030Y-128620148D01*
X110693395Y-128723769D01*
X110910455Y-128794295D01*
X111135884Y-128830000D01*
X111364116Y-128830000D01*
X111589544Y-128794295D01*
X111806604Y-128723769D01*
X112009966Y-128620150D01*
X112083309Y-128566862D01*
X112083310Y-128566862D01*
X111516622Y-128000175D01*
X111569732Y-127978177D01*
X111680287Y-127904307D01*
X111774307Y-127810287D01*
X111848177Y-127699732D01*
X111870175Y-127646623D01*
X112436862Y-128213310D01*
X112436862Y-128213309D01*
X112490150Y-128139966D01*
X112593769Y-127936604D01*
X112664295Y-127719544D01*
X112700000Y-127494116D01*
X112700000Y-127265883D01*
X112664295Y-127040455D01*
X112593769Y-126823395D01*
X112490148Y-126620030D01*
X112436863Y-126546689D01*
X112436862Y-126546688D01*
X111870175Y-127113376D01*
X111848177Y-127060268D01*
X111774307Y-126949713D01*
X111680287Y-126855693D01*
X111569732Y-126781823D01*
X111516621Y-126759824D01*
X112083309Y-126193137D01*
X112083309Y-126193135D01*
X112009965Y-126139848D01*
X112009964Y-126139847D01*
X111924825Y-126096466D01*
X111874029Y-126048492D01*
X111857234Y-125980671D01*
X111879772Y-125914536D01*
X111908231Y-125885666D01*
X112032073Y-125795690D01*
X112165690Y-125662073D01*
X112276760Y-125509199D01*
X112362547Y-125340832D01*
X112420940Y-125161118D01*
X112450500Y-124974486D01*
X112450500Y-124785513D01*
X112420940Y-124598881D01*
X112362545Y-124419163D01*
X112276759Y-124250800D01*
X112165690Y-124097927D01*
X112032073Y-123964310D01*
X111908234Y-123874335D01*
X111865569Y-123819004D01*
X111859590Y-123749391D01*
X111892196Y-123687596D01*
X111924826Y-123663532D01*
X112009964Y-123620152D01*
X112083309Y-123566862D01*
X112083310Y-123566862D01*
X111516622Y-123000175D01*
X111569732Y-122978177D01*
X111680287Y-122904307D01*
X111774307Y-122810287D01*
X111848177Y-122699732D01*
X111870175Y-122646623D01*
X112436862Y-123213310D01*
X112436862Y-123213309D01*
X112490150Y-123139966D01*
X112593769Y-122936604D01*
X112664295Y-122719544D01*
X112700000Y-122494116D01*
X112700000Y-122265883D01*
X189550000Y-122265883D01*
X189550000Y-122494116D01*
X189585704Y-122719544D01*
X189656230Y-122936604D01*
X189759851Y-123139969D01*
X189813135Y-123213309D01*
X189813137Y-123213309D01*
X190379824Y-122646622D01*
X190401823Y-122699732D01*
X190475693Y-122810287D01*
X190569713Y-122904307D01*
X190680268Y-122978177D01*
X190733376Y-123000175D01*
X190166688Y-123566862D01*
X190166689Y-123566863D01*
X190240030Y-123620148D01*
X190325174Y-123663532D01*
X190375970Y-123711507D01*
X190392765Y-123779328D01*
X190370228Y-123845463D01*
X190341765Y-123874334D01*
X190217933Y-123964305D01*
X190217924Y-123964312D01*
X190084312Y-124097924D01*
X190084312Y-124097925D01*
X190084310Y-124097927D01*
X190036610Y-124163579D01*
X189973240Y-124250800D01*
X189887454Y-124419163D01*
X189829059Y-124598881D01*
X189799500Y-124785513D01*
X189799500Y-124974486D01*
X189829059Y-125161118D01*
X189887454Y-125340836D01*
X189973240Y-125509199D01*
X190084310Y-125662073D01*
X190217927Y-125795690D01*
X190341765Y-125885664D01*
X190384430Y-125940995D01*
X190390409Y-126010608D01*
X190357803Y-126072403D01*
X190325175Y-126096466D01*
X190240040Y-126139845D01*
X190240033Y-126139849D01*
X190166689Y-126193135D01*
X190166689Y-126193136D01*
X190733377Y-126759824D01*
X190680268Y-126781823D01*
X190569713Y-126855693D01*
X190475693Y-126949713D01*
X190401823Y-127060268D01*
X190379824Y-127113377D01*
X189813136Y-126546689D01*
X189813135Y-126546689D01*
X189759849Y-126620033D01*
X189759848Y-126620035D01*
X189656230Y-126823395D01*
X189585704Y-127040455D01*
X189550000Y-127265883D01*
X189550000Y-127494116D01*
X189585704Y-127719544D01*
X189656230Y-127936604D01*
X189759851Y-128139969D01*
X189813135Y-128213309D01*
X189813137Y-128213309D01*
X190379824Y-127646622D01*
X190401823Y-127699732D01*
X190475693Y-127810287D01*
X190569713Y-127904307D01*
X190680268Y-127978177D01*
X190733376Y-128000175D01*
X190166688Y-128566862D01*
X190166689Y-128566863D01*
X190240030Y-128620148D01*
X190443395Y-128723769D01*
X190660455Y-128794295D01*
X190885884Y-128830000D01*
X191114116Y-128830000D01*
X191339544Y-128794295D01*
X191556604Y-128723769D01*
X191759966Y-128620150D01*
X191833309Y-128566862D01*
X191833310Y-128566862D01*
X191266622Y-128000175D01*
X191319732Y-127978177D01*
X191430287Y-127904307D01*
X191524307Y-127810287D01*
X191598177Y-127699732D01*
X191620175Y-127646623D01*
X192186861Y-128213309D01*
X192240276Y-128209106D01*
X192259735Y-128209106D01*
X192313137Y-128213309D01*
X192879824Y-127646622D01*
X192901823Y-127699732D01*
X192975693Y-127810287D01*
X193069713Y-127904307D01*
X193180268Y-127978177D01*
X193233376Y-128000175D01*
X192666688Y-128566862D01*
X192666689Y-128566863D01*
X192740030Y-128620148D01*
X192943395Y-128723769D01*
X193160455Y-128794295D01*
X193385884Y-128830000D01*
X193614116Y-128830000D01*
X193839544Y-128794295D01*
X194056604Y-128723769D01*
X194259966Y-128620150D01*
X194333309Y-128566862D01*
X194333310Y-128566862D01*
X193766622Y-128000175D01*
X193819732Y-127978177D01*
X193930287Y-127904307D01*
X194024307Y-127810287D01*
X194098177Y-127699732D01*
X194120175Y-127646622D01*
X194686862Y-128213310D01*
X194686862Y-128213309D01*
X194740150Y-128139966D01*
X194843769Y-127936604D01*
X194914295Y-127719544D01*
X194950000Y-127494116D01*
X194950000Y-127265883D01*
X194914295Y-127040455D01*
X194843769Y-126823395D01*
X194740148Y-126620030D01*
X194686863Y-126546689D01*
X194686862Y-126546688D01*
X194120175Y-127113376D01*
X194098177Y-127060268D01*
X194024307Y-126949713D01*
X193930287Y-126855693D01*
X193819732Y-126781823D01*
X193766621Y-126759824D01*
X194333309Y-126193137D01*
X194333309Y-126193135D01*
X194259969Y-126139851D01*
X194056604Y-126036230D01*
X193839544Y-125965704D01*
X193614116Y-125930000D01*
X193385884Y-125930000D01*
X193160455Y-125965704D01*
X192943395Y-126036230D01*
X192740035Y-126139848D01*
X192740033Y-126139849D01*
X192666689Y-126193135D01*
X192666689Y-126193136D01*
X193233377Y-126759824D01*
X193180268Y-126781823D01*
X193069713Y-126855693D01*
X192975693Y-126949713D01*
X192901823Y-127060268D01*
X192879824Y-127113377D01*
X192313136Y-126546689D01*
X192259734Y-126550892D01*
X192240277Y-126550892D01*
X192186862Y-126546688D01*
X191620175Y-127113376D01*
X191598177Y-127060268D01*
X191524307Y-126949713D01*
X191430287Y-126855693D01*
X191319732Y-126781823D01*
X191266621Y-126759824D01*
X191833309Y-126193137D01*
X191833309Y-126193135D01*
X191759965Y-126139848D01*
X191759964Y-126139847D01*
X191674825Y-126096466D01*
X191624029Y-126048492D01*
X191607234Y-125980671D01*
X191629772Y-125914536D01*
X191658231Y-125885666D01*
X191782073Y-125795690D01*
X191915690Y-125662073D01*
X192026760Y-125509199D01*
X192112547Y-125340832D01*
X192170940Y-125161118D01*
X192200500Y-124974486D01*
X192200500Y-124785513D01*
X192170940Y-124598881D01*
X192112545Y-124419163D01*
X192026759Y-124250800D01*
X191915690Y-124097927D01*
X191782073Y-123964310D01*
X191658234Y-123874335D01*
X191615569Y-123819004D01*
X191609590Y-123749391D01*
X191642196Y-123687596D01*
X191674826Y-123663532D01*
X191759964Y-123620152D01*
X191833309Y-123566862D01*
X191833310Y-123566862D01*
X191266622Y-123000175D01*
X191319732Y-122978177D01*
X191430287Y-122904307D01*
X191524307Y-122810287D01*
X191598177Y-122699732D01*
X191620175Y-122646623D01*
X192186861Y-123213309D01*
X192240276Y-123209106D01*
X192259735Y-123209106D01*
X192313137Y-123213309D01*
X192879824Y-122646622D01*
X192901823Y-122699732D01*
X192975693Y-122810287D01*
X193069713Y-122904307D01*
X193180268Y-122978177D01*
X193233376Y-123000175D01*
X192666688Y-123566862D01*
X192666689Y-123566863D01*
X192740030Y-123620148D01*
X192943395Y-123723769D01*
X193160455Y-123794295D01*
X193385884Y-123830000D01*
X193614116Y-123830000D01*
X193839544Y-123794295D01*
X194056604Y-123723769D01*
X194259966Y-123620150D01*
X194333309Y-123566862D01*
X194333310Y-123566862D01*
X193766622Y-123000175D01*
X193819732Y-122978177D01*
X193930287Y-122904307D01*
X194024307Y-122810287D01*
X194098177Y-122699732D01*
X194120175Y-122646622D01*
X194686862Y-123213310D01*
X194686862Y-123213309D01*
X194740150Y-123139966D01*
X194843769Y-122936604D01*
X194914295Y-122719544D01*
X194950000Y-122494116D01*
X194950000Y-122265883D01*
X194914295Y-122040455D01*
X194843769Y-121823395D01*
X194740148Y-121620030D01*
X194686863Y-121546689D01*
X194686862Y-121546688D01*
X194120175Y-122113376D01*
X194098177Y-122060268D01*
X194024307Y-121949713D01*
X193930287Y-121855693D01*
X193819732Y-121781823D01*
X193766621Y-121759824D01*
X194333309Y-121193137D01*
X194333309Y-121193135D01*
X194259969Y-121139851D01*
X194056604Y-121036230D01*
X193839544Y-120965704D01*
X193614116Y-120930000D01*
X193385884Y-120930000D01*
X193160455Y-120965704D01*
X192943395Y-121036230D01*
X192740035Y-121139848D01*
X192740033Y-121139849D01*
X192666689Y-121193135D01*
X192666689Y-121193136D01*
X193233377Y-121759824D01*
X193180268Y-121781823D01*
X193069713Y-121855693D01*
X192975693Y-121949713D01*
X192901823Y-122060268D01*
X192879824Y-122113377D01*
X192313136Y-121546689D01*
X192259734Y-121550892D01*
X192240277Y-121550892D01*
X192186862Y-121546688D01*
X191620175Y-122113376D01*
X191598177Y-122060268D01*
X191524307Y-121949713D01*
X191430287Y-121855693D01*
X191319732Y-121781823D01*
X191266621Y-121759824D01*
X191833309Y-121193137D01*
X191833309Y-121193135D01*
X191759969Y-121139851D01*
X191556604Y-121036230D01*
X191339544Y-120965704D01*
X191114116Y-120930000D01*
X190885884Y-120930000D01*
X190660455Y-120965704D01*
X190443395Y-121036230D01*
X190240035Y-121139848D01*
X190240033Y-121139849D01*
X190166689Y-121193135D01*
X190166689Y-121193136D01*
X190733377Y-121759824D01*
X190680268Y-121781823D01*
X190569713Y-121855693D01*
X190475693Y-121949713D01*
X190401823Y-122060268D01*
X190379824Y-122113377D01*
X189813136Y-121546689D01*
X189813135Y-121546689D01*
X189759849Y-121620033D01*
X189759848Y-121620035D01*
X189656230Y-121823395D01*
X189585704Y-122040455D01*
X189550000Y-122265883D01*
X112700000Y-122265883D01*
X112664295Y-122040455D01*
X112593769Y-121823395D01*
X112490148Y-121620030D01*
X112436863Y-121546689D01*
X112436862Y-121546688D01*
X111870175Y-122113376D01*
X111848177Y-122060268D01*
X111774307Y-121949713D01*
X111680287Y-121855693D01*
X111569732Y-121781823D01*
X111516621Y-121759824D01*
X112083309Y-121193137D01*
X112083309Y-121193135D01*
X112009969Y-121139851D01*
X111806604Y-121036230D01*
X111589544Y-120965704D01*
X111364116Y-120930000D01*
X111135884Y-120930000D01*
X110910455Y-120965704D01*
X110693395Y-121036230D01*
X110490035Y-121139848D01*
X110490033Y-121139849D01*
X110416689Y-121193135D01*
X110416689Y-121193136D01*
X110983377Y-121759824D01*
X110930268Y-121781823D01*
X110819713Y-121855693D01*
X110725693Y-121949713D01*
X110651823Y-122060268D01*
X110629824Y-122113377D01*
X110063136Y-121546689D01*
X110009734Y-121550892D01*
X109990277Y-121550892D01*
X109936862Y-121546688D01*
X109370175Y-122113376D01*
X109348177Y-122060268D01*
X109274307Y-121949713D01*
X109180287Y-121855693D01*
X109069732Y-121781823D01*
X109016621Y-121759824D01*
X109583309Y-121193137D01*
X109583309Y-121193135D01*
X109509969Y-121139851D01*
X109306604Y-121036230D01*
X109089544Y-120965704D01*
X108864116Y-120930000D01*
X108635884Y-120930000D01*
X108410455Y-120965704D01*
X108193395Y-121036230D01*
X107990035Y-121139848D01*
X107990033Y-121139849D01*
X107916689Y-121193135D01*
X107916689Y-121193136D01*
X108483377Y-121759824D01*
X108430268Y-121781823D01*
X108319713Y-121855693D01*
X108225693Y-121949713D01*
X108151823Y-122060268D01*
X108129824Y-122113377D01*
X107563136Y-121546689D01*
X107563135Y-121546689D01*
X107509849Y-121620033D01*
X107509848Y-121620035D01*
X107406230Y-121823395D01*
X107335704Y-122040455D01*
X107300000Y-122265883D01*
X100500500Y-122265883D01*
X100500500Y-105245883D01*
X107300000Y-105245883D01*
X107300000Y-105474116D01*
X107335704Y-105699544D01*
X107406230Y-105916604D01*
X107509851Y-106119969D01*
X107563135Y-106193309D01*
X107563137Y-106193309D01*
X108129824Y-105626622D01*
X108151823Y-105679732D01*
X108225693Y-105790287D01*
X108319713Y-105884307D01*
X108430268Y-105958177D01*
X108483376Y-105980175D01*
X107916688Y-106546862D01*
X107916689Y-106546863D01*
X107990030Y-106600148D01*
X108193395Y-106703769D01*
X108410455Y-106774295D01*
X108635884Y-106810000D01*
X108864116Y-106810000D01*
X109089544Y-106774295D01*
X109306604Y-106703769D01*
X109509966Y-106600150D01*
X109583309Y-106546862D01*
X109583310Y-106546862D01*
X109016622Y-105980175D01*
X109069732Y-105958177D01*
X109180287Y-105884307D01*
X109274307Y-105790287D01*
X109348177Y-105679732D01*
X109370175Y-105626623D01*
X109936861Y-106193309D01*
X109990276Y-106189106D01*
X110009735Y-106189106D01*
X110063137Y-106193309D01*
X110629824Y-105626622D01*
X110651823Y-105679732D01*
X110725693Y-105790287D01*
X110819713Y-105884307D01*
X110930268Y-105958177D01*
X110983376Y-105980175D01*
X110416688Y-106546862D01*
X110416689Y-106546863D01*
X110490030Y-106600148D01*
X110575174Y-106643532D01*
X110625970Y-106691507D01*
X110642765Y-106759328D01*
X110620228Y-106825463D01*
X110591765Y-106854334D01*
X110467933Y-106944305D01*
X110467924Y-106944312D01*
X110334312Y-107077924D01*
X110334312Y-107077925D01*
X110334310Y-107077927D01*
X110286610Y-107143579D01*
X110223240Y-107230800D01*
X110137454Y-107399163D01*
X110079059Y-107578881D01*
X110049500Y-107765513D01*
X110049500Y-107954486D01*
X110079059Y-108141118D01*
X110137454Y-108320836D01*
X110223240Y-108489199D01*
X110334310Y-108642073D01*
X110467927Y-108775690D01*
X110591765Y-108865664D01*
X110634430Y-108920995D01*
X110640409Y-108990608D01*
X110607803Y-109052403D01*
X110575175Y-109076466D01*
X110490040Y-109119845D01*
X110490033Y-109119849D01*
X110416689Y-109173135D01*
X110416689Y-109173136D01*
X110983377Y-109739824D01*
X110930268Y-109761823D01*
X110819713Y-109835693D01*
X110725693Y-109929713D01*
X110651823Y-110040268D01*
X110629824Y-110093377D01*
X110063136Y-109526689D01*
X110009734Y-109530892D01*
X109990277Y-109530892D01*
X109936862Y-109526688D01*
X109370175Y-110093376D01*
X109348177Y-110040268D01*
X109274307Y-109929713D01*
X109180287Y-109835693D01*
X109069732Y-109761823D01*
X109016621Y-109739824D01*
X109583309Y-109173137D01*
X109583309Y-109173135D01*
X109509969Y-109119851D01*
X109306604Y-109016230D01*
X109089544Y-108945704D01*
X108864116Y-108910000D01*
X108635884Y-108910000D01*
X108410455Y-108945704D01*
X108193395Y-109016230D01*
X107990035Y-109119848D01*
X107990033Y-109119849D01*
X107916689Y-109173135D01*
X107916689Y-109173136D01*
X108483377Y-109739824D01*
X108430268Y-109761823D01*
X108319713Y-109835693D01*
X108225693Y-109929713D01*
X108151823Y-110040268D01*
X108129824Y-110093377D01*
X107563136Y-109526689D01*
X107563135Y-109526689D01*
X107509849Y-109600033D01*
X107509848Y-109600035D01*
X107406230Y-109803395D01*
X107335704Y-110020455D01*
X107300000Y-110245883D01*
X107300000Y-110474116D01*
X107335704Y-110699544D01*
X107406230Y-110916604D01*
X107509851Y-111119969D01*
X107563135Y-111193309D01*
X107563137Y-111193309D01*
X108129824Y-110626622D01*
X108151823Y-110679732D01*
X108225693Y-110790287D01*
X108319713Y-110884307D01*
X108430268Y-110958177D01*
X108483376Y-110980175D01*
X107916688Y-111546862D01*
X107916689Y-111546863D01*
X107990030Y-111600148D01*
X108193395Y-111703769D01*
X108410455Y-111774295D01*
X108635884Y-111810000D01*
X108864116Y-111810000D01*
X109089544Y-111774295D01*
X109306604Y-111703769D01*
X109509966Y-111600150D01*
X109583309Y-111546862D01*
X109583310Y-111546862D01*
X109016622Y-110980175D01*
X109069732Y-110958177D01*
X109180287Y-110884307D01*
X109274307Y-110790287D01*
X109348177Y-110679732D01*
X109370175Y-110626623D01*
X109936861Y-111193309D01*
X109990276Y-111189106D01*
X110009735Y-111189106D01*
X110063137Y-111193309D01*
X110629824Y-110626622D01*
X110651823Y-110679732D01*
X110725693Y-110790287D01*
X110819713Y-110884307D01*
X110930268Y-110958177D01*
X110983376Y-110980175D01*
X110416688Y-111546862D01*
X110416689Y-111546863D01*
X110490030Y-111600148D01*
X110693395Y-111703769D01*
X110910455Y-111774295D01*
X111135884Y-111810000D01*
X111364116Y-111810000D01*
X111589544Y-111774295D01*
X111806604Y-111703769D01*
X112009966Y-111600150D01*
X112083309Y-111546862D01*
X112083310Y-111546862D01*
X111516622Y-110980175D01*
X111569732Y-110958177D01*
X111680287Y-110884307D01*
X111774307Y-110790287D01*
X111848177Y-110679732D01*
X111870175Y-110626623D01*
X112436862Y-111193310D01*
X112436862Y-111193309D01*
X112490150Y-111119966D01*
X112593769Y-110916604D01*
X112664295Y-110699544D01*
X112700000Y-110474116D01*
X112700000Y-110245883D01*
X112664295Y-110020455D01*
X112593769Y-109803395D01*
X112490148Y-109600030D01*
X112436863Y-109526689D01*
X112436862Y-109526688D01*
X111870175Y-110093376D01*
X111848177Y-110040268D01*
X111774307Y-109929713D01*
X111680287Y-109835693D01*
X111569732Y-109761823D01*
X111516621Y-109739824D01*
X112083309Y-109173137D01*
X112083309Y-109173135D01*
X112009965Y-109119848D01*
X112009964Y-109119847D01*
X111924825Y-109076466D01*
X111874029Y-109028492D01*
X111857234Y-108960671D01*
X111879772Y-108894536D01*
X111908231Y-108865666D01*
X112032073Y-108775690D01*
X112165690Y-108642073D01*
X112276760Y-108489199D01*
X112362547Y-108320832D01*
X112420940Y-108141118D01*
X112450500Y-107954486D01*
X112450500Y-107765513D01*
X112420940Y-107578881D01*
X112362545Y-107399163D01*
X112276759Y-107230800D01*
X112165690Y-107077927D01*
X112032073Y-106944310D01*
X111908234Y-106854335D01*
X111865569Y-106799004D01*
X111859590Y-106729391D01*
X111892196Y-106667596D01*
X111924826Y-106643532D01*
X112009964Y-106600152D01*
X112083309Y-106546862D01*
X112083310Y-106546862D01*
X111516622Y-105980175D01*
X111569732Y-105958177D01*
X111680287Y-105884307D01*
X111774307Y-105790287D01*
X111848177Y-105679732D01*
X111870175Y-105626623D01*
X112436862Y-106193310D01*
X112436862Y-106193309D01*
X112490150Y-106119966D01*
X112593769Y-105916604D01*
X112664295Y-105699544D01*
X112700000Y-105474116D01*
X112700000Y-105245883D01*
X189550000Y-105245883D01*
X189550000Y-105474116D01*
X189585704Y-105699544D01*
X189656230Y-105916604D01*
X189759851Y-106119969D01*
X189813135Y-106193309D01*
X189813137Y-106193309D01*
X190379824Y-105626622D01*
X190401823Y-105679732D01*
X190475693Y-105790287D01*
X190569713Y-105884307D01*
X190680268Y-105958177D01*
X190733376Y-105980175D01*
X190166688Y-106546862D01*
X190166689Y-106546863D01*
X190240030Y-106600148D01*
X190325174Y-106643532D01*
X190375970Y-106691507D01*
X190392765Y-106759328D01*
X190370228Y-106825463D01*
X190341765Y-106854334D01*
X190217933Y-106944305D01*
X190217924Y-106944312D01*
X190084312Y-107077924D01*
X190084312Y-107077925D01*
X190084310Y-107077927D01*
X190036610Y-107143579D01*
X189973240Y-107230800D01*
X189887454Y-107399163D01*
X189829059Y-107578881D01*
X189799500Y-107765513D01*
X189799500Y-107954486D01*
X189829059Y-108141118D01*
X189887454Y-108320836D01*
X189973240Y-108489199D01*
X190084310Y-108642073D01*
X190217927Y-108775690D01*
X190341765Y-108865664D01*
X190384430Y-108920995D01*
X190390409Y-108990608D01*
X190357803Y-109052403D01*
X190325175Y-109076466D01*
X190240040Y-109119845D01*
X190240033Y-109119849D01*
X190166689Y-109173135D01*
X190166689Y-109173136D01*
X190733377Y-109739824D01*
X190680268Y-109761823D01*
X190569713Y-109835693D01*
X190475693Y-109929713D01*
X190401823Y-110040268D01*
X190379824Y-110093377D01*
X189813136Y-109526689D01*
X189813135Y-109526689D01*
X189759849Y-109600033D01*
X189759848Y-109600035D01*
X189656230Y-109803395D01*
X189585704Y-110020455D01*
X189550000Y-110245883D01*
X189550000Y-110474116D01*
X189585704Y-110699544D01*
X189656230Y-110916604D01*
X189759851Y-111119969D01*
X189813135Y-111193309D01*
X189813137Y-111193309D01*
X190379824Y-110626622D01*
X190401823Y-110679732D01*
X190475693Y-110790287D01*
X190569713Y-110884307D01*
X190680268Y-110958177D01*
X190733376Y-110980175D01*
X190166688Y-111546862D01*
X190166689Y-111546863D01*
X190240030Y-111600148D01*
X190443395Y-111703769D01*
X190660455Y-111774295D01*
X190885884Y-111810000D01*
X191114116Y-111810000D01*
X191339544Y-111774295D01*
X191556604Y-111703769D01*
X191759966Y-111600150D01*
X191833309Y-111546862D01*
X191833310Y-111546862D01*
X191266622Y-110980175D01*
X191319732Y-110958177D01*
X191430287Y-110884307D01*
X191524307Y-110790287D01*
X191598177Y-110679732D01*
X191620175Y-110626623D01*
X192186861Y-111193309D01*
X192240276Y-111189106D01*
X192259735Y-111189106D01*
X192313137Y-111193309D01*
X192879824Y-110626622D01*
X192901823Y-110679732D01*
X192975693Y-110790287D01*
X193069713Y-110884307D01*
X193180268Y-110958177D01*
X193233376Y-110980175D01*
X192666688Y-111546862D01*
X192666689Y-111546863D01*
X192740030Y-111600148D01*
X192943395Y-111703769D01*
X193160455Y-111774295D01*
X193385884Y-111810000D01*
X193614116Y-111810000D01*
X193839544Y-111774295D01*
X194056604Y-111703769D01*
X194259966Y-111600150D01*
X194333309Y-111546862D01*
X194333310Y-111546862D01*
X193766622Y-110980175D01*
X193819732Y-110958177D01*
X193930287Y-110884307D01*
X194024307Y-110790287D01*
X194098177Y-110679732D01*
X194120175Y-110626622D01*
X194686862Y-111193310D01*
X194686862Y-111193309D01*
X194740150Y-111119966D01*
X194843769Y-110916604D01*
X194914295Y-110699544D01*
X194950000Y-110474116D01*
X194950000Y-110245883D01*
X194914295Y-110020455D01*
X194843769Y-109803395D01*
X194740148Y-109600030D01*
X194686863Y-109526689D01*
X194686862Y-109526688D01*
X194120175Y-110093376D01*
X194098177Y-110040268D01*
X194024307Y-109929713D01*
X193930287Y-109835693D01*
X193819732Y-109761823D01*
X193766621Y-109739824D01*
X194333309Y-109173137D01*
X194333309Y-109173135D01*
X194259969Y-109119851D01*
X194056604Y-109016230D01*
X193839544Y-108945704D01*
X193614116Y-108910000D01*
X193385884Y-108910000D01*
X193160455Y-108945704D01*
X192943395Y-109016230D01*
X192740035Y-109119848D01*
X192740033Y-109119849D01*
X192666689Y-109173135D01*
X192666689Y-109173136D01*
X193233377Y-109739824D01*
X193180268Y-109761823D01*
X193069713Y-109835693D01*
X192975693Y-109929713D01*
X192901823Y-110040268D01*
X192879824Y-110093377D01*
X192313136Y-109526689D01*
X192259734Y-109530892D01*
X192240277Y-109530892D01*
X192186862Y-109526688D01*
X191620175Y-110093376D01*
X191598177Y-110040268D01*
X191524307Y-109929713D01*
X191430287Y-109835693D01*
X191319732Y-109761823D01*
X191266621Y-109739824D01*
X191833309Y-109173137D01*
X191833309Y-109173135D01*
X191759965Y-109119848D01*
X191759964Y-109119847D01*
X191674825Y-109076466D01*
X191624029Y-109028492D01*
X191607234Y-108960671D01*
X191629772Y-108894536D01*
X191658231Y-108865666D01*
X191782073Y-108775690D01*
X191915690Y-108642073D01*
X192026760Y-108489199D01*
X192112547Y-108320832D01*
X192170940Y-108141118D01*
X192200500Y-107954486D01*
X192200500Y-107765513D01*
X192170940Y-107578881D01*
X192112545Y-107399163D01*
X192026759Y-107230800D01*
X191915690Y-107077927D01*
X191782073Y-106944310D01*
X191658234Y-106854335D01*
X191615569Y-106799004D01*
X191609590Y-106729391D01*
X191642196Y-106667596D01*
X191674826Y-106643532D01*
X191759964Y-106600152D01*
X191833309Y-106546862D01*
X191833310Y-106546862D01*
X191266622Y-105980175D01*
X191319732Y-105958177D01*
X191430287Y-105884307D01*
X191524307Y-105790287D01*
X191598177Y-105679732D01*
X191620175Y-105626623D01*
X192186861Y-106193309D01*
X192240276Y-106189106D01*
X192259735Y-106189106D01*
X192313137Y-106193309D01*
X192879824Y-105626622D01*
X192901823Y-105679732D01*
X192975693Y-105790287D01*
X193069713Y-105884307D01*
X193180268Y-105958177D01*
X193233376Y-105980175D01*
X192666688Y-106546862D01*
X192666689Y-106546863D01*
X192740030Y-106600148D01*
X192943395Y-106703769D01*
X193160455Y-106774295D01*
X193385884Y-106810000D01*
X193614116Y-106810000D01*
X193839544Y-106774295D01*
X194056604Y-106703769D01*
X194259966Y-106600150D01*
X194333309Y-106546862D01*
X194333310Y-106546862D01*
X193766622Y-105980175D01*
X193819732Y-105958177D01*
X193930287Y-105884307D01*
X194024307Y-105790287D01*
X194098177Y-105679732D01*
X194120175Y-105626622D01*
X194686862Y-106193310D01*
X194686862Y-106193309D01*
X194740150Y-106119966D01*
X194843769Y-105916604D01*
X194914295Y-105699544D01*
X194950000Y-105474116D01*
X194950000Y-105245883D01*
X194914295Y-105020455D01*
X194843769Y-104803395D01*
X194740148Y-104600030D01*
X194686863Y-104526689D01*
X194686862Y-104526688D01*
X194120175Y-105093376D01*
X194098177Y-105040268D01*
X194024307Y-104929713D01*
X193930287Y-104835693D01*
X193819732Y-104761823D01*
X193766621Y-104739824D01*
X194333309Y-104173137D01*
X194333309Y-104173135D01*
X194259969Y-104119851D01*
X194056604Y-104016230D01*
X193839544Y-103945704D01*
X193614116Y-103910000D01*
X193385884Y-103910000D01*
X193160455Y-103945704D01*
X192943395Y-104016230D01*
X192740035Y-104119848D01*
X192740033Y-104119849D01*
X192666689Y-104173135D01*
X192666689Y-104173136D01*
X193233377Y-104739824D01*
X193180268Y-104761823D01*
X193069713Y-104835693D01*
X192975693Y-104929713D01*
X192901823Y-105040268D01*
X192879824Y-105093377D01*
X192313136Y-104526689D01*
X192259734Y-104530892D01*
X192240277Y-104530892D01*
X192186862Y-104526688D01*
X191620175Y-105093376D01*
X191598177Y-105040268D01*
X191524307Y-104929713D01*
X191430287Y-104835693D01*
X191319732Y-104761823D01*
X191266621Y-104739824D01*
X191833309Y-104173137D01*
X191833309Y-104173135D01*
X191759969Y-104119851D01*
X191556604Y-104016230D01*
X191339544Y-103945704D01*
X191114116Y-103910000D01*
X190885884Y-103910000D01*
X190660455Y-103945704D01*
X190443395Y-104016230D01*
X190240035Y-104119848D01*
X190240033Y-104119849D01*
X190166689Y-104173135D01*
X190166689Y-104173136D01*
X190733377Y-104739824D01*
X190680268Y-104761823D01*
X190569713Y-104835693D01*
X190475693Y-104929713D01*
X190401823Y-105040268D01*
X190379824Y-105093377D01*
X189813136Y-104526689D01*
X189813135Y-104526689D01*
X189759849Y-104600033D01*
X189759848Y-104600035D01*
X189656230Y-104803395D01*
X189585704Y-105020455D01*
X189550000Y-105245883D01*
X112700000Y-105245883D01*
X112664295Y-105020455D01*
X112593769Y-104803395D01*
X112490148Y-104600030D01*
X112436863Y-104526689D01*
X112436862Y-104526688D01*
X111870175Y-105093376D01*
X111848177Y-105040268D01*
X111774307Y-104929713D01*
X111680287Y-104835693D01*
X111569732Y-104761823D01*
X111516621Y-104739824D01*
X112083309Y-104173137D01*
X112083309Y-104173135D01*
X112009969Y-104119851D01*
X111806604Y-104016230D01*
X111589544Y-103945704D01*
X111364116Y-103910000D01*
X111135884Y-103910000D01*
X110910455Y-103945704D01*
X110693395Y-104016230D01*
X110490035Y-104119848D01*
X110490033Y-104119849D01*
X110416689Y-104173135D01*
X110416689Y-104173136D01*
X110983377Y-104739824D01*
X110930268Y-104761823D01*
X110819713Y-104835693D01*
X110725693Y-104929713D01*
X110651823Y-105040268D01*
X110629824Y-105093377D01*
X110063136Y-104526689D01*
X110009734Y-104530892D01*
X109990277Y-104530892D01*
X109936862Y-104526688D01*
X109370175Y-105093376D01*
X109348177Y-105040268D01*
X109274307Y-104929713D01*
X109180287Y-104835693D01*
X109069732Y-104761823D01*
X109016621Y-104739824D01*
X109583309Y-104173137D01*
X109583309Y-104173135D01*
X109509969Y-104119851D01*
X109306604Y-104016230D01*
X109089544Y-103945704D01*
X108864116Y-103910000D01*
X108635884Y-103910000D01*
X108410455Y-103945704D01*
X108193395Y-104016230D01*
X107990035Y-104119848D01*
X107990033Y-104119849D01*
X107916689Y-104173135D01*
X107916689Y-104173136D01*
X108483377Y-104739824D01*
X108430268Y-104761823D01*
X108319713Y-104835693D01*
X108225693Y-104929713D01*
X108151823Y-105040268D01*
X108129824Y-105093377D01*
X107563136Y-104526689D01*
X107563135Y-104526689D01*
X107509849Y-104600033D01*
X107509848Y-104600035D01*
X107406230Y-104803395D01*
X107335704Y-105020455D01*
X107300000Y-105245883D01*
X100500500Y-105245883D01*
X100500500Y-96425883D01*
X124682500Y-96425883D01*
X124682500Y-96654116D01*
X124718204Y-96879544D01*
X124788730Y-97096604D01*
X124892351Y-97299969D01*
X124945635Y-97373309D01*
X124945637Y-97373309D01*
X125512324Y-96806622D01*
X125534323Y-96859732D01*
X125608193Y-96970287D01*
X125702213Y-97064307D01*
X125812768Y-97138177D01*
X125865876Y-97160175D01*
X125299188Y-97726862D01*
X125303392Y-97780277D01*
X125303392Y-97799734D01*
X125299189Y-97853136D01*
X125865877Y-98419824D01*
X125812768Y-98441823D01*
X125702213Y-98515693D01*
X125608193Y-98609713D01*
X125534323Y-98720268D01*
X125512324Y-98773377D01*
X124945636Y-98206689D01*
X124945635Y-98206689D01*
X124892349Y-98280033D01*
X124892348Y-98280035D01*
X124788730Y-98483395D01*
X124718204Y-98700455D01*
X124682500Y-98925883D01*
X124682500Y-99154116D01*
X124718204Y-99379544D01*
X124788730Y-99596604D01*
X124892351Y-99799969D01*
X124945635Y-99873309D01*
X124945637Y-99873309D01*
X125512324Y-99306622D01*
X125534323Y-99359732D01*
X125608193Y-99470287D01*
X125702213Y-99564307D01*
X125812768Y-99638177D01*
X125865876Y-99660175D01*
X125299188Y-100226862D01*
X125299189Y-100226863D01*
X125372530Y-100280148D01*
X125575895Y-100383769D01*
X125792955Y-100454295D01*
X126018384Y-100490000D01*
X126246616Y-100490000D01*
X126472044Y-100454295D01*
X126689104Y-100383769D01*
X126892466Y-100280150D01*
X126965809Y-100226862D01*
X126965810Y-100226862D01*
X126399122Y-99660175D01*
X126452232Y-99638177D01*
X126562787Y-99564307D01*
X126656807Y-99470287D01*
X126730677Y-99359732D01*
X126752675Y-99306623D01*
X127319362Y-99873310D01*
X127319362Y-99873309D01*
X127372650Y-99799966D01*
X127476269Y-99596604D01*
X127546795Y-99379544D01*
X127582500Y-99154116D01*
X127582500Y-98925883D01*
X127546795Y-98700455D01*
X127476269Y-98483395D01*
X127372648Y-98280030D01*
X127319363Y-98206689D01*
X127319362Y-98206688D01*
X126752675Y-98773376D01*
X126730677Y-98720268D01*
X126656807Y-98609713D01*
X126562787Y-98515693D01*
X126452232Y-98441823D01*
X126399121Y-98419824D01*
X126965809Y-97853137D01*
X126961606Y-97799735D01*
X126961606Y-97780276D01*
X126965809Y-97726861D01*
X126399122Y-97160175D01*
X126452232Y-97138177D01*
X126562787Y-97064307D01*
X126656807Y-96970287D01*
X126730677Y-96859732D01*
X126752675Y-96806623D01*
X127319362Y-97373310D01*
X127319362Y-97373309D01*
X127372652Y-97299964D01*
X127416032Y-97214826D01*
X127464006Y-97164029D01*
X127531827Y-97147234D01*
X127597962Y-97169771D01*
X127626835Y-97198234D01*
X127671065Y-97259111D01*
X127716810Y-97322073D01*
X127850427Y-97455690D01*
X128003301Y-97566760D01*
X128082847Y-97607290D01*
X128171663Y-97652545D01*
X128171665Y-97652545D01*
X128171668Y-97652547D01*
X128267997Y-97683846D01*
X128351381Y-97710940D01*
X128538014Y-97740500D01*
X128538019Y-97740500D01*
X128726986Y-97740500D01*
X128913618Y-97710940D01*
X129093332Y-97652547D01*
X129257071Y-97569117D01*
X129257074Y-97569117D01*
X129261694Y-97566763D01*
X129261696Y-97566761D01*
X129261699Y-97566760D01*
X129414573Y-97455690D01*
X129548190Y-97322073D01*
X129638165Y-97198232D01*
X129693494Y-97155569D01*
X129763107Y-97149590D01*
X129824902Y-97182196D01*
X129848966Y-97214825D01*
X129892347Y-97299964D01*
X129892348Y-97299965D01*
X129945635Y-97373309D01*
X129945637Y-97373309D01*
X130512324Y-96806622D01*
X130534323Y-96859732D01*
X130608193Y-96970287D01*
X130702213Y-97064307D01*
X130812768Y-97138177D01*
X130865876Y-97160175D01*
X130299188Y-97726862D01*
X130303392Y-97780277D01*
X130303392Y-97799734D01*
X130299189Y-97853136D01*
X130865877Y-98419824D01*
X130812768Y-98441823D01*
X130702213Y-98515693D01*
X130608193Y-98609713D01*
X130534323Y-98720268D01*
X130512324Y-98773377D01*
X129945636Y-98206689D01*
X129945635Y-98206689D01*
X129892349Y-98280033D01*
X129892348Y-98280035D01*
X129788730Y-98483395D01*
X129718204Y-98700455D01*
X129682500Y-98925883D01*
X129682500Y-99154116D01*
X129718204Y-99379544D01*
X129788730Y-99596604D01*
X129892351Y-99799969D01*
X129945635Y-99873309D01*
X129945637Y-99873309D01*
X130512324Y-99306622D01*
X130534323Y-99359732D01*
X130608193Y-99470287D01*
X130702213Y-99564307D01*
X130812768Y-99638177D01*
X130865876Y-99660175D01*
X130299188Y-100226862D01*
X130299189Y-100226863D01*
X130372530Y-100280148D01*
X130575895Y-100383769D01*
X130792955Y-100454295D01*
X131018384Y-100490000D01*
X131246616Y-100490000D01*
X131472044Y-100454295D01*
X131689104Y-100383769D01*
X131892466Y-100280150D01*
X131965809Y-100226862D01*
X131965810Y-100226862D01*
X131399122Y-99660175D01*
X131452232Y-99638177D01*
X131562787Y-99564307D01*
X131656807Y-99470287D01*
X131730677Y-99359732D01*
X131752675Y-99306623D01*
X132319362Y-99873310D01*
X132319362Y-99873309D01*
X132372650Y-99799966D01*
X132476269Y-99596604D01*
X132546795Y-99379544D01*
X132582500Y-99154116D01*
X132582500Y-98925883D01*
X132546795Y-98700455D01*
X132476269Y-98483395D01*
X132372648Y-98280030D01*
X132319363Y-98206689D01*
X132319362Y-98206688D01*
X131752675Y-98773376D01*
X131730677Y-98720268D01*
X131656807Y-98609713D01*
X131562787Y-98515693D01*
X131452232Y-98441823D01*
X131399121Y-98419824D01*
X131965809Y-97853137D01*
X131961606Y-97799735D01*
X131961606Y-97780276D01*
X131965809Y-97726861D01*
X131399122Y-97160175D01*
X131452232Y-97138177D01*
X131562787Y-97064307D01*
X131656807Y-96970287D01*
X131730677Y-96859732D01*
X131752675Y-96806623D01*
X132319362Y-97373310D01*
X132319362Y-97373309D01*
X132372650Y-97299966D01*
X132476269Y-97096604D01*
X132546795Y-96879544D01*
X132582500Y-96654116D01*
X132582500Y-96425883D01*
X132546795Y-96200455D01*
X132476269Y-95983395D01*
X132372648Y-95780030D01*
X132319363Y-95706689D01*
X132319362Y-95706688D01*
X131752675Y-96273376D01*
X131730677Y-96220268D01*
X131656807Y-96109713D01*
X131562787Y-96015693D01*
X131452232Y-95941823D01*
X131399121Y-95919824D01*
X131965809Y-95353137D01*
X131965809Y-95353135D01*
X131892469Y-95299851D01*
X131689104Y-95196230D01*
X131472044Y-95125704D01*
X131246616Y-95090000D01*
X131018384Y-95090000D01*
X130792955Y-95125704D01*
X130575895Y-95196230D01*
X130372535Y-95299848D01*
X130372533Y-95299849D01*
X130299189Y-95353135D01*
X130299189Y-95353136D01*
X130865877Y-95919824D01*
X130812768Y-95941823D01*
X130702213Y-96015693D01*
X130608193Y-96109713D01*
X130534323Y-96220268D01*
X130512324Y-96273377D01*
X129945636Y-95706689D01*
X129945635Y-95706689D01*
X129892349Y-95780033D01*
X129892345Y-95780040D01*
X129848966Y-95865175D01*
X129800991Y-95915970D01*
X129733170Y-95932765D01*
X129667036Y-95910227D01*
X129638164Y-95881765D01*
X129564251Y-95780033D01*
X129548190Y-95757927D01*
X129414573Y-95624310D01*
X129261699Y-95513240D01*
X129240812Y-95502597D01*
X129093336Y-95427454D01*
X128913618Y-95369059D01*
X128726986Y-95339500D01*
X128726981Y-95339500D01*
X128538019Y-95339500D01*
X128538014Y-95339500D01*
X128351381Y-95369059D01*
X128171663Y-95427454D01*
X128003300Y-95513240D01*
X127916079Y-95576610D01*
X127850427Y-95624310D01*
X127850425Y-95624312D01*
X127850424Y-95624312D01*
X127716812Y-95757924D01*
X127716805Y-95757933D01*
X127626834Y-95881765D01*
X127571504Y-95924431D01*
X127501890Y-95930409D01*
X127440096Y-95897802D01*
X127416032Y-95865174D01*
X127372648Y-95780030D01*
X127319363Y-95706689D01*
X127319362Y-95706688D01*
X126752675Y-96273376D01*
X126730677Y-96220268D01*
X126656807Y-96109713D01*
X126562787Y-96015693D01*
X126452232Y-95941823D01*
X126399121Y-95919824D01*
X126965809Y-95353137D01*
X126965809Y-95353135D01*
X126892469Y-95299851D01*
X126689104Y-95196230D01*
X126472044Y-95125704D01*
X126246616Y-95090000D01*
X126018384Y-95090000D01*
X125792955Y-95125704D01*
X125575895Y-95196230D01*
X125372535Y-95299848D01*
X125372533Y-95299849D01*
X125299189Y-95353135D01*
X125299189Y-95353136D01*
X125865877Y-95919824D01*
X125812768Y-95941823D01*
X125702213Y-96015693D01*
X125608193Y-96109713D01*
X125534323Y-96220268D01*
X125512324Y-96273377D01*
X124945636Y-95706689D01*
X124945635Y-95706689D01*
X124892349Y-95780033D01*
X124892348Y-95780035D01*
X124788730Y-95983395D01*
X124718204Y-96200455D01*
X124682500Y-96425883D01*
X100500500Y-96425883D01*
X100500500Y-88225883D01*
X157300000Y-88225883D01*
X157300000Y-88454116D01*
X157335704Y-88679544D01*
X157406230Y-88896604D01*
X157509851Y-89099969D01*
X157563135Y-89173309D01*
X157563137Y-89173309D01*
X158129824Y-88606622D01*
X158151823Y-88659732D01*
X158225693Y-88770287D01*
X158319713Y-88864307D01*
X158430268Y-88938177D01*
X158483376Y-88960175D01*
X157916688Y-89526862D01*
X157916689Y-89526863D01*
X157990030Y-89580148D01*
X158193395Y-89683769D01*
X158410455Y-89754295D01*
X158635884Y-89790000D01*
X158864116Y-89790000D01*
X159089544Y-89754295D01*
X159306604Y-89683769D01*
X159509966Y-89580150D01*
X159583309Y-89526862D01*
X159583310Y-89526862D01*
X159016622Y-88960175D01*
X159069732Y-88938177D01*
X159180287Y-88864307D01*
X159274307Y-88770287D01*
X159348177Y-88659732D01*
X159370175Y-88606623D01*
X159936861Y-89173309D01*
X159990276Y-89169106D01*
X160009735Y-89169106D01*
X160063137Y-89173309D01*
X160629824Y-88606622D01*
X160651823Y-88659732D01*
X160725693Y-88770287D01*
X160819713Y-88864307D01*
X160930268Y-88938177D01*
X160983376Y-88960175D01*
X160416688Y-89526862D01*
X160416689Y-89526863D01*
X160490030Y-89580148D01*
X160575174Y-89623532D01*
X160625970Y-89671507D01*
X160642765Y-89739328D01*
X160620228Y-89805463D01*
X160591765Y-89834334D01*
X160467933Y-89924305D01*
X160467924Y-89924312D01*
X160334312Y-90057924D01*
X160334312Y-90057925D01*
X160334310Y-90057927D01*
X160286610Y-90123579D01*
X160223240Y-90210800D01*
X160137454Y-90379163D01*
X160079059Y-90558881D01*
X160049500Y-90745513D01*
X160049500Y-90934486D01*
X160079059Y-91121118D01*
X160137454Y-91300836D01*
X160223240Y-91469199D01*
X160334310Y-91622073D01*
X160467927Y-91755690D01*
X160591765Y-91845664D01*
X160634430Y-91900995D01*
X160640409Y-91970608D01*
X160607803Y-92032403D01*
X160575175Y-92056466D01*
X160490040Y-92099845D01*
X160490033Y-92099849D01*
X160416689Y-92153135D01*
X160416689Y-92153136D01*
X160983377Y-92719824D01*
X160930268Y-92741823D01*
X160819713Y-92815693D01*
X160725693Y-92909713D01*
X160651823Y-93020268D01*
X160629824Y-93073377D01*
X160063136Y-92506689D01*
X160009734Y-92510892D01*
X159990277Y-92510892D01*
X159936862Y-92506688D01*
X159370175Y-93073376D01*
X159348177Y-93020268D01*
X159274307Y-92909713D01*
X159180287Y-92815693D01*
X159069732Y-92741823D01*
X159016621Y-92719824D01*
X159583309Y-92153137D01*
X159583309Y-92153135D01*
X159509969Y-92099851D01*
X159306604Y-91996230D01*
X159089544Y-91925704D01*
X158864116Y-91890000D01*
X158635884Y-91890000D01*
X158410455Y-91925704D01*
X158193395Y-91996230D01*
X157990035Y-92099848D01*
X157990033Y-92099849D01*
X157916689Y-92153135D01*
X157916689Y-92153136D01*
X158483377Y-92719824D01*
X158430268Y-92741823D01*
X158319713Y-92815693D01*
X158225693Y-92909713D01*
X158151823Y-93020268D01*
X158129824Y-93073377D01*
X157563136Y-92506689D01*
X157563135Y-92506689D01*
X157509849Y-92580033D01*
X157509848Y-92580035D01*
X157406230Y-92783395D01*
X157335704Y-93000455D01*
X157300000Y-93225883D01*
X157300000Y-93454116D01*
X157335704Y-93679544D01*
X157406230Y-93896604D01*
X157509851Y-94099969D01*
X157563135Y-94173309D01*
X157563137Y-94173309D01*
X158129824Y-93606622D01*
X158151823Y-93659732D01*
X158225693Y-93770287D01*
X158319713Y-93864307D01*
X158430268Y-93938177D01*
X158483376Y-93960175D01*
X157916688Y-94526862D01*
X157916689Y-94526863D01*
X157990030Y-94580148D01*
X158193395Y-94683769D01*
X158410455Y-94754295D01*
X158635884Y-94790000D01*
X158864116Y-94790000D01*
X159089544Y-94754295D01*
X159306604Y-94683769D01*
X159509966Y-94580150D01*
X159583309Y-94526862D01*
X159583310Y-94526862D01*
X159016622Y-93960175D01*
X159069732Y-93938177D01*
X159180287Y-93864307D01*
X159274307Y-93770287D01*
X159348177Y-93659732D01*
X159370175Y-93606623D01*
X159936861Y-94173309D01*
X159990276Y-94169106D01*
X160009735Y-94169106D01*
X160063137Y-94173309D01*
X160629824Y-93606622D01*
X160651823Y-93659732D01*
X160725693Y-93770287D01*
X160819713Y-93864307D01*
X160930268Y-93938177D01*
X160983376Y-93960175D01*
X160416688Y-94526862D01*
X160416689Y-94526863D01*
X160490030Y-94580148D01*
X160693395Y-94683769D01*
X160910455Y-94754295D01*
X161135884Y-94790000D01*
X161364116Y-94790000D01*
X161589544Y-94754295D01*
X161806604Y-94683769D01*
X162009966Y-94580150D01*
X162083309Y-94526862D01*
X162083310Y-94526862D01*
X161516622Y-93960175D01*
X161569732Y-93938177D01*
X161680287Y-93864307D01*
X161774307Y-93770287D01*
X161848177Y-93659732D01*
X161870175Y-93606623D01*
X162436862Y-94173310D01*
X162436862Y-94173309D01*
X162490150Y-94099966D01*
X162593769Y-93896604D01*
X162664295Y-93679544D01*
X162700000Y-93454116D01*
X162700000Y-93225883D01*
X162664295Y-93000455D01*
X162593769Y-92783395D01*
X162490148Y-92580030D01*
X162436863Y-92506689D01*
X162436862Y-92506688D01*
X161870175Y-93073376D01*
X161848177Y-93020268D01*
X161774307Y-92909713D01*
X161680287Y-92815693D01*
X161569732Y-92741823D01*
X161516621Y-92719824D01*
X162083309Y-92153137D01*
X162083309Y-92153135D01*
X162009965Y-92099848D01*
X162009964Y-92099847D01*
X161924825Y-92056466D01*
X161874029Y-92008492D01*
X161857234Y-91940671D01*
X161879772Y-91874536D01*
X161908231Y-91845666D01*
X162032073Y-91755690D01*
X162165690Y-91622073D01*
X162276760Y-91469199D01*
X162362547Y-91300832D01*
X162420940Y-91121118D01*
X162450500Y-90934486D01*
X162450500Y-90745513D01*
X162420940Y-90558881D01*
X162362545Y-90379163D01*
X162276759Y-90210800D01*
X162165690Y-90057927D01*
X162032073Y-89924310D01*
X161908234Y-89834335D01*
X161865569Y-89779004D01*
X161859590Y-89709391D01*
X161892196Y-89647596D01*
X161924826Y-89623532D01*
X162009964Y-89580152D01*
X162083309Y-89526862D01*
X162083310Y-89526862D01*
X161516622Y-88960175D01*
X161569732Y-88938177D01*
X161680287Y-88864307D01*
X161774307Y-88770287D01*
X161848177Y-88659732D01*
X161870175Y-88606623D01*
X162436862Y-89173310D01*
X162436862Y-89173309D01*
X162490150Y-89099966D01*
X162593769Y-88896604D01*
X162664295Y-88679544D01*
X162700000Y-88454116D01*
X162700000Y-88225883D01*
X189550000Y-88225883D01*
X189550000Y-88454116D01*
X189585704Y-88679544D01*
X189656230Y-88896604D01*
X189759851Y-89099969D01*
X189813135Y-89173309D01*
X189813137Y-89173309D01*
X190379824Y-88606622D01*
X190401823Y-88659732D01*
X190475693Y-88770287D01*
X190569713Y-88864307D01*
X190680268Y-88938177D01*
X190733376Y-88960175D01*
X190166688Y-89526862D01*
X190166689Y-89526863D01*
X190240030Y-89580148D01*
X190325174Y-89623532D01*
X190375970Y-89671507D01*
X190392765Y-89739328D01*
X190370228Y-89805463D01*
X190341765Y-89834334D01*
X190217933Y-89924305D01*
X190217924Y-89924312D01*
X190084312Y-90057924D01*
X190084312Y-90057925D01*
X190084310Y-90057927D01*
X190036610Y-90123579D01*
X189973240Y-90210800D01*
X189887454Y-90379163D01*
X189829059Y-90558881D01*
X189799500Y-90745513D01*
X189799500Y-90934486D01*
X189829059Y-91121118D01*
X189887454Y-91300836D01*
X189973240Y-91469199D01*
X190084310Y-91622073D01*
X190217927Y-91755690D01*
X190341765Y-91845664D01*
X190384430Y-91900995D01*
X190390409Y-91970608D01*
X190357803Y-92032403D01*
X190325175Y-92056466D01*
X190240040Y-92099845D01*
X190240033Y-92099849D01*
X190166689Y-92153135D01*
X190166689Y-92153136D01*
X190733377Y-92719824D01*
X190680268Y-92741823D01*
X190569713Y-92815693D01*
X190475693Y-92909713D01*
X190401823Y-93020268D01*
X190379824Y-93073377D01*
X189813136Y-92506689D01*
X189813135Y-92506689D01*
X189759849Y-92580033D01*
X189759848Y-92580035D01*
X189656230Y-92783395D01*
X189585704Y-93000455D01*
X189550000Y-93225883D01*
X189550000Y-93454116D01*
X189585704Y-93679544D01*
X189656230Y-93896604D01*
X189759851Y-94099969D01*
X189813135Y-94173309D01*
X189813137Y-94173309D01*
X190379824Y-93606622D01*
X190401823Y-93659732D01*
X190475693Y-93770287D01*
X190569713Y-93864307D01*
X190680268Y-93938177D01*
X190733376Y-93960175D01*
X190166688Y-94526862D01*
X190166689Y-94526863D01*
X190240030Y-94580148D01*
X190443395Y-94683769D01*
X190660455Y-94754295D01*
X190885884Y-94790000D01*
X191114116Y-94790000D01*
X191339544Y-94754295D01*
X191556604Y-94683769D01*
X191759966Y-94580150D01*
X191833309Y-94526862D01*
X191833310Y-94526862D01*
X191266622Y-93960175D01*
X191319732Y-93938177D01*
X191430287Y-93864307D01*
X191524307Y-93770287D01*
X191598177Y-93659732D01*
X191620175Y-93606623D01*
X192186861Y-94173309D01*
X192240276Y-94169106D01*
X192259735Y-94169106D01*
X192313137Y-94173309D01*
X192879824Y-93606622D01*
X192901823Y-93659732D01*
X192975693Y-93770287D01*
X193069713Y-93864307D01*
X193180268Y-93938177D01*
X193233376Y-93960175D01*
X192666688Y-94526862D01*
X192666689Y-94526863D01*
X192740030Y-94580148D01*
X192943395Y-94683769D01*
X193160455Y-94754295D01*
X193385884Y-94790000D01*
X193614116Y-94790000D01*
X193839544Y-94754295D01*
X194056604Y-94683769D01*
X194259966Y-94580150D01*
X194333309Y-94526862D01*
X194333310Y-94526862D01*
X193766622Y-93960175D01*
X193819732Y-93938177D01*
X193930287Y-93864307D01*
X194024307Y-93770287D01*
X194098177Y-93659732D01*
X194120175Y-93606622D01*
X194686862Y-94173310D01*
X194686862Y-94173309D01*
X194740150Y-94099966D01*
X194843769Y-93896604D01*
X194914295Y-93679544D01*
X194950000Y-93454116D01*
X194950000Y-93225883D01*
X194914295Y-93000455D01*
X194843769Y-92783395D01*
X194740148Y-92580030D01*
X194686863Y-92506689D01*
X194686862Y-92506688D01*
X194120175Y-93073376D01*
X194098177Y-93020268D01*
X194024307Y-92909713D01*
X193930287Y-92815693D01*
X193819732Y-92741823D01*
X193766621Y-92719824D01*
X194333309Y-92153137D01*
X194333309Y-92153135D01*
X194259969Y-92099851D01*
X194056604Y-91996230D01*
X193839544Y-91925704D01*
X193614116Y-91890000D01*
X193385884Y-91890000D01*
X193160455Y-91925704D01*
X192943395Y-91996230D01*
X192740035Y-92099848D01*
X192740033Y-92099849D01*
X192666689Y-92153135D01*
X192666689Y-92153136D01*
X193233377Y-92719824D01*
X193180268Y-92741823D01*
X193069713Y-92815693D01*
X192975693Y-92909713D01*
X192901823Y-93020268D01*
X192879824Y-93073377D01*
X192313136Y-92506689D01*
X192259734Y-92510892D01*
X192240277Y-92510892D01*
X192186862Y-92506688D01*
X191620175Y-93073376D01*
X191598177Y-93020268D01*
X191524307Y-92909713D01*
X191430287Y-92815693D01*
X191319732Y-92741823D01*
X191266621Y-92719824D01*
X191833309Y-92153137D01*
X191833309Y-92153135D01*
X191759965Y-92099848D01*
X191759964Y-92099847D01*
X191674825Y-92056466D01*
X191624029Y-92008492D01*
X191607234Y-91940671D01*
X191629772Y-91874536D01*
X191658231Y-91845666D01*
X191782073Y-91755690D01*
X191915690Y-91622073D01*
X192026760Y-91469199D01*
X192112547Y-91300832D01*
X192170940Y-91121118D01*
X192200500Y-90934486D01*
X192200500Y-90745513D01*
X192170940Y-90558881D01*
X192112545Y-90379163D01*
X192026759Y-90210800D01*
X191915690Y-90057927D01*
X191782073Y-89924310D01*
X191658234Y-89834335D01*
X191615569Y-89779004D01*
X191609590Y-89709391D01*
X191642196Y-89647596D01*
X191674826Y-89623532D01*
X191759964Y-89580152D01*
X191833309Y-89526862D01*
X191833310Y-89526862D01*
X191266622Y-88960175D01*
X191319732Y-88938177D01*
X191430287Y-88864307D01*
X191524307Y-88770287D01*
X191598177Y-88659732D01*
X191620175Y-88606623D01*
X192186861Y-89173309D01*
X192240276Y-89169106D01*
X192259735Y-89169106D01*
X192313137Y-89173309D01*
X192879824Y-88606622D01*
X192901823Y-88659732D01*
X192975693Y-88770287D01*
X193069713Y-88864307D01*
X193180268Y-88938177D01*
X193233376Y-88960175D01*
X192666688Y-89526862D01*
X192666689Y-89526863D01*
X192740030Y-89580148D01*
X192943395Y-89683769D01*
X193160455Y-89754295D01*
X193385884Y-89790000D01*
X193614116Y-89790000D01*
X193839544Y-89754295D01*
X194056604Y-89683769D01*
X194259966Y-89580150D01*
X194333309Y-89526862D01*
X194333310Y-89526862D01*
X193766622Y-88960175D01*
X193819732Y-88938177D01*
X193930287Y-88864307D01*
X194024307Y-88770287D01*
X194098177Y-88659732D01*
X194120175Y-88606622D01*
X194686862Y-89173310D01*
X194686862Y-89173309D01*
X194740150Y-89099966D01*
X194843769Y-88896604D01*
X194914295Y-88679544D01*
X194950000Y-88454116D01*
X194950000Y-88225883D01*
X194914295Y-88000455D01*
X194843769Y-87783395D01*
X194740148Y-87580030D01*
X194686863Y-87506689D01*
X194686862Y-87506688D01*
X194120175Y-88073376D01*
X194098177Y-88020268D01*
X194024307Y-87909713D01*
X193930287Y-87815693D01*
X193819732Y-87741823D01*
X193766621Y-87719824D01*
X194333309Y-87153137D01*
X194333309Y-87153135D01*
X194259969Y-87099851D01*
X194056604Y-86996230D01*
X193839544Y-86925704D01*
X193614116Y-86890000D01*
X193385884Y-86890000D01*
X193160455Y-86925704D01*
X192943395Y-86996230D01*
X192740035Y-87099848D01*
X192740033Y-87099849D01*
X192666689Y-87153135D01*
X192666689Y-87153136D01*
X193233377Y-87719824D01*
X193180268Y-87741823D01*
X193069713Y-87815693D01*
X192975693Y-87909713D01*
X192901823Y-88020268D01*
X192879824Y-88073377D01*
X192313136Y-87506689D01*
X192259734Y-87510892D01*
X192240277Y-87510892D01*
X192186862Y-87506688D01*
X191620175Y-88073376D01*
X191598177Y-88020268D01*
X191524307Y-87909713D01*
X191430287Y-87815693D01*
X191319732Y-87741823D01*
X191266621Y-87719824D01*
X191833309Y-87153137D01*
X191833309Y-87153135D01*
X191759969Y-87099851D01*
X191556604Y-86996230D01*
X191339544Y-86925704D01*
X191114116Y-86890000D01*
X190885884Y-86890000D01*
X190660455Y-86925704D01*
X190443395Y-86996230D01*
X190240035Y-87099848D01*
X190240033Y-87099849D01*
X190166689Y-87153135D01*
X190166689Y-87153136D01*
X190733377Y-87719824D01*
X190680268Y-87741823D01*
X190569713Y-87815693D01*
X190475693Y-87909713D01*
X190401823Y-88020268D01*
X190379824Y-88073377D01*
X189813136Y-87506689D01*
X189813135Y-87506689D01*
X189759849Y-87580033D01*
X189759848Y-87580035D01*
X189656230Y-87783395D01*
X189585704Y-88000455D01*
X189550000Y-88225883D01*
X162700000Y-88225883D01*
X162664295Y-88000455D01*
X162593769Y-87783395D01*
X162490148Y-87580030D01*
X162436863Y-87506689D01*
X162436862Y-87506688D01*
X161870175Y-88073376D01*
X161848177Y-88020268D01*
X161774307Y-87909713D01*
X161680287Y-87815693D01*
X161569732Y-87741823D01*
X161516621Y-87719824D01*
X162083309Y-87153137D01*
X162083309Y-87153135D01*
X162009969Y-87099851D01*
X161806604Y-86996230D01*
X161589544Y-86925704D01*
X161364116Y-86890000D01*
X161135884Y-86890000D01*
X160910455Y-86925704D01*
X160693395Y-86996230D01*
X160490035Y-87099848D01*
X160490033Y-87099849D01*
X160416689Y-87153135D01*
X160416689Y-87153136D01*
X160983377Y-87719824D01*
X160930268Y-87741823D01*
X160819713Y-87815693D01*
X160725693Y-87909713D01*
X160651823Y-88020268D01*
X160629824Y-88073377D01*
X160063136Y-87506689D01*
X160009734Y-87510892D01*
X159990277Y-87510892D01*
X159936862Y-87506688D01*
X159370175Y-88073376D01*
X159348177Y-88020268D01*
X159274307Y-87909713D01*
X159180287Y-87815693D01*
X159069732Y-87741823D01*
X159016621Y-87719824D01*
X159583309Y-87153137D01*
X159583309Y-87153135D01*
X159509969Y-87099851D01*
X159306604Y-86996230D01*
X159089544Y-86925704D01*
X158864116Y-86890000D01*
X158635884Y-86890000D01*
X158410455Y-86925704D01*
X158193395Y-86996230D01*
X157990035Y-87099848D01*
X157990033Y-87099849D01*
X157916689Y-87153135D01*
X157916689Y-87153136D01*
X158483377Y-87719824D01*
X158430268Y-87741823D01*
X158319713Y-87815693D01*
X158225693Y-87909713D01*
X158151823Y-88020268D01*
X158129824Y-88073377D01*
X157563136Y-87506689D01*
X157563135Y-87506689D01*
X157509849Y-87580033D01*
X157509848Y-87580035D01*
X157406230Y-87783395D01*
X157335704Y-88000455D01*
X157300000Y-88225883D01*
X100500500Y-88225883D01*
X100500500Y-73925883D01*
X104682500Y-73925883D01*
X104682500Y-74154116D01*
X104718204Y-74379544D01*
X104788730Y-74596604D01*
X104892351Y-74799969D01*
X104945635Y-74873309D01*
X104945637Y-74873309D01*
X105512324Y-74306622D01*
X105534323Y-74359732D01*
X105608193Y-74470287D01*
X105702213Y-74564307D01*
X105812768Y-74638177D01*
X105865876Y-74660175D01*
X105299188Y-75226862D01*
X105299189Y-75226863D01*
X105372530Y-75280148D01*
X105575895Y-75383769D01*
X105792955Y-75454295D01*
X106018384Y-75490000D01*
X106246616Y-75490000D01*
X106472044Y-75454295D01*
X106689104Y-75383769D01*
X106892466Y-75280150D01*
X106965809Y-75226862D01*
X106965810Y-75226862D01*
X106399122Y-74660175D01*
X106452232Y-74638177D01*
X106562787Y-74564307D01*
X106656807Y-74470287D01*
X106730677Y-74359732D01*
X106752675Y-74306623D01*
X107319361Y-74873309D01*
X107372776Y-74869106D01*
X107392235Y-74869106D01*
X107445637Y-74873309D01*
X108012324Y-74306622D01*
X108034323Y-74359732D01*
X108108193Y-74470287D01*
X108202213Y-74564307D01*
X108312768Y-74638177D01*
X108365876Y-74660175D01*
X107799188Y-75226862D01*
X107799189Y-75226863D01*
X107872530Y-75280148D01*
X107957674Y-75323532D01*
X108008470Y-75371507D01*
X108025265Y-75439328D01*
X108002728Y-75505463D01*
X107974265Y-75534334D01*
X107850433Y-75624305D01*
X107850424Y-75624312D01*
X107716812Y-75757924D01*
X107716812Y-75757925D01*
X107716810Y-75757927D01*
X107689371Y-75795693D01*
X107605740Y-75910800D01*
X107519954Y-76079163D01*
X107461559Y-76258881D01*
X107432000Y-76445513D01*
X107432000Y-76634486D01*
X107461559Y-76821118D01*
X107519954Y-77000836D01*
X107560275Y-77079969D01*
X107605740Y-77169199D01*
X107716810Y-77322073D01*
X107850427Y-77455690D01*
X107974265Y-77545664D01*
X108016930Y-77600995D01*
X108022909Y-77670608D01*
X107990303Y-77732403D01*
X107957675Y-77756466D01*
X107872540Y-77799845D01*
X107872533Y-77799849D01*
X107799189Y-77853135D01*
X107799189Y-77853136D01*
X108365877Y-78419824D01*
X108312768Y-78441823D01*
X108202213Y-78515693D01*
X108108193Y-78609713D01*
X108034323Y-78720268D01*
X108012324Y-78773377D01*
X107445636Y-78206689D01*
X107392234Y-78210892D01*
X107372777Y-78210892D01*
X107319362Y-78206688D01*
X106752675Y-78773376D01*
X106730677Y-78720268D01*
X106656807Y-78609713D01*
X106562787Y-78515693D01*
X106452232Y-78441823D01*
X106399121Y-78419824D01*
X106965809Y-77853137D01*
X106965809Y-77853135D01*
X106892469Y-77799851D01*
X106689104Y-77696230D01*
X106472044Y-77625704D01*
X106246616Y-77590000D01*
X106018384Y-77590000D01*
X105792955Y-77625704D01*
X105575895Y-77696230D01*
X105372535Y-77799848D01*
X105372533Y-77799849D01*
X105299189Y-77853135D01*
X105299189Y-77853136D01*
X105865877Y-78419824D01*
X105812768Y-78441823D01*
X105702213Y-78515693D01*
X105608193Y-78609713D01*
X105534323Y-78720268D01*
X105512324Y-78773377D01*
X104945636Y-78206689D01*
X104945635Y-78206689D01*
X104892349Y-78280033D01*
X104892348Y-78280035D01*
X104788730Y-78483395D01*
X104718204Y-78700455D01*
X104682500Y-78925883D01*
X104682500Y-79154116D01*
X104718204Y-79379544D01*
X104788730Y-79596604D01*
X104892351Y-79799969D01*
X104945635Y-79873309D01*
X104945637Y-79873309D01*
X105512324Y-79306622D01*
X105534323Y-79359732D01*
X105608193Y-79470287D01*
X105702213Y-79564307D01*
X105812768Y-79638177D01*
X105865876Y-79660175D01*
X105299188Y-80226862D01*
X105299189Y-80226863D01*
X105372530Y-80280148D01*
X105575895Y-80383769D01*
X105792955Y-80454295D01*
X106018384Y-80490000D01*
X106246616Y-80490000D01*
X106472044Y-80454295D01*
X106689104Y-80383769D01*
X106892466Y-80280150D01*
X106965809Y-80226862D01*
X106965810Y-80226862D01*
X106399122Y-79660175D01*
X106452232Y-79638177D01*
X106562787Y-79564307D01*
X106656807Y-79470287D01*
X106730677Y-79359732D01*
X106752675Y-79306623D01*
X107319361Y-79873309D01*
X107372776Y-79869106D01*
X107392235Y-79869106D01*
X107445637Y-79873309D01*
X108012324Y-79306622D01*
X108034323Y-79359732D01*
X108108193Y-79470287D01*
X108202213Y-79564307D01*
X108312768Y-79638177D01*
X108365876Y-79660175D01*
X107799188Y-80226862D01*
X107799189Y-80226863D01*
X107872530Y-80280148D01*
X108075895Y-80383769D01*
X108292955Y-80454295D01*
X108518384Y-80490000D01*
X108746616Y-80490000D01*
X108972044Y-80454295D01*
X109189104Y-80383769D01*
X109392466Y-80280150D01*
X109465809Y-80226862D01*
X109465810Y-80226862D01*
X108899122Y-79660175D01*
X108952232Y-79638177D01*
X109062787Y-79564307D01*
X109156807Y-79470287D01*
X109230677Y-79359732D01*
X109252675Y-79306623D01*
X109819362Y-79873310D01*
X109819362Y-79873309D01*
X109872650Y-79799966D01*
X109976269Y-79596604D01*
X110046795Y-79379544D01*
X110082500Y-79154116D01*
X110082500Y-78925883D01*
X110046795Y-78700455D01*
X109976269Y-78483395D01*
X109872648Y-78280030D01*
X109819363Y-78206689D01*
X109819362Y-78206688D01*
X109252675Y-78773376D01*
X109230677Y-78720268D01*
X109156807Y-78609713D01*
X109062787Y-78515693D01*
X108952232Y-78441823D01*
X108899121Y-78419824D01*
X109465809Y-77853137D01*
X109465809Y-77853135D01*
X109392465Y-77799848D01*
X109392464Y-77799847D01*
X109307325Y-77756466D01*
X109256529Y-77708492D01*
X109239734Y-77640671D01*
X109262272Y-77574536D01*
X109290731Y-77545666D01*
X109414573Y-77455690D01*
X109548190Y-77322073D01*
X109659260Y-77169199D01*
X109745047Y-77000832D01*
X109803440Y-76821118D01*
X109833000Y-76634486D01*
X109833000Y-76445513D01*
X109803440Y-76258881D01*
X109745045Y-76079163D01*
X109659259Y-75910800D01*
X109548190Y-75757927D01*
X109414573Y-75624310D01*
X109351611Y-75578565D01*
X109290734Y-75534335D01*
X109248069Y-75479004D01*
X109242090Y-75409391D01*
X109274696Y-75347596D01*
X109307326Y-75323532D01*
X109392464Y-75280152D01*
X109465809Y-75226862D01*
X109465810Y-75226862D01*
X108899122Y-74660175D01*
X108952232Y-74638177D01*
X109062787Y-74564307D01*
X109156807Y-74470287D01*
X109230677Y-74359732D01*
X109252675Y-74306623D01*
X109819362Y-74873310D01*
X109819362Y-74873309D01*
X109872650Y-74799966D01*
X109976269Y-74596604D01*
X110046795Y-74379544D01*
X110082500Y-74154116D01*
X110082500Y-73925883D01*
X147057500Y-73925883D01*
X147057500Y-74154116D01*
X147093204Y-74379544D01*
X147163730Y-74596604D01*
X147267351Y-74799969D01*
X147320635Y-74873309D01*
X147320637Y-74873309D01*
X147887324Y-74306622D01*
X147909323Y-74359732D01*
X147983193Y-74470287D01*
X148077213Y-74564307D01*
X148187768Y-74638177D01*
X148240876Y-74660175D01*
X147674188Y-75226862D01*
X147674189Y-75226863D01*
X147747530Y-75280148D01*
X147832674Y-75323532D01*
X147883470Y-75371507D01*
X147900265Y-75439328D01*
X147877728Y-75505463D01*
X147849265Y-75534334D01*
X147725433Y-75624305D01*
X147725424Y-75624312D01*
X147591812Y-75757924D01*
X147591812Y-75757925D01*
X147591810Y-75757927D01*
X147564371Y-75795693D01*
X147480740Y-75910800D01*
X147394954Y-76079163D01*
X147336559Y-76258881D01*
X147307000Y-76445513D01*
X147307000Y-76634486D01*
X147336559Y-76821118D01*
X147394954Y-77000836D01*
X147435275Y-77079969D01*
X147480740Y-77169199D01*
X147591810Y-77322073D01*
X147725427Y-77455690D01*
X147849265Y-77545664D01*
X147891930Y-77600995D01*
X147897909Y-77670608D01*
X147865303Y-77732403D01*
X147832675Y-77756466D01*
X147747540Y-77799845D01*
X147747533Y-77799849D01*
X147674189Y-77853135D01*
X147674189Y-77853136D01*
X148240877Y-78419824D01*
X148187768Y-78441823D01*
X148077213Y-78515693D01*
X147983193Y-78609713D01*
X147909323Y-78720268D01*
X147887324Y-78773377D01*
X147320636Y-78206689D01*
X147320635Y-78206689D01*
X147267349Y-78280033D01*
X147267348Y-78280035D01*
X147163730Y-78483395D01*
X147093204Y-78700455D01*
X147057500Y-78925883D01*
X147057500Y-79154116D01*
X147093204Y-79379544D01*
X147163730Y-79596604D01*
X147267351Y-79799969D01*
X147320635Y-79873309D01*
X147320637Y-79873309D01*
X147887324Y-79306622D01*
X147909323Y-79359732D01*
X147983193Y-79470287D01*
X148077213Y-79564307D01*
X148187768Y-79638177D01*
X148240876Y-79660175D01*
X147674188Y-80226862D01*
X147674189Y-80226863D01*
X147747530Y-80280148D01*
X147950895Y-80383769D01*
X148167955Y-80454295D01*
X148393384Y-80490000D01*
X148621616Y-80490000D01*
X148847044Y-80454295D01*
X149064104Y-80383769D01*
X149267466Y-80280150D01*
X149340809Y-80226862D01*
X149340810Y-80226862D01*
X148774122Y-79660175D01*
X148827232Y-79638177D01*
X148937787Y-79564307D01*
X149031807Y-79470287D01*
X149105677Y-79359732D01*
X149127675Y-79306623D01*
X149694361Y-79873309D01*
X149747776Y-79869106D01*
X149767235Y-79869106D01*
X149820637Y-79873309D01*
X150387324Y-79306622D01*
X150409323Y-79359732D01*
X150483193Y-79470287D01*
X150577213Y-79564307D01*
X150687768Y-79638177D01*
X150740876Y-79660175D01*
X150174188Y-80226862D01*
X150174189Y-80226863D01*
X150247530Y-80280148D01*
X150450895Y-80383769D01*
X150667955Y-80454295D01*
X150893384Y-80490000D01*
X151121616Y-80490000D01*
X151347044Y-80454295D01*
X151564104Y-80383769D01*
X151767466Y-80280150D01*
X151840809Y-80226862D01*
X151840810Y-80226862D01*
X151274122Y-79660175D01*
X151327232Y-79638177D01*
X151437787Y-79564307D01*
X151531807Y-79470287D01*
X151605677Y-79359732D01*
X151627675Y-79306623D01*
X152194362Y-79873310D01*
X152194362Y-79873309D01*
X152247650Y-79799966D01*
X152351269Y-79596604D01*
X152421795Y-79379544D01*
X152457500Y-79154116D01*
X152457500Y-78925883D01*
X152421795Y-78700455D01*
X152351269Y-78483395D01*
X152247648Y-78280030D01*
X152194363Y-78206689D01*
X152194362Y-78206688D01*
X151627675Y-78773376D01*
X151605677Y-78720268D01*
X151531807Y-78609713D01*
X151437787Y-78515693D01*
X151327232Y-78441823D01*
X151274121Y-78419824D01*
X151840809Y-77853137D01*
X151840809Y-77853135D01*
X151767469Y-77799851D01*
X151564104Y-77696230D01*
X151347044Y-77625704D01*
X151121616Y-77590000D01*
X150893384Y-77590000D01*
X150667955Y-77625704D01*
X150450895Y-77696230D01*
X150247535Y-77799848D01*
X150247533Y-77799849D01*
X150174189Y-77853135D01*
X150174189Y-77853136D01*
X150740877Y-78419824D01*
X150687768Y-78441823D01*
X150577213Y-78515693D01*
X150483193Y-78609713D01*
X150409323Y-78720268D01*
X150387324Y-78773377D01*
X149820636Y-78206689D01*
X149767234Y-78210892D01*
X149747777Y-78210892D01*
X149694362Y-78206688D01*
X149127675Y-78773376D01*
X149105677Y-78720268D01*
X149031807Y-78609713D01*
X148937787Y-78515693D01*
X148827232Y-78441823D01*
X148774121Y-78419824D01*
X149340809Y-77853137D01*
X149340809Y-77853135D01*
X149267465Y-77799848D01*
X149267464Y-77799847D01*
X149182325Y-77756466D01*
X149131529Y-77708492D01*
X149114734Y-77640671D01*
X149137272Y-77574536D01*
X149165731Y-77545666D01*
X149289573Y-77455690D01*
X149423190Y-77322073D01*
X149534260Y-77169199D01*
X149620047Y-77000832D01*
X149678440Y-76821118D01*
X149708000Y-76634486D01*
X149708000Y-76445513D01*
X149688120Y-76319999D01*
X149678440Y-76258882D01*
X149678438Y-76258877D01*
X149678438Y-76258874D01*
X149672091Y-76239340D01*
X149672087Y-76239330D01*
X149661219Y-76205883D01*
X149620047Y-76079168D01*
X149620045Y-76079165D01*
X149620045Y-76079163D01*
X149534259Y-75910800D01*
X149423190Y-75757927D01*
X149289573Y-75624310D01*
X149226611Y-75578565D01*
X149165734Y-75534335D01*
X149123069Y-75479004D01*
X149117090Y-75409391D01*
X149149696Y-75347596D01*
X149182326Y-75323532D01*
X149267464Y-75280152D01*
X149340809Y-75226862D01*
X149340810Y-75226862D01*
X148774122Y-74660175D01*
X148827232Y-74638177D01*
X148937787Y-74564307D01*
X149031807Y-74470287D01*
X149105677Y-74359732D01*
X149127675Y-74306623D01*
X149694361Y-74873309D01*
X149747776Y-74869106D01*
X149767235Y-74869106D01*
X149820637Y-74873309D01*
X150387324Y-74306622D01*
X150409323Y-74359732D01*
X150483193Y-74470287D01*
X150577213Y-74564307D01*
X150687768Y-74638177D01*
X150740876Y-74660175D01*
X150174188Y-75226862D01*
X150174189Y-75226863D01*
X150247530Y-75280148D01*
X150450895Y-75383769D01*
X150667955Y-75454295D01*
X150893384Y-75490000D01*
X151121616Y-75490000D01*
X151347044Y-75454295D01*
X151564104Y-75383769D01*
X151767466Y-75280150D01*
X151840810Y-75226862D01*
X151274122Y-74660175D01*
X151327232Y-74638177D01*
X151437787Y-74564307D01*
X151531807Y-74470287D01*
X151605677Y-74359732D01*
X151627675Y-74306623D01*
X152194362Y-74873310D01*
X152194362Y-74873309D01*
X152247650Y-74799966D01*
X152351269Y-74596604D01*
X152421795Y-74379544D01*
X152457500Y-74154116D01*
X152457500Y-73925883D01*
X152428066Y-73740045D01*
X152428066Y-73740044D01*
X152421796Y-73700456D01*
X152351269Y-73483395D01*
X152247648Y-73280030D01*
X152194363Y-73206689D01*
X152194362Y-73206688D01*
X151627675Y-73773376D01*
X151605677Y-73720268D01*
X151531807Y-73609713D01*
X151437787Y-73515693D01*
X151327232Y-73441823D01*
X151274121Y-73419824D01*
X151840809Y-72853137D01*
X151840809Y-72853135D01*
X151767469Y-72799851D01*
X151564104Y-72696230D01*
X151347044Y-72625704D01*
X151121616Y-72590000D01*
X150893384Y-72590000D01*
X150667955Y-72625704D01*
X150450895Y-72696230D01*
X150247535Y-72799848D01*
X150247533Y-72799849D01*
X150174189Y-72853135D01*
X150174189Y-72853136D01*
X150740877Y-73419824D01*
X150687768Y-73441823D01*
X150577213Y-73515693D01*
X150483193Y-73609713D01*
X150409323Y-73720268D01*
X150387324Y-73773377D01*
X149820636Y-73206689D01*
X149767234Y-73210892D01*
X149747777Y-73210892D01*
X149694362Y-73206688D01*
X149127675Y-73773376D01*
X149105677Y-73720268D01*
X149031807Y-73609713D01*
X148937787Y-73515693D01*
X148827232Y-73441823D01*
X148774121Y-73419824D01*
X149340809Y-72853137D01*
X149340809Y-72853135D01*
X149267469Y-72799851D01*
X149064104Y-72696230D01*
X148847044Y-72625704D01*
X148621616Y-72590000D01*
X148393384Y-72590000D01*
X148167955Y-72625704D01*
X147950895Y-72696230D01*
X147747535Y-72799848D01*
X147747533Y-72799849D01*
X147674189Y-72853135D01*
X147674189Y-72853136D01*
X148240877Y-73419824D01*
X148187768Y-73441823D01*
X148077213Y-73515693D01*
X147983193Y-73609713D01*
X147909323Y-73720268D01*
X147887324Y-73773377D01*
X147320636Y-73206689D01*
X147320635Y-73206689D01*
X147267349Y-73280033D01*
X147267348Y-73280035D01*
X147163730Y-73483395D01*
X147093204Y-73700455D01*
X147057500Y-73925883D01*
X110082500Y-73925883D01*
X110046795Y-73700455D01*
X109976269Y-73483395D01*
X109872648Y-73280030D01*
X109819363Y-73206689D01*
X109819362Y-73206688D01*
X109252675Y-73773376D01*
X109230677Y-73720268D01*
X109156807Y-73609713D01*
X109062787Y-73515693D01*
X108952232Y-73441823D01*
X108899121Y-73419824D01*
X109465809Y-72853137D01*
X109465809Y-72853135D01*
X109392469Y-72799851D01*
X109189104Y-72696230D01*
X108972044Y-72625704D01*
X108746616Y-72590000D01*
X108518384Y-72590000D01*
X108292955Y-72625704D01*
X108075895Y-72696230D01*
X107872535Y-72799848D01*
X107872533Y-72799849D01*
X107799189Y-72853135D01*
X107799189Y-72853136D01*
X108365877Y-73419824D01*
X108312768Y-73441823D01*
X108202213Y-73515693D01*
X108108193Y-73609713D01*
X108034323Y-73720268D01*
X108012324Y-73773377D01*
X107445636Y-73206689D01*
X107392234Y-73210892D01*
X107372777Y-73210892D01*
X107319362Y-73206688D01*
X106752675Y-73773376D01*
X106730677Y-73720268D01*
X106656807Y-73609713D01*
X106562787Y-73515693D01*
X106452232Y-73441823D01*
X106399121Y-73419824D01*
X106965809Y-72853137D01*
X106965809Y-72853135D01*
X106892469Y-72799851D01*
X106689104Y-72696230D01*
X106472044Y-72625704D01*
X106246616Y-72590000D01*
X106018384Y-72590000D01*
X105792955Y-72625704D01*
X105575895Y-72696230D01*
X105372535Y-72799848D01*
X105372533Y-72799849D01*
X105299189Y-72853135D01*
X105299189Y-72853136D01*
X105865877Y-73419824D01*
X105812768Y-73441823D01*
X105702213Y-73515693D01*
X105608193Y-73609713D01*
X105534323Y-73720268D01*
X105512324Y-73773377D01*
X104945636Y-73206689D01*
X104945635Y-73206689D01*
X104892349Y-73280033D01*
X104892348Y-73280035D01*
X104788730Y-73483395D01*
X104718204Y-73700455D01*
X104682500Y-73925883D01*
X100500500Y-73925883D01*
X100500500Y-71205883D01*
X157300000Y-71205883D01*
X157300000Y-71434116D01*
X157335704Y-71659544D01*
X157406230Y-71876604D01*
X157509851Y-72079969D01*
X157563135Y-72153309D01*
X157563137Y-72153309D01*
X158129824Y-71586622D01*
X158151823Y-71639732D01*
X158225693Y-71750287D01*
X158319713Y-71844307D01*
X158430268Y-71918177D01*
X158483376Y-71940175D01*
X157916688Y-72506862D01*
X157916689Y-72506863D01*
X157990030Y-72560148D01*
X158193395Y-72663769D01*
X158410455Y-72734295D01*
X158635884Y-72770000D01*
X158864116Y-72770000D01*
X159089544Y-72734295D01*
X159306604Y-72663769D01*
X159509966Y-72560150D01*
X159583309Y-72506862D01*
X159583310Y-72506862D01*
X159016622Y-71940175D01*
X159069732Y-71918177D01*
X159180287Y-71844307D01*
X159274307Y-71750287D01*
X159348177Y-71639732D01*
X159370175Y-71586623D01*
X159936861Y-72153309D01*
X159990276Y-72149106D01*
X160009735Y-72149106D01*
X160063137Y-72153309D01*
X160629824Y-71586622D01*
X160651823Y-71639732D01*
X160725693Y-71750287D01*
X160819713Y-71844307D01*
X160930268Y-71918177D01*
X160983376Y-71940175D01*
X160416688Y-72506862D01*
X160416689Y-72506863D01*
X160490030Y-72560148D01*
X160575174Y-72603532D01*
X160625970Y-72651507D01*
X160642765Y-72719328D01*
X160620228Y-72785463D01*
X160591765Y-72814334D01*
X160467933Y-72904305D01*
X160467924Y-72904312D01*
X160334312Y-73037924D01*
X160334312Y-73037925D01*
X160334310Y-73037927D01*
X160286610Y-73103579D01*
X160223240Y-73190800D01*
X160137454Y-73359163D01*
X160079059Y-73538881D01*
X160049500Y-73725513D01*
X160049500Y-73914486D01*
X160079059Y-74101118D01*
X160137454Y-74280836D01*
X160177654Y-74359732D01*
X160223240Y-74449199D01*
X160334310Y-74602073D01*
X160467927Y-74735690D01*
X160556395Y-74799966D01*
X160591765Y-74825664D01*
X160634430Y-74880995D01*
X160640409Y-74950608D01*
X160607803Y-75012403D01*
X160575175Y-75036466D01*
X160490040Y-75079845D01*
X160490033Y-75079849D01*
X160416689Y-75133135D01*
X160416689Y-75133136D01*
X160983377Y-75699824D01*
X160930268Y-75721823D01*
X160819713Y-75795693D01*
X160725693Y-75889713D01*
X160651823Y-76000268D01*
X160629824Y-76053377D01*
X160063136Y-75486689D01*
X160009734Y-75490892D01*
X159990277Y-75490892D01*
X159936862Y-75486688D01*
X159370175Y-76053376D01*
X159348177Y-76000268D01*
X159274307Y-75889713D01*
X159180287Y-75795693D01*
X159069732Y-75721823D01*
X159016621Y-75699824D01*
X159583309Y-75133137D01*
X159583309Y-75133135D01*
X159509969Y-75079851D01*
X159306604Y-74976230D01*
X159089544Y-74905704D01*
X158864116Y-74870000D01*
X158635884Y-74870000D01*
X158410455Y-74905704D01*
X158193395Y-74976230D01*
X157990035Y-75079848D01*
X157990033Y-75079849D01*
X157916689Y-75133135D01*
X157916689Y-75133136D01*
X158483377Y-75699824D01*
X158430268Y-75721823D01*
X158319713Y-75795693D01*
X158225693Y-75889713D01*
X158151823Y-76000268D01*
X158129824Y-76053377D01*
X157563136Y-75486689D01*
X157563135Y-75486689D01*
X157509849Y-75560033D01*
X157509848Y-75560035D01*
X157406230Y-75763395D01*
X157335704Y-75980455D01*
X157300000Y-76205883D01*
X157300000Y-76434116D01*
X157335704Y-76659544D01*
X157406230Y-76876604D01*
X157509851Y-77079969D01*
X157563135Y-77153309D01*
X157563137Y-77153309D01*
X158129824Y-76586622D01*
X158151823Y-76639732D01*
X158225693Y-76750287D01*
X158319713Y-76844307D01*
X158430268Y-76918177D01*
X158483376Y-76940175D01*
X157916688Y-77506862D01*
X157916689Y-77506863D01*
X157990030Y-77560148D01*
X158193395Y-77663769D01*
X158410455Y-77734295D01*
X158635884Y-77770000D01*
X158864116Y-77770000D01*
X159089544Y-77734295D01*
X159306604Y-77663769D01*
X159509966Y-77560150D01*
X159583309Y-77506862D01*
X159583310Y-77506862D01*
X159016622Y-76940175D01*
X159069732Y-76918177D01*
X159180287Y-76844307D01*
X159274307Y-76750287D01*
X159348177Y-76639732D01*
X159370175Y-76586623D01*
X159936861Y-77153309D01*
X159990276Y-77149106D01*
X160009735Y-77149106D01*
X160063137Y-77153309D01*
X160629824Y-76586622D01*
X160651823Y-76639732D01*
X160725693Y-76750287D01*
X160819713Y-76844307D01*
X160930268Y-76918177D01*
X160983376Y-76940175D01*
X160416688Y-77506862D01*
X160416689Y-77506863D01*
X160490030Y-77560148D01*
X160693395Y-77663769D01*
X160910455Y-77734295D01*
X161135884Y-77770000D01*
X161364116Y-77770000D01*
X161589544Y-77734295D01*
X161806604Y-77663769D01*
X162009966Y-77560150D01*
X162083309Y-77506862D01*
X162083310Y-77506862D01*
X161516622Y-76940175D01*
X161569732Y-76918177D01*
X161680287Y-76844307D01*
X161774307Y-76750287D01*
X161848177Y-76639732D01*
X161870175Y-76586623D01*
X162436862Y-77153310D01*
X162436862Y-77153309D01*
X162490150Y-77079966D01*
X162593769Y-76876604D01*
X162664295Y-76659544D01*
X162700000Y-76434116D01*
X162700000Y-76205883D01*
X162664295Y-75980455D01*
X162593769Y-75763395D01*
X162490148Y-75560030D01*
X162436863Y-75486689D01*
X162436862Y-75486688D01*
X161870175Y-76053376D01*
X161848177Y-76000268D01*
X161774307Y-75889713D01*
X161680287Y-75795693D01*
X161569732Y-75721823D01*
X161516621Y-75699824D01*
X162083309Y-75133137D01*
X162083309Y-75133135D01*
X162009965Y-75079848D01*
X162009964Y-75079847D01*
X161924825Y-75036466D01*
X161874029Y-74988492D01*
X161857234Y-74920671D01*
X161879772Y-74854536D01*
X161908231Y-74825666D01*
X162032073Y-74735690D01*
X162165690Y-74602073D01*
X162276760Y-74449199D01*
X162362547Y-74280832D01*
X162420940Y-74101118D01*
X162441150Y-73973518D01*
X162450500Y-73914486D01*
X162450500Y-73725513D01*
X162420940Y-73538881D01*
X162362545Y-73359163D01*
X162317290Y-73270347D01*
X162276760Y-73190801D01*
X162165690Y-73037927D01*
X162032073Y-72904310D01*
X161908234Y-72814335D01*
X161865569Y-72759004D01*
X161859590Y-72689391D01*
X161892196Y-72627596D01*
X161924826Y-72603532D01*
X162009964Y-72560152D01*
X162083309Y-72506862D01*
X162083310Y-72506862D01*
X161516622Y-71940175D01*
X161569732Y-71918177D01*
X161680287Y-71844307D01*
X161774307Y-71750287D01*
X161848177Y-71639732D01*
X161870175Y-71586623D01*
X162436862Y-72153310D01*
X162436862Y-72153309D01*
X162490150Y-72079966D01*
X162593769Y-71876604D01*
X162664295Y-71659544D01*
X162700000Y-71434116D01*
X162700000Y-71205883D01*
X189550000Y-71205883D01*
X189550000Y-71434116D01*
X189585704Y-71659544D01*
X189656230Y-71876604D01*
X189759851Y-72079969D01*
X189813135Y-72153309D01*
X189813137Y-72153309D01*
X190379824Y-71586622D01*
X190401823Y-71639732D01*
X190475693Y-71750287D01*
X190569713Y-71844307D01*
X190680268Y-71918177D01*
X190733376Y-71940175D01*
X190166688Y-72506862D01*
X190166689Y-72506863D01*
X190240030Y-72560148D01*
X190325174Y-72603532D01*
X190375970Y-72651507D01*
X190392765Y-72719328D01*
X190370228Y-72785463D01*
X190341765Y-72814334D01*
X190217933Y-72904305D01*
X190217924Y-72904312D01*
X190084312Y-73037924D01*
X190084312Y-73037925D01*
X190084310Y-73037927D01*
X190036610Y-73103579D01*
X189973240Y-73190800D01*
X189887454Y-73359163D01*
X189829059Y-73538881D01*
X189799500Y-73725513D01*
X189799500Y-73914486D01*
X189829059Y-74101118D01*
X189887454Y-74280836D01*
X189927654Y-74359732D01*
X189973240Y-74449199D01*
X190084310Y-74602073D01*
X190217927Y-74735690D01*
X190306395Y-74799966D01*
X190341765Y-74825664D01*
X190384430Y-74880995D01*
X190390409Y-74950608D01*
X190357803Y-75012403D01*
X190325175Y-75036466D01*
X190240040Y-75079845D01*
X190240033Y-75079849D01*
X190166689Y-75133135D01*
X190166689Y-75133136D01*
X190733377Y-75699824D01*
X190680268Y-75721823D01*
X190569713Y-75795693D01*
X190475693Y-75889713D01*
X190401823Y-76000268D01*
X190379824Y-76053377D01*
X189813136Y-75486689D01*
X189813135Y-75486689D01*
X189759849Y-75560033D01*
X189759848Y-75560035D01*
X189656230Y-75763395D01*
X189585704Y-75980455D01*
X189550000Y-76205883D01*
X189550000Y-76434116D01*
X189585704Y-76659544D01*
X189656230Y-76876604D01*
X189759851Y-77079969D01*
X189813135Y-77153309D01*
X189813137Y-77153309D01*
X190379824Y-76586622D01*
X190401823Y-76639732D01*
X190475693Y-76750287D01*
X190569713Y-76844307D01*
X190680268Y-76918177D01*
X190733376Y-76940175D01*
X190166688Y-77506862D01*
X190166689Y-77506863D01*
X190240030Y-77560148D01*
X190443395Y-77663769D01*
X190660455Y-77734295D01*
X190885884Y-77770000D01*
X191114116Y-77770000D01*
X191339544Y-77734295D01*
X191556604Y-77663769D01*
X191759966Y-77560150D01*
X191833309Y-77506862D01*
X191833310Y-77506862D01*
X191266622Y-76940175D01*
X191319732Y-76918177D01*
X191430287Y-76844307D01*
X191524307Y-76750287D01*
X191598177Y-76639732D01*
X191620175Y-76586623D01*
X192186861Y-77153309D01*
X192240276Y-77149106D01*
X192259735Y-77149106D01*
X192313137Y-77153309D01*
X192879824Y-76586622D01*
X192901823Y-76639732D01*
X192975693Y-76750287D01*
X193069713Y-76844307D01*
X193180268Y-76918177D01*
X193233376Y-76940175D01*
X192666688Y-77506862D01*
X192666689Y-77506863D01*
X192740030Y-77560148D01*
X192943395Y-77663769D01*
X193160455Y-77734295D01*
X193385884Y-77770000D01*
X193614116Y-77770000D01*
X193839544Y-77734295D01*
X194056604Y-77663769D01*
X194259966Y-77560150D01*
X194333309Y-77506862D01*
X194333310Y-77506862D01*
X193766622Y-76940175D01*
X193819732Y-76918177D01*
X193930287Y-76844307D01*
X194024307Y-76750287D01*
X194098177Y-76639732D01*
X194120175Y-76586622D01*
X194686862Y-77153310D01*
X194686862Y-77153309D01*
X194740150Y-77079966D01*
X194843769Y-76876604D01*
X194914295Y-76659544D01*
X194950000Y-76434116D01*
X194950000Y-76205883D01*
X194914295Y-75980455D01*
X194843769Y-75763395D01*
X194740148Y-75560030D01*
X194686863Y-75486689D01*
X194686862Y-75486688D01*
X194120175Y-76053376D01*
X194098177Y-76000268D01*
X194024307Y-75889713D01*
X193930287Y-75795693D01*
X193819732Y-75721823D01*
X193766621Y-75699824D01*
X194333309Y-75133137D01*
X194333309Y-75133135D01*
X194259969Y-75079851D01*
X194056604Y-74976230D01*
X193839544Y-74905704D01*
X193614116Y-74870000D01*
X193385884Y-74870000D01*
X193160455Y-74905704D01*
X192943395Y-74976230D01*
X192740035Y-75079848D01*
X192740033Y-75079849D01*
X192666689Y-75133135D01*
X192666689Y-75133136D01*
X193233377Y-75699824D01*
X193180268Y-75721823D01*
X193069713Y-75795693D01*
X192975693Y-75889713D01*
X192901823Y-76000268D01*
X192879824Y-76053377D01*
X192313136Y-75486689D01*
X192259734Y-75490892D01*
X192240277Y-75490892D01*
X192186862Y-75486688D01*
X191620175Y-76053376D01*
X191598177Y-76000268D01*
X191524307Y-75889713D01*
X191430287Y-75795693D01*
X191319732Y-75721823D01*
X191266621Y-75699824D01*
X191833309Y-75133137D01*
X191833309Y-75133135D01*
X191759965Y-75079848D01*
X191759964Y-75079847D01*
X191674825Y-75036466D01*
X191624029Y-74988492D01*
X191607234Y-74920671D01*
X191629772Y-74854536D01*
X191658231Y-74825666D01*
X191782073Y-74735690D01*
X191915690Y-74602073D01*
X192026760Y-74449199D01*
X192112547Y-74280832D01*
X192170940Y-74101118D01*
X192191150Y-73973518D01*
X192200500Y-73914486D01*
X192200500Y-73725513D01*
X192170940Y-73538881D01*
X192112545Y-73359163D01*
X192067290Y-73270347D01*
X192026760Y-73190801D01*
X191915690Y-73037927D01*
X191782073Y-72904310D01*
X191658234Y-72814335D01*
X191615569Y-72759004D01*
X191609590Y-72689391D01*
X191642196Y-72627596D01*
X191674826Y-72603532D01*
X191759964Y-72560152D01*
X191833309Y-72506862D01*
X191833310Y-72506862D01*
X191266622Y-71940175D01*
X191319732Y-71918177D01*
X191430287Y-71844307D01*
X191524307Y-71750287D01*
X191598177Y-71639732D01*
X191620175Y-71586623D01*
X192186861Y-72153309D01*
X192240276Y-72149106D01*
X192259735Y-72149106D01*
X192313137Y-72153309D01*
X192879824Y-71586622D01*
X192901823Y-71639732D01*
X192975693Y-71750287D01*
X193069713Y-71844307D01*
X193180268Y-71918177D01*
X193233376Y-71940175D01*
X192666688Y-72506862D01*
X192666689Y-72506863D01*
X192740030Y-72560148D01*
X192943395Y-72663769D01*
X193160455Y-72734295D01*
X193385884Y-72770000D01*
X193614116Y-72770000D01*
X193839544Y-72734295D01*
X194056604Y-72663769D01*
X194259966Y-72560150D01*
X194333309Y-72506862D01*
X194333310Y-72506862D01*
X193766622Y-71940175D01*
X193819732Y-71918177D01*
X193930287Y-71844307D01*
X194024307Y-71750287D01*
X194098177Y-71639732D01*
X194120175Y-71586622D01*
X194686862Y-72153310D01*
X194686862Y-72153309D01*
X194740150Y-72079966D01*
X194843769Y-71876604D01*
X194914295Y-71659544D01*
X194950000Y-71434116D01*
X194950000Y-71205883D01*
X194914295Y-70980455D01*
X194843769Y-70763395D01*
X194740148Y-70560030D01*
X194686863Y-70486689D01*
X194686862Y-70486688D01*
X194120175Y-71053376D01*
X194098177Y-71000268D01*
X194024307Y-70889713D01*
X193930287Y-70795693D01*
X193819732Y-70721823D01*
X193766621Y-70699824D01*
X194333309Y-70133137D01*
X194333309Y-70133135D01*
X194259969Y-70079851D01*
X194056604Y-69976230D01*
X193839544Y-69905704D01*
X193614116Y-69870000D01*
X193385884Y-69870000D01*
X193160455Y-69905704D01*
X192943395Y-69976230D01*
X192740035Y-70079848D01*
X192740033Y-70079849D01*
X192666689Y-70133135D01*
X192666689Y-70133136D01*
X193233377Y-70699824D01*
X193180268Y-70721823D01*
X193069713Y-70795693D01*
X192975693Y-70889713D01*
X192901823Y-71000268D01*
X192879824Y-71053377D01*
X192313136Y-70486689D01*
X192259734Y-70490892D01*
X192240277Y-70490892D01*
X192186862Y-70486688D01*
X191620175Y-71053376D01*
X191598177Y-71000268D01*
X191524307Y-70889713D01*
X191430287Y-70795693D01*
X191319732Y-70721823D01*
X191266621Y-70699824D01*
X191833309Y-70133137D01*
X191833309Y-70133135D01*
X191759969Y-70079851D01*
X191556604Y-69976230D01*
X191339544Y-69905704D01*
X191114116Y-69870000D01*
X190885884Y-69870000D01*
X190660455Y-69905704D01*
X190443395Y-69976230D01*
X190240035Y-70079848D01*
X190240033Y-70079849D01*
X190166689Y-70133135D01*
X190166689Y-70133136D01*
X190733377Y-70699824D01*
X190680268Y-70721823D01*
X190569713Y-70795693D01*
X190475693Y-70889713D01*
X190401823Y-71000268D01*
X190379824Y-71053377D01*
X189813136Y-70486689D01*
X189813135Y-70486689D01*
X189759849Y-70560033D01*
X189759848Y-70560035D01*
X189656230Y-70763395D01*
X189585704Y-70980455D01*
X189550000Y-71205883D01*
X162700000Y-71205883D01*
X162664295Y-70980455D01*
X162593769Y-70763395D01*
X162490148Y-70560030D01*
X162436863Y-70486689D01*
X162436862Y-70486688D01*
X161870175Y-71053376D01*
X161848177Y-71000268D01*
X161774307Y-70889713D01*
X161680287Y-70795693D01*
X161569732Y-70721823D01*
X161516621Y-70699824D01*
X162083309Y-70133137D01*
X162083309Y-70133135D01*
X162009969Y-70079851D01*
X161806604Y-69976230D01*
X161589544Y-69905704D01*
X161364116Y-69870000D01*
X161135884Y-69870000D01*
X160910455Y-69905704D01*
X160693395Y-69976230D01*
X160490035Y-70079848D01*
X160490033Y-70079849D01*
X160416689Y-70133135D01*
X160416689Y-70133136D01*
X160983377Y-70699824D01*
X160930268Y-70721823D01*
X160819713Y-70795693D01*
X160725693Y-70889713D01*
X160651823Y-71000268D01*
X160629824Y-71053377D01*
X160063136Y-70486689D01*
X160009734Y-70490892D01*
X159990277Y-70490892D01*
X159936862Y-70486688D01*
X159370175Y-71053376D01*
X159348177Y-71000268D01*
X159274307Y-70889713D01*
X159180287Y-70795693D01*
X159069732Y-70721823D01*
X159016621Y-70699824D01*
X159583309Y-70133137D01*
X159583309Y-70133135D01*
X159509969Y-70079851D01*
X159306604Y-69976230D01*
X159089544Y-69905704D01*
X158864116Y-69870000D01*
X158635884Y-69870000D01*
X158410455Y-69905704D01*
X158193395Y-69976230D01*
X157990035Y-70079848D01*
X157990033Y-70079849D01*
X157916689Y-70133135D01*
X157916689Y-70133136D01*
X158483377Y-70699824D01*
X158430268Y-70721823D01*
X158319713Y-70795693D01*
X158225693Y-70889713D01*
X158151823Y-71000268D01*
X158129824Y-71053377D01*
X157563136Y-70486689D01*
X157563135Y-70486689D01*
X157509849Y-70560033D01*
X157509848Y-70560035D01*
X157406230Y-70763395D01*
X157335704Y-70980455D01*
X157300000Y-71205883D01*
X100500500Y-71205883D01*
X100500500Y-53292141D01*
X101216999Y-53292141D01*
X101252949Y-53472869D01*
X101252951Y-53472875D01*
X101323469Y-53643122D01*
X101323474Y-53643131D01*
X101425849Y-53796345D01*
X101425852Y-53796349D01*
X101556150Y-53926647D01*
X101556154Y-53926650D01*
X101709368Y-54029025D01*
X101709374Y-54029028D01*
X101709375Y-54029029D01*
X101879625Y-54099549D01*
X101879629Y-54099549D01*
X101879630Y-54099550D01*
X102060358Y-54135500D01*
X102060361Y-54135500D01*
X102244641Y-54135500D01*
X102366232Y-54111313D01*
X102425375Y-54099549D01*
X102595625Y-54029029D01*
X102748846Y-53926650D01*
X102879150Y-53796346D01*
X102981529Y-53643125D01*
X103052049Y-53472875D01*
X103088000Y-53292139D01*
X103088000Y-53107861D01*
X103088000Y-53107858D01*
X103087777Y-53106738D01*
X106047500Y-53106738D01*
X106047500Y-53293261D01*
X106076678Y-53477484D01*
X106134319Y-53654884D01*
X106218998Y-53821077D01*
X106235355Y-53843590D01*
X106741371Y-53337574D01*
X106757255Y-53396853D01*
X106824398Y-53513147D01*
X106919353Y-53608102D01*
X107035647Y-53675245D01*
X107094924Y-53691128D01*
X106588908Y-54197143D01*
X106588908Y-54197144D01*
X106611418Y-54213499D01*
X106777615Y-54298180D01*
X106955015Y-54355821D01*
X107139239Y-54385000D01*
X107325761Y-54385000D01*
X107509984Y-54355821D01*
X107687384Y-54298180D01*
X107853575Y-54213502D01*
X107876090Y-54197143D01*
X107876091Y-54197143D01*
X107370075Y-53691127D01*
X107429353Y-53675245D01*
X107545647Y-53608102D01*
X107640602Y-53513147D01*
X107707745Y-53396853D01*
X107723627Y-53337575D01*
X108229643Y-53843591D01*
X108229643Y-53843590D01*
X108246002Y-53821075D01*
X108330680Y-53654884D01*
X108388321Y-53477484D01*
X108417500Y-53293261D01*
X108417500Y-53292141D01*
X111376999Y-53292141D01*
X111412949Y-53472869D01*
X111412951Y-53472875D01*
X111483469Y-53643122D01*
X111483474Y-53643131D01*
X111585849Y-53796345D01*
X111585852Y-53796349D01*
X111716150Y-53926647D01*
X111716154Y-53926650D01*
X111869368Y-54029025D01*
X111869374Y-54029028D01*
X111869375Y-54029029D01*
X112039625Y-54099549D01*
X112039629Y-54099549D01*
X112039630Y-54099550D01*
X112220358Y-54135500D01*
X112220361Y-54135500D01*
X112404641Y-54135500D01*
X112526232Y-54111313D01*
X112585375Y-54099549D01*
X112755625Y-54029029D01*
X112908846Y-53926650D01*
X113039150Y-53796346D01*
X113141529Y-53643125D01*
X113212049Y-53472875D01*
X113248000Y-53292141D01*
X116456999Y-53292141D01*
X116492949Y-53472869D01*
X116492951Y-53472875D01*
X116563469Y-53643122D01*
X116563474Y-53643131D01*
X116665849Y-53796345D01*
X116665852Y-53796349D01*
X116796150Y-53926647D01*
X116796154Y-53926650D01*
X116949368Y-54029025D01*
X116949374Y-54029028D01*
X116949375Y-54029029D01*
X117119625Y-54099549D01*
X117119629Y-54099549D01*
X117119630Y-54099550D01*
X117300358Y-54135500D01*
X117300361Y-54135500D01*
X117484641Y-54135500D01*
X117606232Y-54111313D01*
X117665375Y-54099549D01*
X117835625Y-54029029D01*
X117988846Y-53926650D01*
X118119150Y-53796346D01*
X118221529Y-53643125D01*
X118292049Y-53472875D01*
X118328000Y-53292139D01*
X118328000Y-53107861D01*
X118328000Y-53107858D01*
X118292050Y-52927130D01*
X118292049Y-52927129D01*
X118292049Y-52927125D01*
X118221529Y-52756875D01*
X118221528Y-52756874D01*
X118221525Y-52756868D01*
X118119150Y-52603654D01*
X118119147Y-52603650D01*
X118005818Y-52490321D01*
X121537000Y-52490321D01*
X121537000Y-53909678D01*
X121551532Y-53982735D01*
X121551533Y-53982739D01*
X121551534Y-53982740D01*
X121606899Y-54065601D01*
X121689760Y-54120966D01*
X121689764Y-54120967D01*
X121762821Y-54135499D01*
X121762824Y-54135500D01*
X121762826Y-54135500D01*
X123182176Y-54135500D01*
X123182177Y-54135499D01*
X123255240Y-54120966D01*
X123338101Y-54065601D01*
X123347935Y-54050883D01*
X124682500Y-54050883D01*
X124682500Y-54279116D01*
X124718204Y-54504544D01*
X124788730Y-54721604D01*
X124892351Y-54924969D01*
X124945635Y-54998309D01*
X124945637Y-54998309D01*
X125512324Y-54431622D01*
X125534323Y-54484732D01*
X125608193Y-54595287D01*
X125702213Y-54689307D01*
X125812768Y-54763177D01*
X125865876Y-54785175D01*
X125299188Y-55351862D01*
X125303392Y-55405277D01*
X125303392Y-55424734D01*
X125299189Y-55478136D01*
X125865877Y-56044824D01*
X125812768Y-56066823D01*
X125702213Y-56140693D01*
X125608193Y-56234713D01*
X125534323Y-56345268D01*
X125512324Y-56398377D01*
X124945636Y-55831689D01*
X124945635Y-55831689D01*
X124892349Y-55905033D01*
X124892348Y-55905035D01*
X124788730Y-56108395D01*
X124718204Y-56325455D01*
X124682500Y-56550883D01*
X124682500Y-56779116D01*
X124718204Y-57004544D01*
X124788730Y-57221604D01*
X124892351Y-57424969D01*
X124945635Y-57498309D01*
X124945637Y-57498309D01*
X125512324Y-56931622D01*
X125534323Y-56984732D01*
X125608193Y-57095287D01*
X125702213Y-57189307D01*
X125812768Y-57263177D01*
X125865876Y-57285175D01*
X125299188Y-57851862D01*
X125299189Y-57851863D01*
X125372530Y-57905148D01*
X125575895Y-58008769D01*
X125792955Y-58079295D01*
X126018384Y-58115000D01*
X126246616Y-58115000D01*
X126472044Y-58079295D01*
X126689104Y-58008769D01*
X126892466Y-57905150D01*
X126965809Y-57851862D01*
X126965810Y-57851862D01*
X126399122Y-57285175D01*
X126452232Y-57263177D01*
X126562787Y-57189307D01*
X126656807Y-57095287D01*
X126730677Y-56984732D01*
X126752675Y-56931623D01*
X127319362Y-57498310D01*
X127319362Y-57498309D01*
X127372652Y-57424964D01*
X127416032Y-57339826D01*
X127464006Y-57289029D01*
X127531827Y-57272234D01*
X127597962Y-57294771D01*
X127626835Y-57323234D01*
X127671065Y-57384111D01*
X127716810Y-57447073D01*
X127850427Y-57580690D01*
X128003301Y-57691760D01*
X128082847Y-57732290D01*
X128171663Y-57777545D01*
X128171665Y-57777545D01*
X128171668Y-57777547D01*
X128258203Y-57805664D01*
X128351381Y-57835940D01*
X128538014Y-57865500D01*
X128538019Y-57865500D01*
X128726986Y-57865500D01*
X128913618Y-57835940D01*
X128941871Y-57826760D01*
X129093332Y-57777547D01*
X129257071Y-57694117D01*
X129257074Y-57694117D01*
X129261694Y-57691763D01*
X129261696Y-57691761D01*
X129261699Y-57691760D01*
X129414573Y-57580690D01*
X129548190Y-57447073D01*
X129638165Y-57323232D01*
X129693494Y-57280569D01*
X129763107Y-57274590D01*
X129824902Y-57307196D01*
X129848966Y-57339825D01*
X129892347Y-57424964D01*
X129892348Y-57424965D01*
X129945635Y-57498309D01*
X129945637Y-57498309D01*
X130512324Y-56931622D01*
X130534323Y-56984732D01*
X130608193Y-57095287D01*
X130702213Y-57189307D01*
X130812768Y-57263177D01*
X130865876Y-57285175D01*
X130299188Y-57851862D01*
X130299189Y-57851863D01*
X130372530Y-57905148D01*
X130575895Y-58008769D01*
X130792955Y-58079295D01*
X131018384Y-58115000D01*
X131246616Y-58115000D01*
X131472044Y-58079295D01*
X131585402Y-58042464D01*
X131689104Y-58008769D01*
X131892466Y-57905150D01*
X131965809Y-57851862D01*
X131965810Y-57851862D01*
X131399122Y-57285175D01*
X131452232Y-57263177D01*
X131562787Y-57189307D01*
X131656807Y-57095287D01*
X131730677Y-56984732D01*
X131752675Y-56931623D01*
X132319362Y-57498310D01*
X132319362Y-57498309D01*
X132372650Y-57424966D01*
X132476269Y-57221604D01*
X132546795Y-57004544D01*
X132582500Y-56779116D01*
X132582500Y-56550883D01*
X132546795Y-56325455D01*
X132476269Y-56108395D01*
X132372648Y-55905030D01*
X132319363Y-55831689D01*
X132319362Y-55831688D01*
X131752675Y-56398376D01*
X131730677Y-56345268D01*
X131656807Y-56234713D01*
X131562787Y-56140693D01*
X131452232Y-56066823D01*
X131399121Y-56044824D01*
X131965809Y-55478137D01*
X131963542Y-55449333D01*
X131963542Y-55449332D01*
X131961606Y-55424734D01*
X131961606Y-55405276D01*
X131965809Y-55351861D01*
X131399122Y-54785175D01*
X131452232Y-54763177D01*
X131562787Y-54689307D01*
X131656807Y-54595287D01*
X131730677Y-54484732D01*
X131752675Y-54431623D01*
X132319362Y-54998310D01*
X132319362Y-54998309D01*
X132372650Y-54924966D01*
X132476269Y-54721604D01*
X132546795Y-54504544D01*
X132582500Y-54279116D01*
X132582500Y-54185883D01*
X157300000Y-54185883D01*
X157300000Y-54414116D01*
X157335704Y-54639544D01*
X157406230Y-54856604D01*
X157509851Y-55059969D01*
X157563135Y-55133309D01*
X157563137Y-55133309D01*
X158129824Y-54566622D01*
X158151823Y-54619732D01*
X158225693Y-54730287D01*
X158319713Y-54824307D01*
X158430268Y-54898177D01*
X158483376Y-54920175D01*
X157916688Y-55486862D01*
X157916689Y-55486863D01*
X157990030Y-55540148D01*
X158193395Y-55643769D01*
X158410455Y-55714295D01*
X158635884Y-55750000D01*
X158864116Y-55750000D01*
X159089544Y-55714295D01*
X159306604Y-55643769D01*
X159509966Y-55540150D01*
X159583309Y-55486862D01*
X159583310Y-55486862D01*
X159016622Y-54920175D01*
X159069732Y-54898177D01*
X159180287Y-54824307D01*
X159274307Y-54730287D01*
X159348177Y-54619732D01*
X159370175Y-54566623D01*
X159936861Y-55133309D01*
X159990276Y-55129106D01*
X160009735Y-55129106D01*
X160063137Y-55133309D01*
X160629824Y-54566622D01*
X160651823Y-54619732D01*
X160725693Y-54730287D01*
X160819713Y-54824307D01*
X160930268Y-54898177D01*
X160983376Y-54920175D01*
X160416688Y-55486862D01*
X160416689Y-55486863D01*
X160490030Y-55540148D01*
X160575174Y-55583532D01*
X160625970Y-55631507D01*
X160642765Y-55699328D01*
X160620228Y-55765463D01*
X160591765Y-55794334D01*
X160467933Y-55884305D01*
X160467924Y-55884312D01*
X160334312Y-56017924D01*
X160334312Y-56017925D01*
X160334310Y-56017927D01*
X160311421Y-56049431D01*
X160223240Y-56170800D01*
X160137454Y-56339163D01*
X160079059Y-56518881D01*
X160049500Y-56705513D01*
X160049500Y-56894486D01*
X160079059Y-57081118D01*
X160137454Y-57260836D01*
X160221082Y-57424964D01*
X160223240Y-57429199D01*
X160334310Y-57582073D01*
X160467927Y-57715690D01*
X160591765Y-57805664D01*
X160634430Y-57860995D01*
X160640409Y-57930608D01*
X160607803Y-57992403D01*
X160575175Y-58016466D01*
X160490040Y-58059845D01*
X160490033Y-58059849D01*
X160416689Y-58113135D01*
X160416689Y-58113136D01*
X160983377Y-58679824D01*
X160930268Y-58701823D01*
X160819713Y-58775693D01*
X160725693Y-58869713D01*
X160651823Y-58980268D01*
X160629824Y-59033377D01*
X160063136Y-58466689D01*
X160009734Y-58470892D01*
X159990277Y-58470892D01*
X159936862Y-58466688D01*
X159370175Y-59033376D01*
X159348177Y-58980268D01*
X159274307Y-58869713D01*
X159180287Y-58775693D01*
X159069732Y-58701823D01*
X159016621Y-58679824D01*
X159583309Y-58113137D01*
X159583309Y-58113135D01*
X159509969Y-58059851D01*
X159306604Y-57956230D01*
X159089544Y-57885704D01*
X158864116Y-57850000D01*
X158635884Y-57850000D01*
X158410455Y-57885704D01*
X158193395Y-57956230D01*
X157990035Y-58059848D01*
X157990033Y-58059849D01*
X157916689Y-58113135D01*
X157916689Y-58113136D01*
X158483377Y-58679824D01*
X158430268Y-58701823D01*
X158319713Y-58775693D01*
X158225693Y-58869713D01*
X158151823Y-58980268D01*
X158129824Y-59033377D01*
X157563136Y-58466689D01*
X157563135Y-58466689D01*
X157509849Y-58540033D01*
X157509848Y-58540035D01*
X157406230Y-58743395D01*
X157335704Y-58960455D01*
X157300000Y-59185883D01*
X157300000Y-59414116D01*
X157335704Y-59639544D01*
X157406230Y-59856604D01*
X157509851Y-60059969D01*
X157563135Y-60133309D01*
X157563137Y-60133309D01*
X158129824Y-59566622D01*
X158151823Y-59619732D01*
X158225693Y-59730287D01*
X158319713Y-59824307D01*
X158430268Y-59898177D01*
X158483376Y-59920175D01*
X157916688Y-60486862D01*
X157916689Y-60486863D01*
X157990030Y-60540148D01*
X158193395Y-60643769D01*
X158410455Y-60714295D01*
X158635884Y-60750000D01*
X158864116Y-60750000D01*
X159089544Y-60714295D01*
X159306604Y-60643769D01*
X159509966Y-60540150D01*
X159583309Y-60486862D01*
X159583310Y-60486862D01*
X159016622Y-59920175D01*
X159069732Y-59898177D01*
X159180287Y-59824307D01*
X159274307Y-59730287D01*
X159348177Y-59619732D01*
X159370175Y-59566623D01*
X159936861Y-60133309D01*
X159990276Y-60129106D01*
X160009735Y-60129106D01*
X160063137Y-60133309D01*
X160629824Y-59566622D01*
X160651823Y-59619732D01*
X160725693Y-59730287D01*
X160819713Y-59824307D01*
X160930268Y-59898177D01*
X160983376Y-59920175D01*
X160416688Y-60486862D01*
X160416689Y-60486863D01*
X160490030Y-60540148D01*
X160693395Y-60643769D01*
X160910455Y-60714295D01*
X161135884Y-60750000D01*
X161364116Y-60750000D01*
X161589544Y-60714295D01*
X161806604Y-60643769D01*
X162009966Y-60540150D01*
X162083309Y-60486862D01*
X162083310Y-60486862D01*
X161516622Y-59920175D01*
X161569732Y-59898177D01*
X161680287Y-59824307D01*
X161774307Y-59730287D01*
X161848177Y-59619732D01*
X161870175Y-59566623D01*
X162436862Y-60133310D01*
X162436862Y-60133309D01*
X162490150Y-60059966D01*
X162593769Y-59856604D01*
X162664295Y-59639544D01*
X162700000Y-59414116D01*
X162700000Y-59185883D01*
X162664295Y-58960455D01*
X162593769Y-58743395D01*
X162490148Y-58540030D01*
X162436863Y-58466689D01*
X162436862Y-58466688D01*
X161870175Y-59033376D01*
X161848177Y-58980268D01*
X161774307Y-58869713D01*
X161680287Y-58775693D01*
X161569732Y-58701823D01*
X161516621Y-58679824D01*
X162083309Y-58113137D01*
X162083309Y-58113135D01*
X162009965Y-58059848D01*
X162009964Y-58059847D01*
X161924825Y-58016466D01*
X161874029Y-57968492D01*
X161857234Y-57900671D01*
X161879772Y-57834536D01*
X161908231Y-57805666D01*
X162032073Y-57715690D01*
X162165690Y-57582073D01*
X162276760Y-57429199D01*
X162362547Y-57260832D01*
X162420940Y-57081118D01*
X162442322Y-56946118D01*
X162450500Y-56894486D01*
X162450500Y-56705513D01*
X162420940Y-56518881D01*
X162393846Y-56435497D01*
X162362547Y-56339168D01*
X162362545Y-56339165D01*
X162362545Y-56339163D01*
X162276759Y-56170800D01*
X162254885Y-56140693D01*
X162165690Y-56017927D01*
X162032073Y-55884310D01*
X161908234Y-55794335D01*
X161865569Y-55739004D01*
X161859590Y-55669391D01*
X161892196Y-55607596D01*
X161924826Y-55583532D01*
X162009964Y-55540152D01*
X162083309Y-55486862D01*
X162083310Y-55486862D01*
X161516622Y-54920175D01*
X161569732Y-54898177D01*
X161680287Y-54824307D01*
X161774307Y-54730287D01*
X161848177Y-54619732D01*
X161870175Y-54566623D01*
X162436862Y-55133310D01*
X162436862Y-55133309D01*
X162490150Y-55059966D01*
X162593769Y-54856604D01*
X162664295Y-54639544D01*
X162700000Y-54414116D01*
X162700000Y-54185883D01*
X189550000Y-54185883D01*
X189550000Y-54414116D01*
X189585704Y-54639544D01*
X189656230Y-54856604D01*
X189759851Y-55059969D01*
X189813135Y-55133309D01*
X189813137Y-55133309D01*
X190379824Y-54566622D01*
X190401823Y-54619732D01*
X190475693Y-54730287D01*
X190569713Y-54824307D01*
X190680268Y-54898177D01*
X190733376Y-54920175D01*
X190166688Y-55486862D01*
X190166689Y-55486863D01*
X190240030Y-55540148D01*
X190325174Y-55583532D01*
X190375970Y-55631507D01*
X190392765Y-55699328D01*
X190370228Y-55765463D01*
X190341765Y-55794334D01*
X190217933Y-55884305D01*
X190217924Y-55884312D01*
X190084312Y-56017924D01*
X190084312Y-56017925D01*
X190084310Y-56017927D01*
X190061421Y-56049431D01*
X189973240Y-56170800D01*
X189887454Y-56339163D01*
X189829059Y-56518881D01*
X189799500Y-56705513D01*
X189799500Y-56894486D01*
X189829059Y-57081118D01*
X189887454Y-57260836D01*
X189971082Y-57424964D01*
X189973240Y-57429199D01*
X190084310Y-57582073D01*
X190217927Y-57715690D01*
X190341765Y-57805664D01*
X190384430Y-57860995D01*
X190390409Y-57930608D01*
X190357803Y-57992403D01*
X190325175Y-58016466D01*
X190240040Y-58059845D01*
X190240033Y-58059849D01*
X190166689Y-58113135D01*
X190166689Y-58113136D01*
X190733377Y-58679824D01*
X190680268Y-58701823D01*
X190569713Y-58775693D01*
X190475693Y-58869713D01*
X190401823Y-58980268D01*
X190379824Y-59033377D01*
X189813136Y-58466689D01*
X189813135Y-58466689D01*
X189759849Y-58540033D01*
X189759848Y-58540035D01*
X189656230Y-58743395D01*
X189585704Y-58960455D01*
X189550000Y-59185883D01*
X189550000Y-59414116D01*
X189585704Y-59639544D01*
X189656230Y-59856604D01*
X189759851Y-60059969D01*
X189813135Y-60133309D01*
X189813137Y-60133309D01*
X190379824Y-59566622D01*
X190401823Y-59619732D01*
X190475693Y-59730287D01*
X190569713Y-59824307D01*
X190680268Y-59898177D01*
X190733376Y-59920175D01*
X190166688Y-60486862D01*
X190166689Y-60486863D01*
X190240030Y-60540148D01*
X190443395Y-60643769D01*
X190660455Y-60714295D01*
X190885884Y-60750000D01*
X191114116Y-60750000D01*
X191339544Y-60714295D01*
X191556604Y-60643769D01*
X191759966Y-60540150D01*
X191833309Y-60486862D01*
X191833310Y-60486862D01*
X191266622Y-59920175D01*
X191319732Y-59898177D01*
X191430287Y-59824307D01*
X191524307Y-59730287D01*
X191598177Y-59619732D01*
X191620175Y-59566622D01*
X192186861Y-60133309D01*
X192240276Y-60129106D01*
X192259735Y-60129106D01*
X192313137Y-60133309D01*
X192879824Y-59566622D01*
X192901823Y-59619732D01*
X192975693Y-59730287D01*
X193069713Y-59824307D01*
X193180268Y-59898177D01*
X193233376Y-59920175D01*
X192666688Y-60486862D01*
X192666689Y-60486863D01*
X192740030Y-60540148D01*
X192943395Y-60643769D01*
X193160455Y-60714295D01*
X193385884Y-60750000D01*
X193614116Y-60750000D01*
X193839544Y-60714295D01*
X194056604Y-60643769D01*
X194259966Y-60540150D01*
X194333309Y-60486862D01*
X194333310Y-60486862D01*
X193766622Y-59920175D01*
X193819732Y-59898177D01*
X193930287Y-59824307D01*
X194024307Y-59730287D01*
X194098177Y-59619732D01*
X194120175Y-59566623D01*
X194686862Y-60133310D01*
X194686862Y-60133309D01*
X194740150Y-60059966D01*
X194843769Y-59856604D01*
X194914295Y-59639544D01*
X194950000Y-59414116D01*
X194950000Y-59185883D01*
X194914295Y-58960455D01*
X194843769Y-58743395D01*
X194740148Y-58540030D01*
X194686863Y-58466689D01*
X194686862Y-58466688D01*
X194120175Y-59033376D01*
X194098177Y-58980268D01*
X194024307Y-58869713D01*
X193930287Y-58775693D01*
X193819732Y-58701823D01*
X193766621Y-58679824D01*
X194333309Y-58113137D01*
X194333309Y-58113135D01*
X194259969Y-58059851D01*
X194056604Y-57956230D01*
X193839544Y-57885704D01*
X193614116Y-57850000D01*
X193385884Y-57850000D01*
X193160455Y-57885704D01*
X192943395Y-57956230D01*
X192740035Y-58059848D01*
X192740033Y-58059849D01*
X192666689Y-58113135D01*
X192666689Y-58113136D01*
X193233377Y-58679824D01*
X193180268Y-58701823D01*
X193069713Y-58775693D01*
X192975693Y-58869713D01*
X192901823Y-58980268D01*
X192879824Y-59033377D01*
X192313136Y-58466689D01*
X192259734Y-58470892D01*
X192240277Y-58470892D01*
X192186862Y-58466688D01*
X191620175Y-59033376D01*
X191598177Y-58980268D01*
X191524307Y-58869713D01*
X191430287Y-58775693D01*
X191319732Y-58701823D01*
X191266621Y-58679824D01*
X191833309Y-58113137D01*
X191833309Y-58113135D01*
X191759965Y-58059848D01*
X191759964Y-58059847D01*
X191674825Y-58016466D01*
X191624029Y-57968492D01*
X191607234Y-57900671D01*
X191629772Y-57834536D01*
X191658231Y-57805666D01*
X191782073Y-57715690D01*
X191915690Y-57582073D01*
X192026760Y-57429199D01*
X192112547Y-57260832D01*
X192170940Y-57081118D01*
X192192322Y-56946118D01*
X192200500Y-56894486D01*
X192200500Y-56705513D01*
X192170940Y-56518881D01*
X192143846Y-56435497D01*
X192112547Y-56339168D01*
X192112545Y-56339165D01*
X192112545Y-56339163D01*
X192026759Y-56170800D01*
X192004885Y-56140693D01*
X191915690Y-56017927D01*
X191782073Y-55884310D01*
X191658234Y-55794335D01*
X191615569Y-55739004D01*
X191609590Y-55669391D01*
X191642196Y-55607596D01*
X191674826Y-55583532D01*
X191759964Y-55540152D01*
X191833309Y-55486862D01*
X191833310Y-55486862D01*
X191266622Y-54920175D01*
X191319732Y-54898177D01*
X191430287Y-54824307D01*
X191524307Y-54730287D01*
X191598177Y-54619732D01*
X191620175Y-54566622D01*
X192186861Y-55133309D01*
X192240276Y-55129106D01*
X192259735Y-55129106D01*
X192313137Y-55133309D01*
X192879824Y-54566622D01*
X192901823Y-54619732D01*
X192975693Y-54730287D01*
X193069713Y-54824307D01*
X193180268Y-54898177D01*
X193233376Y-54920175D01*
X192666688Y-55486862D01*
X192666689Y-55486863D01*
X192740030Y-55540148D01*
X192943395Y-55643769D01*
X193160455Y-55714295D01*
X193385884Y-55750000D01*
X193614116Y-55750000D01*
X193839544Y-55714295D01*
X194056604Y-55643769D01*
X194259966Y-55540150D01*
X194333309Y-55486862D01*
X194333310Y-55486862D01*
X193766622Y-54920175D01*
X193819732Y-54898177D01*
X193930287Y-54824307D01*
X194024307Y-54730287D01*
X194098177Y-54619732D01*
X194120175Y-54566623D01*
X194686862Y-55133310D01*
X194686862Y-55133309D01*
X194740150Y-55059966D01*
X194843769Y-54856604D01*
X194914295Y-54639544D01*
X194950000Y-54414116D01*
X194950000Y-54185883D01*
X194914295Y-53960455D01*
X194843769Y-53743395D01*
X194740148Y-53540030D01*
X194686863Y-53466689D01*
X194686862Y-53466688D01*
X194120175Y-54033376D01*
X194098177Y-53980268D01*
X194024307Y-53869713D01*
X193930287Y-53775693D01*
X193819732Y-53701823D01*
X193766621Y-53679824D01*
X194333309Y-53113137D01*
X194333309Y-53113135D01*
X194259969Y-53059851D01*
X194056604Y-52956230D01*
X193839544Y-52885704D01*
X193614116Y-52850000D01*
X193385884Y-52850000D01*
X193160455Y-52885704D01*
X192943395Y-52956230D01*
X192740035Y-53059848D01*
X192740033Y-53059849D01*
X192666689Y-53113135D01*
X192666689Y-53113136D01*
X193233377Y-53679824D01*
X193180268Y-53701823D01*
X193069713Y-53775693D01*
X192975693Y-53869713D01*
X192901823Y-53980268D01*
X192879824Y-54033377D01*
X192313136Y-53466689D01*
X192259734Y-53470892D01*
X192240277Y-53470892D01*
X192186862Y-53466688D01*
X191620175Y-54033376D01*
X191598177Y-53980268D01*
X191524307Y-53869713D01*
X191430287Y-53775693D01*
X191319732Y-53701823D01*
X191266621Y-53679824D01*
X191833309Y-53113137D01*
X191833309Y-53113135D01*
X191759969Y-53059851D01*
X191556604Y-52956230D01*
X191339544Y-52885704D01*
X191114116Y-52850000D01*
X190885884Y-52850000D01*
X190660455Y-52885704D01*
X190443395Y-52956230D01*
X190240035Y-53059848D01*
X190240033Y-53059849D01*
X190166689Y-53113135D01*
X190166689Y-53113136D01*
X190733377Y-53679824D01*
X190680268Y-53701823D01*
X190569713Y-53775693D01*
X190475693Y-53869713D01*
X190401823Y-53980268D01*
X190379824Y-54033377D01*
X189813136Y-53466689D01*
X189813135Y-53466689D01*
X189759849Y-53540033D01*
X189759848Y-53540035D01*
X189656230Y-53743395D01*
X189585704Y-53960455D01*
X189550000Y-54185883D01*
X162700000Y-54185883D01*
X162664295Y-53960455D01*
X162593769Y-53743395D01*
X162490148Y-53540030D01*
X162436863Y-53466689D01*
X162436862Y-53466688D01*
X161870175Y-54033376D01*
X161848177Y-53980268D01*
X161774307Y-53869713D01*
X161680287Y-53775693D01*
X161569732Y-53701823D01*
X161516621Y-53679824D01*
X162083309Y-53113137D01*
X162083309Y-53113135D01*
X162009969Y-53059851D01*
X161806604Y-52956230D01*
X161589544Y-52885704D01*
X161364116Y-52850000D01*
X161135884Y-52850000D01*
X160910455Y-52885704D01*
X160693395Y-52956230D01*
X160490035Y-53059848D01*
X160490033Y-53059849D01*
X160416689Y-53113135D01*
X160416689Y-53113136D01*
X160983377Y-53679824D01*
X160930268Y-53701823D01*
X160819713Y-53775693D01*
X160725693Y-53869713D01*
X160651823Y-53980268D01*
X160629824Y-54033377D01*
X160063136Y-53466689D01*
X160009734Y-53470892D01*
X159990277Y-53470892D01*
X159936862Y-53466688D01*
X159370175Y-54033376D01*
X159348177Y-53980268D01*
X159274307Y-53869713D01*
X159180287Y-53775693D01*
X159069732Y-53701823D01*
X159016621Y-53679824D01*
X159583309Y-53113137D01*
X159583309Y-53113135D01*
X159509969Y-53059851D01*
X159306604Y-52956230D01*
X159089544Y-52885704D01*
X158864116Y-52850000D01*
X158635884Y-52850000D01*
X158410455Y-52885704D01*
X158193395Y-52956230D01*
X157990035Y-53059848D01*
X157990033Y-53059849D01*
X157916689Y-53113135D01*
X157916689Y-53113136D01*
X158483377Y-53679824D01*
X158430268Y-53701823D01*
X158319713Y-53775693D01*
X158225693Y-53869713D01*
X158151823Y-53980268D01*
X158129824Y-54033377D01*
X157563136Y-53466689D01*
X157563135Y-53466689D01*
X157509849Y-53540033D01*
X157509848Y-53540035D01*
X157406230Y-53743395D01*
X157335704Y-53960455D01*
X157300000Y-54185883D01*
X132582500Y-54185883D01*
X132582500Y-54050883D01*
X132546795Y-53825455D01*
X132476269Y-53608395D01*
X132372648Y-53405030D01*
X132319363Y-53331689D01*
X132319362Y-53331688D01*
X131752675Y-53898376D01*
X131730677Y-53845268D01*
X131656807Y-53734713D01*
X131562787Y-53640693D01*
X131452232Y-53566823D01*
X131399122Y-53544824D01*
X131871233Y-53072714D01*
X131965809Y-52978137D01*
X131965809Y-52978135D01*
X131892469Y-52924851D01*
X131689104Y-52821230D01*
X131472044Y-52750704D01*
X131246616Y-52715000D01*
X131018384Y-52715000D01*
X130792955Y-52750704D01*
X130575895Y-52821230D01*
X130372535Y-52924848D01*
X130372533Y-52924849D01*
X130299189Y-52978135D01*
X130299189Y-52978136D01*
X130865877Y-53544824D01*
X130812768Y-53566823D01*
X130702213Y-53640693D01*
X130608193Y-53734713D01*
X130534323Y-53845268D01*
X130512324Y-53898377D01*
X129945636Y-53331689D01*
X129945635Y-53331689D01*
X129892349Y-53405033D01*
X129892348Y-53405035D01*
X129788730Y-53608395D01*
X129718204Y-53825455D01*
X129682500Y-54050883D01*
X129682500Y-54279116D01*
X129718204Y-54504544D01*
X129788730Y-54721604D01*
X129892351Y-54924969D01*
X129945635Y-54998309D01*
X129945637Y-54998309D01*
X130512324Y-54431622D01*
X130534323Y-54484732D01*
X130608193Y-54595287D01*
X130702213Y-54689307D01*
X130812768Y-54763177D01*
X130865876Y-54785175D01*
X130299188Y-55351862D01*
X130303392Y-55405277D01*
X130303392Y-55424734D01*
X130299189Y-55478136D01*
X130865877Y-56044824D01*
X130812768Y-56066823D01*
X130702213Y-56140693D01*
X130608193Y-56234713D01*
X130534323Y-56345268D01*
X130512324Y-56398377D01*
X129945636Y-55831689D01*
X129945635Y-55831689D01*
X129892349Y-55905033D01*
X129892345Y-55905040D01*
X129848966Y-55990175D01*
X129800991Y-56040970D01*
X129733170Y-56057765D01*
X129667036Y-56035227D01*
X129638164Y-56006765D01*
X129564251Y-55905033D01*
X129548190Y-55882927D01*
X129414573Y-55749310D01*
X129261699Y-55638240D01*
X129201557Y-55607596D01*
X129093336Y-55552454D01*
X128913618Y-55494059D01*
X128726986Y-55464500D01*
X128726981Y-55464500D01*
X128538019Y-55464500D01*
X128538014Y-55464500D01*
X128351381Y-55494059D01*
X128171663Y-55552454D01*
X128003300Y-55638240D01*
X127935565Y-55687453D01*
X127850427Y-55749310D01*
X127850425Y-55749312D01*
X127850424Y-55749312D01*
X127716812Y-55882924D01*
X127716805Y-55882933D01*
X127626834Y-56006765D01*
X127571504Y-56049431D01*
X127501890Y-56055409D01*
X127440096Y-56022802D01*
X127416032Y-55990174D01*
X127372648Y-55905030D01*
X127319363Y-55831689D01*
X127319362Y-55831688D01*
X126752675Y-56398376D01*
X126730677Y-56345268D01*
X126656807Y-56234713D01*
X126562787Y-56140693D01*
X126452232Y-56066823D01*
X126399121Y-56044824D01*
X126965809Y-55478137D01*
X126961606Y-55424735D01*
X126961606Y-55405276D01*
X126965809Y-55351861D01*
X126399122Y-54785175D01*
X126452232Y-54763177D01*
X126562787Y-54689307D01*
X126656807Y-54595287D01*
X126730677Y-54484732D01*
X126752675Y-54431623D01*
X127319362Y-54998310D01*
X127319362Y-54998309D01*
X127372650Y-54924966D01*
X127476269Y-54721604D01*
X127546795Y-54504544D01*
X127582500Y-54279116D01*
X127582500Y-54050883D01*
X127546795Y-53825455D01*
X127476269Y-53608395D01*
X127372648Y-53405030D01*
X127319363Y-53331689D01*
X127319362Y-53331688D01*
X126752675Y-53898376D01*
X126730677Y-53845268D01*
X126656807Y-53734713D01*
X126562787Y-53640693D01*
X126452232Y-53566823D01*
X126399121Y-53544824D01*
X126965809Y-52978137D01*
X126965809Y-52978135D01*
X126892469Y-52924851D01*
X126689104Y-52821230D01*
X126472044Y-52750704D01*
X126246616Y-52715000D01*
X126018384Y-52715000D01*
X125792955Y-52750704D01*
X125575895Y-52821230D01*
X125372535Y-52924848D01*
X125372533Y-52924849D01*
X125299189Y-52978135D01*
X125299189Y-52978136D01*
X125865877Y-53544824D01*
X125812768Y-53566823D01*
X125702213Y-53640693D01*
X125608193Y-53734713D01*
X125534323Y-53845268D01*
X125512324Y-53898377D01*
X124945636Y-53331689D01*
X124945635Y-53331689D01*
X124892349Y-53405033D01*
X124892348Y-53405035D01*
X124788730Y-53608395D01*
X124718204Y-53825455D01*
X124682500Y-54050883D01*
X123347935Y-54050883D01*
X123393466Y-53982740D01*
X123408000Y-53909674D01*
X123408000Y-52490326D01*
X123408000Y-52490323D01*
X123407999Y-52490321D01*
X123393467Y-52417264D01*
X123393466Y-52417260D01*
X123362537Y-52370971D01*
X123338101Y-52334399D01*
X123255240Y-52279034D01*
X123255239Y-52279033D01*
X123255235Y-52279032D01*
X123182177Y-52264500D01*
X123182174Y-52264500D01*
X121762826Y-52264500D01*
X121762823Y-52264500D01*
X121689764Y-52279032D01*
X121689760Y-52279033D01*
X121606899Y-52334399D01*
X121551533Y-52417260D01*
X121551532Y-52417264D01*
X121537000Y-52490321D01*
X118005818Y-52490321D01*
X117988849Y-52473352D01*
X117988845Y-52473349D01*
X117835631Y-52370974D01*
X117835622Y-52370969D01*
X117665375Y-52300451D01*
X117665369Y-52300449D01*
X117484641Y-52264500D01*
X117484639Y-52264500D01*
X117300361Y-52264500D01*
X117300359Y-52264500D01*
X117119630Y-52300449D01*
X117119624Y-52300451D01*
X116949377Y-52370969D01*
X116949368Y-52370974D01*
X116796154Y-52473349D01*
X116796150Y-52473352D01*
X116665852Y-52603650D01*
X116665849Y-52603654D01*
X116563474Y-52756868D01*
X116563469Y-52756877D01*
X116492951Y-52927124D01*
X116492949Y-52927130D01*
X116457000Y-53107858D01*
X116457000Y-53107861D01*
X116457000Y-53292139D01*
X116457000Y-53292141D01*
X116456999Y-53292141D01*
X113248000Y-53292141D01*
X113248000Y-53292139D01*
X113248000Y-53107861D01*
X113248000Y-53107858D01*
X113212050Y-52927130D01*
X113212049Y-52927129D01*
X113212049Y-52927125D01*
X113141529Y-52756875D01*
X113141528Y-52756874D01*
X113141525Y-52756868D01*
X113039150Y-52603654D01*
X113039147Y-52603650D01*
X112908849Y-52473352D01*
X112908845Y-52473349D01*
X112755631Y-52370974D01*
X112755622Y-52370969D01*
X112585375Y-52300451D01*
X112585369Y-52300449D01*
X112404641Y-52264500D01*
X112404639Y-52264500D01*
X112220361Y-52264500D01*
X112220359Y-52264500D01*
X112039630Y-52300449D01*
X112039624Y-52300451D01*
X111869377Y-52370969D01*
X111869368Y-52370974D01*
X111716154Y-52473349D01*
X111716150Y-52473352D01*
X111585852Y-52603650D01*
X111585849Y-52603654D01*
X111483474Y-52756868D01*
X111483469Y-52756877D01*
X111412951Y-52927124D01*
X111412949Y-52927130D01*
X111377000Y-53107858D01*
X111377000Y-53107861D01*
X111377000Y-53292139D01*
X111377000Y-53292141D01*
X111376999Y-53292141D01*
X108417500Y-53292141D01*
X108417500Y-53106748D01*
X108417498Y-53106729D01*
X108388321Y-52922515D01*
X108330680Y-52745115D01*
X108245999Y-52578918D01*
X108229644Y-52556408D01*
X108229643Y-52556408D01*
X107723627Y-53062423D01*
X107707745Y-53003147D01*
X107640602Y-52886853D01*
X107545647Y-52791898D01*
X107429353Y-52724755D01*
X107370074Y-52708871D01*
X107876090Y-52202855D01*
X107876090Y-52202854D01*
X107853577Y-52186498D01*
X107687384Y-52101819D01*
X107509984Y-52044178D01*
X107325761Y-52015000D01*
X107139239Y-52015000D01*
X106955015Y-52044178D01*
X106777615Y-52101819D01*
X106611427Y-52186495D01*
X106611423Y-52186498D01*
X106588908Y-52202854D01*
X106588908Y-52202856D01*
X107094925Y-52708871D01*
X107035647Y-52724755D01*
X106919353Y-52791898D01*
X106824398Y-52886853D01*
X106757255Y-53003147D01*
X106741371Y-53062424D01*
X106235356Y-52556408D01*
X106235354Y-52556408D01*
X106218998Y-52578923D01*
X106218995Y-52578927D01*
X106134319Y-52745115D01*
X106076678Y-52922515D01*
X106047500Y-53106738D01*
X103087777Y-53106738D01*
X103052050Y-52927130D01*
X103052049Y-52927129D01*
X103052049Y-52927125D01*
X102981529Y-52756875D01*
X102981528Y-52756874D01*
X102981525Y-52756868D01*
X102879150Y-52603654D01*
X102879147Y-52603650D01*
X102748849Y-52473352D01*
X102748845Y-52473349D01*
X102595631Y-52370974D01*
X102595625Y-52370971D01*
X102580425Y-52364675D01*
X102580422Y-52364673D01*
X102425379Y-52300452D01*
X102425369Y-52300449D01*
X102244641Y-52264500D01*
X102244639Y-52264500D01*
X102060361Y-52264500D01*
X102060359Y-52264500D01*
X101879630Y-52300449D01*
X101879624Y-52300451D01*
X101709377Y-52370969D01*
X101709368Y-52370974D01*
X101556154Y-52473349D01*
X101556150Y-52473352D01*
X101425852Y-52603650D01*
X101425849Y-52603654D01*
X101323474Y-52756868D01*
X101323469Y-52756877D01*
X101252951Y-52927124D01*
X101252949Y-52927130D01*
X101217000Y-53107858D01*
X101217000Y-53107861D01*
X101217000Y-53292139D01*
X101217000Y-53292141D01*
X101216999Y-53292141D01*
X100500500Y-53292141D01*
X100500500Y-50624500D01*
X100520185Y-50557461D01*
X100572989Y-50511706D01*
X100624500Y-50500500D01*
X199375500Y-50500500D01*
X199442539Y-50520185D01*
G37*
%TD.AperFunction*%
%TD*%
M02*
