%TF.GenerationSoftware,KiCad,Pcbnew,9.0.4*%
%TF.CreationDate,2026-05-05T23:42:29-03:00*%
%TF.ProjectId,eval_trilha_v2,6576616c-5f74-4726-996c-68615f76322e,rev?*%
%TF.SameCoordinates,Original*%
%TF.FileFunction,Legend,Top*%
%TF.FilePolarity,Positive*%
%FSLAX46Y46*%
G04 Gerber Fmt 4.6, Leading zero omitted, Abs format (unit mm)*
G04 Created by KiCad (PCBNEW 9.0.4) date 2026-05-05 23:42:29*
%MOMM*%
%LPD*%
G01*
G04 APERTURE LIST*
%ADD10C,0.150000*%
%ADD11C,0.120000*%
%ADD12C,0.127000*%
%ADD13C,0.200000*%
G04 APERTURE END LIST*
D10*
X127187976Y-91674819D02*
X127187976Y-92389104D01*
X127187976Y-92389104D02*
X127140357Y-92531961D01*
X127140357Y-92531961D02*
X127045119Y-92627200D01*
X127045119Y-92627200D02*
X126902262Y-92674819D01*
X126902262Y-92674819D02*
X126807024Y-92674819D01*
X128187976Y-92674819D02*
X127616548Y-92674819D01*
X127902262Y-92674819D02*
X127902262Y-91674819D01*
X127902262Y-91674819D02*
X127807024Y-91817676D01*
X127807024Y-91817676D02*
X127711786Y-91912914D01*
X127711786Y-91912914D02*
X127616548Y-91960533D01*
X128521310Y-91674819D02*
X129140357Y-91674819D01*
X129140357Y-91674819D02*
X128807024Y-92055771D01*
X128807024Y-92055771D02*
X128949881Y-92055771D01*
X128949881Y-92055771D02*
X129045119Y-92103390D01*
X129045119Y-92103390D02*
X129092738Y-92151009D01*
X129092738Y-92151009D02*
X129140357Y-92246247D01*
X129140357Y-92246247D02*
X129140357Y-92484342D01*
X129140357Y-92484342D02*
X129092738Y-92579580D01*
X129092738Y-92579580D02*
X129045119Y-92627200D01*
X129045119Y-92627200D02*
X128949881Y-92674819D01*
X128949881Y-92674819D02*
X128664167Y-92674819D01*
X128664167Y-92674819D02*
X128568929Y-92627200D01*
X128568929Y-92627200D02*
X128521310Y-92579580D01*
X120699580Y-68286666D02*
X120747200Y-68334285D01*
X120747200Y-68334285D02*
X120794819Y-68477142D01*
X120794819Y-68477142D02*
X120794819Y-68572380D01*
X120794819Y-68572380D02*
X120747200Y-68715237D01*
X120747200Y-68715237D02*
X120651961Y-68810475D01*
X120651961Y-68810475D02*
X120556723Y-68858094D01*
X120556723Y-68858094D02*
X120366247Y-68905713D01*
X120366247Y-68905713D02*
X120223390Y-68905713D01*
X120223390Y-68905713D02*
X120032914Y-68858094D01*
X120032914Y-68858094D02*
X119937676Y-68810475D01*
X119937676Y-68810475D02*
X119842438Y-68715237D01*
X119842438Y-68715237D02*
X119794819Y-68572380D01*
X119794819Y-68572380D02*
X119794819Y-68477142D01*
X119794819Y-68477142D02*
X119842438Y-68334285D01*
X119842438Y-68334285D02*
X119890057Y-68286666D01*
X119890057Y-67905713D02*
X119842438Y-67858094D01*
X119842438Y-67858094D02*
X119794819Y-67762856D01*
X119794819Y-67762856D02*
X119794819Y-67524761D01*
X119794819Y-67524761D02*
X119842438Y-67429523D01*
X119842438Y-67429523D02*
X119890057Y-67381904D01*
X119890057Y-67381904D02*
X119985295Y-67334285D01*
X119985295Y-67334285D02*
X120080533Y-67334285D01*
X120080533Y-67334285D02*
X120223390Y-67381904D01*
X120223390Y-67381904D02*
X120794819Y-67953332D01*
X120794819Y-67953332D02*
X120794819Y-67334285D01*
X186134819Y-91808333D02*
X186849104Y-91808333D01*
X186849104Y-91808333D02*
X186991961Y-91855952D01*
X186991961Y-91855952D02*
X187087200Y-91951190D01*
X187087200Y-91951190D02*
X187134819Y-92094047D01*
X187134819Y-92094047D02*
X187134819Y-92189285D01*
X186134819Y-91427380D02*
X186134819Y-90808333D01*
X186134819Y-90808333D02*
X186515771Y-91141666D01*
X186515771Y-91141666D02*
X186515771Y-90998809D01*
X186515771Y-90998809D02*
X186563390Y-90903571D01*
X186563390Y-90903571D02*
X186611009Y-90855952D01*
X186611009Y-90855952D02*
X186706247Y-90808333D01*
X186706247Y-90808333D02*
X186944342Y-90808333D01*
X186944342Y-90808333D02*
X187039580Y-90855952D01*
X187039580Y-90855952D02*
X187087200Y-90903571D01*
X187087200Y-90903571D02*
X187134819Y-90998809D01*
X187134819Y-90998809D02*
X187134819Y-91284523D01*
X187134819Y-91284523D02*
X187087200Y-91379761D01*
X187087200Y-91379761D02*
X187039580Y-91427380D01*
X115024819Y-107558333D02*
X115739104Y-107558333D01*
X115739104Y-107558333D02*
X115881961Y-107605952D01*
X115881961Y-107605952D02*
X115977200Y-107701190D01*
X115977200Y-107701190D02*
X116024819Y-107844047D01*
X116024819Y-107844047D02*
X116024819Y-107939285D01*
X115024819Y-106891666D02*
X115024819Y-106796428D01*
X115024819Y-106796428D02*
X115072438Y-106701190D01*
X115072438Y-106701190D02*
X115120057Y-106653571D01*
X115120057Y-106653571D02*
X115215295Y-106605952D01*
X115215295Y-106605952D02*
X115405771Y-106558333D01*
X115405771Y-106558333D02*
X115643866Y-106558333D01*
X115643866Y-106558333D02*
X115834342Y-106605952D01*
X115834342Y-106605952D02*
X115929580Y-106653571D01*
X115929580Y-106653571D02*
X115977200Y-106701190D01*
X115977200Y-106701190D02*
X116024819Y-106796428D01*
X116024819Y-106796428D02*
X116024819Y-106891666D01*
X116024819Y-106891666D02*
X115977200Y-106986904D01*
X115977200Y-106986904D02*
X115929580Y-107034523D01*
X115929580Y-107034523D02*
X115834342Y-107082142D01*
X115834342Y-107082142D02*
X115643866Y-107129761D01*
X115643866Y-107129761D02*
X115405771Y-107129761D01*
X115405771Y-107129761D02*
X115215295Y-107082142D01*
X115215295Y-107082142D02*
X115120057Y-107034523D01*
X115120057Y-107034523D02*
X115072438Y-106986904D01*
X115072438Y-106986904D02*
X115024819Y-106891666D01*
X128019580Y-68286666D02*
X128067200Y-68334285D01*
X128067200Y-68334285D02*
X128114819Y-68477142D01*
X128114819Y-68477142D02*
X128114819Y-68572380D01*
X128114819Y-68572380D02*
X128067200Y-68715237D01*
X128067200Y-68715237D02*
X127971961Y-68810475D01*
X127971961Y-68810475D02*
X127876723Y-68858094D01*
X127876723Y-68858094D02*
X127686247Y-68905713D01*
X127686247Y-68905713D02*
X127543390Y-68905713D01*
X127543390Y-68905713D02*
X127352914Y-68858094D01*
X127352914Y-68858094D02*
X127257676Y-68810475D01*
X127257676Y-68810475D02*
X127162438Y-68715237D01*
X127162438Y-68715237D02*
X127114819Y-68572380D01*
X127114819Y-68572380D02*
X127114819Y-68477142D01*
X127114819Y-68477142D02*
X127162438Y-68334285D01*
X127162438Y-68334285D02*
X127210057Y-68286666D01*
X128114819Y-67334285D02*
X128114819Y-67905713D01*
X128114819Y-67619999D02*
X127114819Y-67619999D01*
X127114819Y-67619999D02*
X127257676Y-67715237D01*
X127257676Y-67715237D02*
X127352914Y-67810475D01*
X127352914Y-67810475D02*
X127400533Y-67905713D01*
X186134819Y-125848333D02*
X186849104Y-125848333D01*
X186849104Y-125848333D02*
X186991961Y-125895952D01*
X186991961Y-125895952D02*
X187087200Y-125991190D01*
X187087200Y-125991190D02*
X187134819Y-126134047D01*
X187134819Y-126134047D02*
X187134819Y-126229285D01*
X186134819Y-124895952D02*
X186134819Y-125372142D01*
X186134819Y-125372142D02*
X186611009Y-125419761D01*
X186611009Y-125419761D02*
X186563390Y-125372142D01*
X186563390Y-125372142D02*
X186515771Y-125276904D01*
X186515771Y-125276904D02*
X186515771Y-125038809D01*
X186515771Y-125038809D02*
X186563390Y-124943571D01*
X186563390Y-124943571D02*
X186611009Y-124895952D01*
X186611009Y-124895952D02*
X186706247Y-124848333D01*
X186706247Y-124848333D02*
X186944342Y-124848333D01*
X186944342Y-124848333D02*
X187039580Y-124895952D01*
X187039580Y-124895952D02*
X187087200Y-124943571D01*
X187087200Y-124943571D02*
X187134819Y-125038809D01*
X187134819Y-125038809D02*
X187134819Y-125276904D01*
X187134819Y-125276904D02*
X187087200Y-125372142D01*
X187087200Y-125372142D02*
X187039580Y-125419761D01*
X231955476Y-193339819D02*
X231955476Y-194054104D01*
X231955476Y-194054104D02*
X231907857Y-194196961D01*
X231907857Y-194196961D02*
X231812619Y-194292200D01*
X231812619Y-194292200D02*
X231669762Y-194339819D01*
X231669762Y-194339819D02*
X231574524Y-194339819D01*
X232955476Y-194339819D02*
X232384048Y-194339819D01*
X232669762Y-194339819D02*
X232669762Y-193339819D01*
X232669762Y-193339819D02*
X232574524Y-193482676D01*
X232574524Y-193482676D02*
X232479286Y-193577914D01*
X232479286Y-193577914D02*
X232384048Y-193625533D01*
X233907857Y-194339819D02*
X233336429Y-194339819D01*
X233622143Y-194339819D02*
X233622143Y-193339819D01*
X233622143Y-193339819D02*
X233526905Y-193482676D01*
X233526905Y-193482676D02*
X233431667Y-193577914D01*
X233431667Y-193577914D02*
X233336429Y-193625533D01*
X112407319Y-76714523D02*
X113121604Y-76714523D01*
X113121604Y-76714523D02*
X113264461Y-76762142D01*
X113264461Y-76762142D02*
X113359700Y-76857380D01*
X113359700Y-76857380D02*
X113407319Y-77000237D01*
X113407319Y-77000237D02*
X113407319Y-77095475D01*
X113407319Y-75714523D02*
X113407319Y-76285951D01*
X113407319Y-76000237D02*
X112407319Y-76000237D01*
X112407319Y-76000237D02*
X112550176Y-76095475D01*
X112550176Y-76095475D02*
X112645414Y-76190713D01*
X112645414Y-76190713D02*
X112693033Y-76285951D01*
X112407319Y-74809761D02*
X112407319Y-75285951D01*
X112407319Y-75285951D02*
X112883509Y-75333570D01*
X112883509Y-75333570D02*
X112835890Y-75285951D01*
X112835890Y-75285951D02*
X112788271Y-75190713D01*
X112788271Y-75190713D02*
X112788271Y-74952618D01*
X112788271Y-74952618D02*
X112835890Y-74857380D01*
X112835890Y-74857380D02*
X112883509Y-74809761D01*
X112883509Y-74809761D02*
X112978747Y-74762142D01*
X112978747Y-74762142D02*
X113216842Y-74762142D01*
X113216842Y-74762142D02*
X113312080Y-74809761D01*
X113312080Y-74809761D02*
X113359700Y-74857380D01*
X113359700Y-74857380D02*
X113407319Y-74952618D01*
X113407319Y-74952618D02*
X113407319Y-75190713D01*
X113407319Y-75190713D02*
X113359700Y-75285951D01*
X113359700Y-75285951D02*
X113312080Y-75333570D01*
X186134819Y-74788333D02*
X186849104Y-74788333D01*
X186849104Y-74788333D02*
X186991961Y-74835952D01*
X186991961Y-74835952D02*
X187087200Y-74931190D01*
X187087200Y-74931190D02*
X187134819Y-75074047D01*
X187134819Y-75074047D02*
X187134819Y-75169285D01*
X186134819Y-74407380D02*
X186134819Y-73740714D01*
X186134819Y-73740714D02*
X187134819Y-74169285D01*
X233341666Y-278739819D02*
X233341666Y-279454104D01*
X233341666Y-279454104D02*
X233294047Y-279596961D01*
X233294047Y-279596961D02*
X233198809Y-279692200D01*
X233198809Y-279692200D02*
X233055952Y-279739819D01*
X233055952Y-279739819D02*
X232960714Y-279739819D01*
X233865476Y-279739819D02*
X234055952Y-279739819D01*
X234055952Y-279739819D02*
X234151190Y-279692200D01*
X234151190Y-279692200D02*
X234198809Y-279644580D01*
X234198809Y-279644580D02*
X234294047Y-279501723D01*
X234294047Y-279501723D02*
X234341666Y-279311247D01*
X234341666Y-279311247D02*
X234341666Y-278930295D01*
X234341666Y-278930295D02*
X234294047Y-278835057D01*
X234294047Y-278835057D02*
X234246428Y-278787438D01*
X234246428Y-278787438D02*
X234151190Y-278739819D01*
X234151190Y-278739819D02*
X233960714Y-278739819D01*
X233960714Y-278739819D02*
X233865476Y-278787438D01*
X233865476Y-278787438D02*
X233817857Y-278835057D01*
X233817857Y-278835057D02*
X233770238Y-278930295D01*
X233770238Y-278930295D02*
X233770238Y-279168390D01*
X233770238Y-279168390D02*
X233817857Y-279263628D01*
X233817857Y-279263628D02*
X233865476Y-279311247D01*
X233865476Y-279311247D02*
X233960714Y-279358866D01*
X233960714Y-279358866D02*
X234151190Y-279358866D01*
X234151190Y-279358866D02*
X234246428Y-279311247D01*
X234246428Y-279311247D02*
X234294047Y-279263628D01*
X234294047Y-279263628D02*
X234341666Y-279168390D01*
X128457976Y-60439819D02*
X128457976Y-61154104D01*
X128457976Y-61154104D02*
X128410357Y-61296961D01*
X128410357Y-61296961D02*
X128315119Y-61392200D01*
X128315119Y-61392200D02*
X128172262Y-61439819D01*
X128172262Y-61439819D02*
X128077024Y-61439819D01*
X129457976Y-61439819D02*
X128886548Y-61439819D01*
X129172262Y-61439819D02*
X129172262Y-60439819D01*
X129172262Y-60439819D02*
X129077024Y-60582676D01*
X129077024Y-60582676D02*
X128981786Y-60677914D01*
X128981786Y-60677914D02*
X128886548Y-60725533D01*
X130315119Y-60773152D02*
X130315119Y-61439819D01*
X130077024Y-60392200D02*
X129838929Y-61106485D01*
X129838929Y-61106485D02*
X130457976Y-61106485D01*
X186134819Y-108828333D02*
X186849104Y-108828333D01*
X186849104Y-108828333D02*
X186991961Y-108875952D01*
X186991961Y-108875952D02*
X187087200Y-108971190D01*
X187087200Y-108971190D02*
X187134819Y-109114047D01*
X187134819Y-109114047D02*
X187134819Y-109209285D01*
X187134819Y-107828333D02*
X187134819Y-108399761D01*
X187134819Y-108114047D02*
X186134819Y-108114047D01*
X186134819Y-108114047D02*
X186277676Y-108209285D01*
X186277676Y-108209285D02*
X186372914Y-108304523D01*
X186372914Y-108304523D02*
X186420533Y-108399761D01*
X115699580Y-68286666D02*
X115747200Y-68334285D01*
X115747200Y-68334285D02*
X115794819Y-68477142D01*
X115794819Y-68477142D02*
X115794819Y-68572380D01*
X115794819Y-68572380D02*
X115747200Y-68715237D01*
X115747200Y-68715237D02*
X115651961Y-68810475D01*
X115651961Y-68810475D02*
X115556723Y-68858094D01*
X115556723Y-68858094D02*
X115366247Y-68905713D01*
X115366247Y-68905713D02*
X115223390Y-68905713D01*
X115223390Y-68905713D02*
X115032914Y-68858094D01*
X115032914Y-68858094D02*
X114937676Y-68810475D01*
X114937676Y-68810475D02*
X114842438Y-68715237D01*
X114842438Y-68715237D02*
X114794819Y-68572380D01*
X114794819Y-68572380D02*
X114794819Y-68477142D01*
X114794819Y-68477142D02*
X114842438Y-68334285D01*
X114842438Y-68334285D02*
X114890057Y-68286666D01*
X114794819Y-67953332D02*
X114794819Y-67334285D01*
X114794819Y-67334285D02*
X115175771Y-67667618D01*
X115175771Y-67667618D02*
X115175771Y-67524761D01*
X115175771Y-67524761D02*
X115223390Y-67429523D01*
X115223390Y-67429523D02*
X115271009Y-67381904D01*
X115271009Y-67381904D02*
X115366247Y-67334285D01*
X115366247Y-67334285D02*
X115604342Y-67334285D01*
X115604342Y-67334285D02*
X115699580Y-67381904D01*
X115699580Y-67381904D02*
X115747200Y-67429523D01*
X115747200Y-67429523D02*
X115794819Y-67524761D01*
X115794819Y-67524761D02*
X115794819Y-67810475D01*
X115794819Y-67810475D02*
X115747200Y-67905713D01*
X115747200Y-67905713D02*
X115699580Y-67953332D01*
X165024819Y-90538333D02*
X165739104Y-90538333D01*
X165739104Y-90538333D02*
X165881961Y-90585952D01*
X165881961Y-90585952D02*
X165977200Y-90681190D01*
X165977200Y-90681190D02*
X166024819Y-90824047D01*
X166024819Y-90824047D02*
X166024819Y-90919285D01*
X165120057Y-90109761D02*
X165072438Y-90062142D01*
X165072438Y-90062142D02*
X165024819Y-89966904D01*
X165024819Y-89966904D02*
X165024819Y-89728809D01*
X165024819Y-89728809D02*
X165072438Y-89633571D01*
X165072438Y-89633571D02*
X165120057Y-89585952D01*
X165120057Y-89585952D02*
X165215295Y-89538333D01*
X165215295Y-89538333D02*
X165310533Y-89538333D01*
X165310533Y-89538333D02*
X165453390Y-89585952D01*
X165453390Y-89585952D02*
X166024819Y-90157380D01*
X166024819Y-90157380D02*
X166024819Y-89538333D01*
X165024819Y-73518333D02*
X165739104Y-73518333D01*
X165739104Y-73518333D02*
X165881961Y-73565952D01*
X165881961Y-73565952D02*
X165977200Y-73661190D01*
X165977200Y-73661190D02*
X166024819Y-73804047D01*
X166024819Y-73804047D02*
X166024819Y-73899285D01*
X165024819Y-72613571D02*
X165024819Y-72804047D01*
X165024819Y-72804047D02*
X165072438Y-72899285D01*
X165072438Y-72899285D02*
X165120057Y-72946904D01*
X165120057Y-72946904D02*
X165262914Y-73042142D01*
X165262914Y-73042142D02*
X165453390Y-73089761D01*
X165453390Y-73089761D02*
X165834342Y-73089761D01*
X165834342Y-73089761D02*
X165929580Y-73042142D01*
X165929580Y-73042142D02*
X165977200Y-72994523D01*
X165977200Y-72994523D02*
X166024819Y-72899285D01*
X166024819Y-72899285D02*
X166024819Y-72708809D01*
X166024819Y-72708809D02*
X165977200Y-72613571D01*
X165977200Y-72613571D02*
X165929580Y-72565952D01*
X165929580Y-72565952D02*
X165834342Y-72518333D01*
X165834342Y-72518333D02*
X165596247Y-72518333D01*
X165596247Y-72518333D02*
X165501009Y-72565952D01*
X165501009Y-72565952D02*
X165453390Y-72613571D01*
X165453390Y-72613571D02*
X165405771Y-72708809D01*
X165405771Y-72708809D02*
X165405771Y-72899285D01*
X165405771Y-72899285D02*
X165453390Y-72994523D01*
X165453390Y-72994523D02*
X165501009Y-73042142D01*
X165501009Y-73042142D02*
X165596247Y-73089761D01*
X115024819Y-124578333D02*
X115739104Y-124578333D01*
X115739104Y-124578333D02*
X115881961Y-124625952D01*
X115881961Y-124625952D02*
X115977200Y-124721190D01*
X115977200Y-124721190D02*
X116024819Y-124864047D01*
X116024819Y-124864047D02*
X116024819Y-124959285D01*
X115358152Y-123673571D02*
X116024819Y-123673571D01*
X114977200Y-123911666D02*
X115691485Y-124149761D01*
X115691485Y-124149761D02*
X115691485Y-123530714D01*
X120757976Y-55809819D02*
X120757976Y-56524104D01*
X120757976Y-56524104D02*
X120710357Y-56666961D01*
X120710357Y-56666961D02*
X120615119Y-56762200D01*
X120615119Y-56762200D02*
X120472262Y-56809819D01*
X120472262Y-56809819D02*
X120377024Y-56809819D01*
X121757976Y-56809819D02*
X121186548Y-56809819D01*
X121472262Y-56809819D02*
X121472262Y-55809819D01*
X121472262Y-55809819D02*
X121377024Y-55952676D01*
X121377024Y-55952676D02*
X121281786Y-56047914D01*
X121281786Y-56047914D02*
X121186548Y-56095533D01*
X122138929Y-55905057D02*
X122186548Y-55857438D01*
X122186548Y-55857438D02*
X122281786Y-55809819D01*
X122281786Y-55809819D02*
X122519881Y-55809819D01*
X122519881Y-55809819D02*
X122615119Y-55857438D01*
X122615119Y-55857438D02*
X122662738Y-55905057D01*
X122662738Y-55905057D02*
X122710357Y-56000295D01*
X122710357Y-56000295D02*
X122710357Y-56095533D01*
X122710357Y-56095533D02*
X122662738Y-56238390D01*
X122662738Y-56238390D02*
X122091310Y-56809819D01*
X122091310Y-56809819D02*
X122710357Y-56809819D01*
D11*
X128315285Y-78280617D02*
X128315285Y-78669188D01*
X128315285Y-78669188D02*
X128338142Y-78714902D01*
X128338142Y-78714902D02*
X128361000Y-78737760D01*
X128361000Y-78737760D02*
X128406714Y-78760617D01*
X128406714Y-78760617D02*
X128498142Y-78760617D01*
X128498142Y-78760617D02*
X128543857Y-78737760D01*
X128543857Y-78737760D02*
X128566714Y-78714902D01*
X128566714Y-78714902D02*
X128589571Y-78669188D01*
X128589571Y-78669188D02*
X128589571Y-78280617D01*
X129069571Y-78760617D02*
X128795285Y-78760617D01*
X128932428Y-78760617D02*
X128932428Y-78280617D01*
X128932428Y-78280617D02*
X128886714Y-78349188D01*
X128886714Y-78349188D02*
X128840999Y-78394902D01*
X128840999Y-78394902D02*
X128795285Y-78417760D01*
D10*
X143642319Y-77984523D02*
X144356604Y-77984523D01*
X144356604Y-77984523D02*
X144499461Y-78032142D01*
X144499461Y-78032142D02*
X144594700Y-78127380D01*
X144594700Y-78127380D02*
X144642319Y-78270237D01*
X144642319Y-78270237D02*
X144642319Y-78365475D01*
X144642319Y-76984523D02*
X144642319Y-77555951D01*
X144642319Y-77270237D02*
X143642319Y-77270237D01*
X143642319Y-77270237D02*
X143785176Y-77365475D01*
X143785176Y-77365475D02*
X143880414Y-77460713D01*
X143880414Y-77460713D02*
X143928033Y-77555951D01*
X143642319Y-76127380D02*
X143642319Y-76317856D01*
X143642319Y-76317856D02*
X143689938Y-76413094D01*
X143689938Y-76413094D02*
X143737557Y-76460713D01*
X143737557Y-76460713D02*
X143880414Y-76555951D01*
X143880414Y-76555951D02*
X144070890Y-76603570D01*
X144070890Y-76603570D02*
X144451842Y-76603570D01*
X144451842Y-76603570D02*
X144547080Y-76555951D01*
X144547080Y-76555951D02*
X144594700Y-76508332D01*
X144594700Y-76508332D02*
X144642319Y-76413094D01*
X144642319Y-76413094D02*
X144642319Y-76222618D01*
X144642319Y-76222618D02*
X144594700Y-76127380D01*
X144594700Y-76127380D02*
X144547080Y-76079761D01*
X144547080Y-76079761D02*
X144451842Y-76032142D01*
X144451842Y-76032142D02*
X144213747Y-76032142D01*
X144213747Y-76032142D02*
X144118509Y-76079761D01*
X144118509Y-76079761D02*
X144070890Y-76127380D01*
X144070890Y-76127380D02*
X144023271Y-76222618D01*
X144023271Y-76222618D02*
X144023271Y-76413094D01*
X144023271Y-76413094D02*
X144070890Y-76508332D01*
X144070890Y-76508332D02*
X144118509Y-76555951D01*
X144118509Y-76555951D02*
X144213747Y-76603570D01*
D12*
%TO.C,J13*%
X125457500Y-97765000D02*
X125457500Y-95565000D01*
X127532500Y-93490000D02*
X129732500Y-93490000D01*
X127532500Y-99840000D02*
X129732500Y-99840000D01*
X131807500Y-97765000D02*
X131807500Y-95565000D01*
D11*
%TO.C,C2*%
X121140000Y-68227836D02*
X121140000Y-68012164D01*
X121860000Y-68227836D02*
X121860000Y-68012164D01*
D12*
%TO.C,J3*%
X187950000Y-91940000D02*
X187950000Y-89740000D01*
X192225000Y-87665000D02*
X190025000Y-87665000D01*
X192225000Y-94015000D02*
X190025000Y-94015000D01*
X194300000Y-91940000D02*
X194300000Y-89740000D01*
%TO.C,J0*%
X107950000Y-106760000D02*
X107950000Y-108960000D01*
X110025000Y-104685000D02*
X112225000Y-104685000D01*
X110025000Y-111035000D02*
X112225000Y-111035000D01*
X114300000Y-106760000D02*
X114300000Y-108960000D01*
D11*
%TO.C,C1*%
X126140000Y-68012164D02*
X126140000Y-68227836D01*
X126860000Y-68012164D02*
X126860000Y-68227836D01*
D12*
%TO.C,J5*%
X187950000Y-125980000D02*
X187950000Y-123780000D01*
X192225000Y-121705000D02*
X190025000Y-121705000D01*
X192225000Y-128055000D02*
X190025000Y-128055000D01*
X194300000Y-125980000D02*
X194300000Y-123780000D01*
%TO.C,J11*%
X187950000Y-57900000D02*
X187950000Y-55700000D01*
X192225000Y-53625000D02*
X190025000Y-53625000D01*
X192225000Y-59975000D02*
X190025000Y-59975000D01*
X194300000Y-57900000D02*
X194300000Y-55700000D01*
%TO.C,J15*%
X105332500Y-75440000D02*
X105332500Y-77640000D01*
X107407500Y-73365000D02*
X109607500Y-73365000D01*
X107407500Y-79715000D02*
X109607500Y-79715000D01*
X111682500Y-75440000D02*
X111682500Y-77640000D01*
%TO.C,J7*%
X187950000Y-74920000D02*
X187950000Y-72720000D01*
X192225000Y-70645000D02*
X190025000Y-70645000D01*
X192225000Y-76995000D02*
X190025000Y-76995000D01*
X194300000Y-74920000D02*
X194300000Y-72720000D01*
%TO.C,J8*%
X107950000Y-140800000D02*
X107950000Y-143000000D01*
X110025000Y-138725000D02*
X112225000Y-138725000D01*
X110025000Y-145075000D02*
X112225000Y-145075000D01*
X114300000Y-140800000D02*
X114300000Y-143000000D01*
%TO.C,J9*%
X187950000Y-143000000D02*
X187950000Y-140800000D01*
X192225000Y-138725000D02*
X190025000Y-138725000D01*
X192225000Y-145075000D02*
X190025000Y-145075000D01*
X194300000Y-143000000D02*
X194300000Y-140800000D01*
%TO.C,J14*%
X125457500Y-55440000D02*
X125457500Y-57640000D01*
X129732500Y-53365000D02*
X127532500Y-53365000D01*
X129732500Y-59715000D02*
X127532500Y-59715000D01*
X131807500Y-55440000D02*
X131807500Y-57640000D01*
%TO.C,J10*%
X157950000Y-55700000D02*
X157950000Y-57900000D01*
X160025000Y-53625000D02*
X162225000Y-53625000D01*
X160025000Y-59975000D02*
X162225000Y-59975000D01*
X164300000Y-55700000D02*
X164300000Y-57900000D01*
%TO.C,J1*%
X187950000Y-108960000D02*
X187950000Y-106760000D01*
X192225000Y-104685000D02*
X190025000Y-104685000D01*
X192225000Y-111035000D02*
X190025000Y-111035000D01*
X194300000Y-108960000D02*
X194300000Y-106760000D01*
D11*
%TO.C,C3*%
X116140000Y-68227836D02*
X116140000Y-68012164D01*
X116860000Y-68227836D02*
X116860000Y-68012164D01*
D12*
%TO.C,J2*%
X157950000Y-89740000D02*
X157950000Y-91940000D01*
X160025000Y-87665000D02*
X162225000Y-87665000D01*
X160025000Y-94015000D02*
X162225000Y-94015000D01*
X164300000Y-89740000D02*
X164300000Y-91940000D01*
%TO.C,J6*%
X157950000Y-72720000D02*
X157950000Y-74920000D01*
X160025000Y-70645000D02*
X162225000Y-70645000D01*
X160025000Y-76995000D02*
X162225000Y-76995000D01*
X164300000Y-72720000D02*
X164300000Y-74920000D01*
%TO.C,J4*%
X107950000Y-123780000D02*
X107950000Y-125980000D01*
X110025000Y-121705000D02*
X112225000Y-121705000D01*
X110025000Y-128055000D02*
X112225000Y-128055000D01*
X114300000Y-123780000D02*
X114300000Y-125980000D01*
D13*
%TO.C,J12*%
X100882500Y-51930000D02*
X123742500Y-51930000D01*
X100882500Y-54470000D02*
X100882500Y-51930000D01*
X100882500Y-54470000D02*
X123742500Y-54470000D01*
X123742500Y-51930000D02*
X123742500Y-54470000D01*
X124492500Y-53200000D02*
G75*
G02*
X124292500Y-53200000I-100000J0D01*
G01*
X124292500Y-53200000D02*
G75*
G02*
X124492500Y-53200000I100000J0D01*
G01*
D12*
%TO.C,U1*%
X127400000Y-75340000D02*
X127400000Y-75610000D01*
X127400000Y-75340000D02*
X127670000Y-75340000D01*
X127400000Y-77740000D02*
X127400000Y-77470000D01*
X127400000Y-77740000D02*
X127670000Y-77740000D01*
X129800000Y-75340000D02*
X129530000Y-75340000D01*
X129800000Y-75340000D02*
X129800000Y-75610000D01*
X129800000Y-77740000D02*
X129530000Y-77740000D01*
X129800000Y-77740000D02*
X129800000Y-77470000D01*
D13*
X130570000Y-77040000D02*
G75*
G02*
X130370000Y-77040000I-100000J0D01*
G01*
X130370000Y-77040000D02*
G75*
G02*
X130570000Y-77040000I100000J0D01*
G01*
D12*
%TO.C,J16*%
X145457500Y-77640000D02*
X145457500Y-75440000D01*
X149732500Y-73365000D02*
X147532500Y-73365000D01*
X149732500Y-79715000D02*
X147532500Y-79715000D01*
X151807500Y-77640000D02*
X151807500Y-75440000D01*
%TD*%
M02*
