%TF.GenerationSoftware,KiCad,Pcbnew,9.0.4*%
%TF.CreationDate,2026-05-05T23:42:29-03:00*%
%TF.ProjectId,eval_trilha_v2,6576616c-5f74-4726-996c-68615f76322e,rev?*%
%TF.SameCoordinates,Original*%
%TF.FileFunction,Copper,L1,Top*%
%TF.FilePolarity,Positive*%
%FSLAX46Y46*%
G04 Gerber Fmt 4.6, Leading zero omitted, Abs format (unit mm)*
G04 Created by KiCad (PCBNEW 9.0.4) date 2026-05-05 23:42:29*
%MOMM*%
%LPD*%
G01*
G04 APERTURE LIST*
G04 Aperture macros list*
%AMRoundRect*
0 Rectangle with rounded corners*
0 $1 Rounding radius*
0 $2 $3 $4 $5 $6 $7 $8 $9 X,Y pos of 4 corners*
0 Add a 4 corners polygon primitive as box body*
4,1,4,$2,$3,$4,$5,$6,$7,$8,$9,$2,$3,0*
0 Add four circle primitives for the rounded corners*
1,1,$1+$1,$2,$3*
1,1,$1+$1,$4,$5*
1,1,$1+$1,$6,$7*
1,1,$1+$1,$8,$9*
0 Add four rect primitives between the rounded corners*
20,1,$1+$1,$2,$3,$4,$5,0*
20,1,$1+$1,$4,$5,$6,$7,0*
20,1,$1+$1,$6,$7,$8,$9,0*
20,1,$1+$1,$8,$9,$2,$3,0*%
G04 Aperture macros list end*
%TA.AperFunction,ComponentPad*%
%ADD10C,1.900000*%
%TD*%
%TA.AperFunction,SMDPad,CuDef*%
%ADD11RoundRect,0.140000X0.170000X-0.140000X0.170000X0.140000X-0.170000X0.140000X-0.170000X-0.140000X0*%
%TD*%
%TA.AperFunction,SMDPad,CuDef*%
%ADD12RoundRect,0.140000X-0.170000X0.140000X-0.170000X-0.140000X0.170000X-0.140000X0.170000X0.140000X0*%
%TD*%
%TA.AperFunction,ComponentPad*%
%ADD13R,1.370000X1.370000*%
%TD*%
%TA.AperFunction,ComponentPad*%
%ADD14C,1.370000*%
%TD*%
%TA.AperFunction,SMDPad,CuDef*%
%ADD15RoundRect,0.027500X0.287500X0.082500X-0.287500X0.082500X-0.287500X-0.082500X0.287500X-0.082500X0*%
%TD*%
%TA.AperFunction,SMDPad,CuDef*%
%ADD16RoundRect,0.027500X0.082500X0.287500X-0.082500X0.287500X-0.082500X-0.287500X0.082500X-0.287500X0*%
%TD*%
%TA.AperFunction,SMDPad,CuDef*%
%ADD17R,0.760000X0.760000*%
%TD*%
%TA.AperFunction,Conductor*%
%ADD18C,0.411000*%
%TD*%
%TA.AperFunction,Conductor*%
%ADD19C,0.397000*%
%TD*%
%TA.AperFunction,Conductor*%
%ADD20C,0.403000*%
%TD*%
%TA.AperFunction,Conductor*%
%ADD21C,0.200000*%
%TD*%
G04 APERTURE END LIST*
D10*
%TO.P,J13,1*%
%TO.N,Net-(U1-RFC)*%
X128632500Y-96540000D03*
%TO.P,J13,S1*%
%TO.N,GND*%
X126132500Y-96540000D03*
%TO.P,J13,S2*%
X131132500Y-96540000D03*
%TO.P,J13,S3*%
X131132500Y-99040000D03*
%TO.P,J13,S4*%
X126132500Y-99040000D03*
%TD*%
D11*
%TO.P,C2,1*%
%TO.N,/Ctrl2*%
X121500000Y-68600000D03*
%TO.P,C2,2*%
%TO.N,GND*%
X121500000Y-67640000D03*
%TD*%
D10*
%TO.P,J3,1*%
%TO.N,Net-(J2-Pad1)*%
X191000000Y-90840000D03*
%TO.P,J3,S1*%
%TO.N,GND*%
X191000000Y-93340000D03*
%TO.P,J3,S2*%
X191000000Y-88340000D03*
%TO.P,J3,S3*%
X193500000Y-88340000D03*
%TO.P,J3,S4*%
X193500000Y-93340000D03*
%TD*%
%TO.P,J0,1*%
%TO.N,Net-(J0-Pad1)*%
X111250000Y-107860000D03*
%TO.P,J0,S1*%
%TO.N,GND*%
X111250000Y-105360000D03*
%TO.P,J0,S2*%
X111250000Y-110360000D03*
%TO.P,J0,S3*%
X108750000Y-110360000D03*
%TO.P,J0,S4*%
X108750000Y-105360000D03*
%TD*%
D12*
%TO.P,C1,1*%
%TO.N,GND*%
X126500000Y-67640000D03*
%TO.P,C1,2*%
%TO.N,/Ctrl1*%
X126500000Y-68600000D03*
%TD*%
D10*
%TO.P,J5,1*%
%TO.N,Net-(J4-Pad1)*%
X191000000Y-124880000D03*
%TO.P,J5,S1*%
%TO.N,GND*%
X191000000Y-127380000D03*
%TO.P,J5,S2*%
X191000000Y-122380000D03*
%TO.P,J5,S3*%
X193500000Y-122380000D03*
%TO.P,J5,S4*%
X193500000Y-127380000D03*
%TD*%
%TO.P,J11,1*%
%TO.N,Net-(J10-Pad1)*%
X191000000Y-56800000D03*
%TO.P,J11,S1*%
%TO.N,GND*%
X191000000Y-59300000D03*
%TO.P,J11,S2*%
X191000000Y-54300000D03*
%TO.P,J11,S3*%
X193500000Y-54300000D03*
%TO.P,J11,S4*%
X193500000Y-59300000D03*
%TD*%
%TO.P,J15,1*%
%TO.N,/RF2*%
X108632500Y-76540000D03*
%TO.P,J15,S1*%
%TO.N,GND*%
X108632500Y-74040000D03*
%TO.P,J15,S2*%
X108632500Y-79040000D03*
%TO.P,J15,S3*%
X106132500Y-79040000D03*
%TO.P,J15,S4*%
X106132500Y-74040000D03*
%TD*%
%TO.P,J7,1*%
%TO.N,Net-(J6-Pad1)*%
X191000000Y-73820000D03*
%TO.P,J7,S1*%
%TO.N,GND*%
X191000000Y-76320000D03*
%TO.P,J7,S2*%
X191000000Y-71320000D03*
%TO.P,J7,S3*%
X193500000Y-71320000D03*
%TO.P,J7,S4*%
X193500000Y-76320000D03*
%TD*%
%TO.P,J8,1*%
%TO.N,Net-(J8-Pad1)*%
X111250000Y-141900000D03*
%TO.P,J8,S1*%
%TO.N,GND*%
X111250000Y-139400000D03*
%TO.P,J8,S2*%
X111250000Y-144400000D03*
%TO.P,J8,S3*%
X108750000Y-144400000D03*
%TO.P,J8,S4*%
X108750000Y-139400000D03*
%TD*%
%TO.P,J9,1*%
%TO.N,Net-(J8-Pad1)*%
X191000000Y-141900000D03*
%TO.P,J9,S1*%
%TO.N,GND*%
X191000000Y-144400000D03*
%TO.P,J9,S2*%
X191000000Y-139400000D03*
%TO.P,J9,S3*%
X193500000Y-139400000D03*
%TO.P,J9,S4*%
X193500000Y-144400000D03*
%TD*%
%TO.P,J14,1*%
%TO.N,/RF3*%
X128632500Y-56665000D03*
%TO.P,J14,S1*%
%TO.N,GND*%
X131132500Y-56665000D03*
%TO.P,J14,S2*%
X126132500Y-56665000D03*
%TO.P,J14,S3*%
X126132500Y-54165000D03*
%TO.P,J14,S4*%
X131132500Y-54165000D03*
%TD*%
%TO.P,J10,1*%
%TO.N,Net-(J10-Pad1)*%
X161250000Y-56800000D03*
%TO.P,J10,S1*%
%TO.N,GND*%
X161250000Y-54300000D03*
%TO.P,J10,S2*%
X161250000Y-59300000D03*
%TO.P,J10,S3*%
X158750000Y-59300000D03*
%TO.P,J10,S4*%
X158750000Y-54300000D03*
%TD*%
%TO.P,J1,1*%
%TO.N,Net-(J0-Pad1)*%
X191000000Y-107860000D03*
%TO.P,J1,S1*%
%TO.N,GND*%
X191000000Y-110360000D03*
%TO.P,J1,S2*%
X191000000Y-105360000D03*
%TO.P,J1,S3*%
X193500000Y-105360000D03*
%TO.P,J1,S4*%
X193500000Y-110360000D03*
%TD*%
D11*
%TO.P,C3,1*%
%TO.N,VDD*%
X116500000Y-68600000D03*
%TO.P,C3,2*%
%TO.N,GND*%
X116500000Y-67640000D03*
%TD*%
D10*
%TO.P,J2,1*%
%TO.N,Net-(J2-Pad1)*%
X161250000Y-90840000D03*
%TO.P,J2,S1*%
%TO.N,GND*%
X161250000Y-88340000D03*
%TO.P,J2,S2*%
X161250000Y-93340000D03*
%TO.P,J2,S3*%
X158750000Y-93340000D03*
%TO.P,J2,S4*%
X158750000Y-88340000D03*
%TD*%
%TO.P,J6,1*%
%TO.N,Net-(J6-Pad1)*%
X161250000Y-73820000D03*
%TO.P,J6,S1*%
%TO.N,GND*%
X161250000Y-71320000D03*
%TO.P,J6,S2*%
X161250000Y-76320000D03*
%TO.P,J6,S3*%
X158750000Y-76320000D03*
%TO.P,J6,S4*%
X158750000Y-71320000D03*
%TD*%
%TO.P,J4,1*%
%TO.N,Net-(J4-Pad1)*%
X111250000Y-124880000D03*
%TO.P,J4,S1*%
%TO.N,GND*%
X111250000Y-122380000D03*
%TO.P,J4,S2*%
X111250000Y-127380000D03*
%TO.P,J4,S3*%
X108750000Y-127380000D03*
%TO.P,J4,S4*%
X108750000Y-122380000D03*
%TD*%
D13*
%TO.P,J12,01,01*%
%TO.N,/Ctrl1*%
X122472500Y-53200000D03*
D14*
%TO.P,J12,02,02*%
%TO.N,/Ctrl2*%
X117392500Y-53200000D03*
%TO.P,J12,03,03*%
%TO.N,VDD*%
X112312500Y-53200000D03*
%TO.P,J12,04,04*%
%TO.N,GND*%
X107232500Y-53200000D03*
%TO.P,J12,05,05*%
%TO.N,unconnected-(J12-Pad05)*%
X102152500Y-53200000D03*
%TD*%
D15*
%TO.P,U1,1,J1*%
%TO.N,/RF1*%
X129640000Y-77040000D03*
%TO.P,U1,2,GND*%
%TO.N,GND*%
X129640000Y-76540000D03*
%TO.P,U1,3,J3*%
%TO.N,/RF3*%
X129640000Y-76040000D03*
D16*
%TO.P,U1,4,V1*%
%TO.N,/Ctrl1*%
X129100000Y-75500000D03*
%TO.P,U1,5,V2*%
%TO.N,/Ctrl2*%
X128600000Y-75500000D03*
%TO.P,U1,6,VDD*%
%TO.N,VDD*%
X128100000Y-75500000D03*
D15*
%TO.P,U1,7,GND*%
%TO.N,GND*%
X127560000Y-76040000D03*
%TO.P,U1,8,GND*%
X127560000Y-76540000D03*
%TO.P,U1,9,J2*%
%TO.N,/RF2*%
X127560000Y-77040000D03*
D16*
%TO.P,U1,10,GND*%
%TO.N,GND*%
X128100000Y-77580000D03*
%TO.P,U1,11,RFC*%
%TO.N,Net-(U1-RFC)*%
X128600000Y-77580000D03*
%TO.P,U1,12,GND*%
%TO.N,GND*%
X129100000Y-77580000D03*
D17*
%TO.P,U1,13,GND*%
X128600000Y-76540000D03*
%TD*%
D10*
%TO.P,J16,1*%
%TO.N,/RF1*%
X148507500Y-76540000D03*
%TO.P,J16,S1*%
%TO.N,GND*%
X148507500Y-79040000D03*
%TO.P,J16,S2*%
X148507500Y-74040000D03*
%TO.P,J16,S3*%
X151007500Y-74040000D03*
%TO.P,J16,S4*%
X151007500Y-79040000D03*
%TD*%
D18*
%TO.N,Net-(J0-Pad1)*%
X111250000Y-107860000D02*
X191000000Y-107860000D01*
D19*
%TO.N,Net-(J2-Pad1)*%
X161250000Y-90840000D02*
X191000000Y-90840000D01*
D20*
%TO.N,Net-(J4-Pad1)*%
X191000000Y-124880000D02*
X111250000Y-124880000D01*
%TO.N,Net-(J6-Pad1)*%
X191000000Y-73820000D02*
X161250000Y-73820000D01*
D19*
%TO.N,Net-(J8-Pad1)*%
X191000000Y-141900000D02*
X111250000Y-141900000D01*
D18*
%TO.N,Net-(J10-Pad1)*%
X161250000Y-56800000D02*
X191000000Y-56800000D01*
D21*
%TO.N,/Ctrl1*%
X124620000Y-68600000D02*
X122472500Y-66452500D01*
X126500000Y-68600000D02*
X124620000Y-68600000D01*
X122472500Y-66452500D02*
X122472500Y-53200000D01*
X129100000Y-75500000D02*
X129100000Y-74660000D01*
X126500000Y-72060000D02*
X126500000Y-68600000D01*
X129100000Y-74660000D02*
X126500000Y-72060000D01*
%TO.N,/Ctrl2*%
X117392500Y-65852500D02*
X117392500Y-53200000D01*
X120140000Y-68600000D02*
X117392500Y-65852500D01*
X122035334Y-68600000D02*
X121500000Y-68600000D01*
X128600000Y-75164666D02*
X122035334Y-68600000D01*
X121500000Y-68600000D02*
X120140000Y-68600000D01*
X128600000Y-75500000D02*
X128600000Y-75164666D01*
%TO.N,VDD*%
X116500000Y-70690000D02*
X116500000Y-68600000D01*
X112312500Y-66092500D02*
X114820000Y-68600000D01*
X128100000Y-75500000D02*
X127150000Y-74550000D01*
X120360000Y-74550000D02*
X116500000Y-70690000D01*
X114820000Y-68600000D02*
X116500000Y-68600000D01*
X112312500Y-53200000D02*
X112312500Y-66092500D01*
X127150000Y-74550000D02*
X120360000Y-74550000D01*
D19*
%TO.N,Net-(U1-RFC)*%
X128600000Y-78054634D02*
X128600000Y-95540000D01*
%TO.N,/RF1*%
X147998000Y-77049500D02*
X129544134Y-77049500D01*
X148507500Y-76540000D02*
X147998000Y-77049500D01*
%TO.N,/RF2*%
X109709500Y-77049500D02*
X109200000Y-76540000D01*
X109200000Y-76540000D02*
X108632500Y-76540000D01*
X127560000Y-77049500D02*
X109709500Y-77049500D01*
%TO.N,/RF3*%
X128632500Y-69272500D02*
X128632500Y-56665000D01*
X129339606Y-70979606D02*
X129785786Y-71425786D01*
X130200000Y-76030500D02*
X129640000Y-76030500D01*
X131200000Y-74840000D02*
X131200000Y-75030500D01*
X131200000Y-74840000D02*
G75*
G03*
X129785780Y-71425791I-4828400J0D01*
G01*
X131200000Y-75030500D02*
G75*
G02*
X130200000Y-76030500I-1000000J0D01*
G01*
X129339606Y-70979606D02*
G75*
G02*
X128632496Y-69272500I1707094J1707106D01*
G01*
%TD*%
M02*
