%TF.GenerationSoftware,KiCad,Pcbnew,9.0.4*%
%TF.CreationDate,2026-05-05T23:42:29-03:00*%
%TF.ProjectId,eval_trilha_v2,6576616c-5f74-4726-996c-68615f76322e,rev?*%
%TF.SameCoordinates,Original*%
%TF.FileFunction,Soldermask,Top*%
%TF.FilePolarity,Negative*%
%FSLAX46Y46*%
G04 Gerber Fmt 4.6, Leading zero omitted, Abs format (unit mm)*
G04 Created by KiCad (PCBNEW 9.0.4) date 2026-05-05 23:42:29*
%MOMM*%
%LPD*%
G01*
G04 APERTURE LIST*
G04 Aperture macros list*
%AMRoundRect*
0 Rectangle with rounded corners*
0 $1 Rounding radius*
0 $2 $3 $4 $5 $6 $7 $8 $9 X,Y pos of 4 corners*
0 Add a 4 corners polygon primitive as box body*
4,1,4,$2,$3,$4,$5,$6,$7,$8,$9,$2,$3,0*
0 Add four circle primitives for the rounded corners*
1,1,$1+$1,$2,$3*
1,1,$1+$1,$4,$5*
1,1,$1+$1,$6,$7*
1,1,$1+$1,$8,$9*
0 Add four rect primitives between the rounded corners*
20,1,$1+$1,$2,$3,$4,$5,0*
20,1,$1+$1,$4,$5,$6,$7,0*
20,1,$1+$1,$6,$7,$8,$9,0*
20,1,$1+$1,$8,$9,$2,$3,0*%
G04 Aperture macros list end*
%ADD10C,1.900000*%
%ADD11RoundRect,0.140000X0.170000X-0.140000X0.170000X0.140000X-0.170000X0.140000X-0.170000X-0.140000X0*%
%ADD12RoundRect,0.140000X-0.170000X0.140000X-0.170000X-0.140000X0.170000X-0.140000X0.170000X0.140000X0*%
%ADD13RoundRect,0.102000X0.685000X0.685000X-0.685000X0.685000X-0.685000X-0.685000X0.685000X-0.685000X0*%
%ADD14C,1.574000*%
%ADD15RoundRect,0.053000X0.364000X0.159000X-0.364000X0.159000X-0.364000X-0.159000X0.364000X-0.159000X0*%
%ADD16RoundRect,0.053000X0.159000X0.364000X-0.159000X0.364000X-0.159000X-0.364000X0.159000X-0.364000X0*%
%ADD17RoundRect,0.102000X0.380000X0.380000X-0.380000X0.380000X-0.380000X-0.380000X0.380000X-0.380000X0*%
G04 APERTURE END LIST*
D10*
%TO.C,J13*%
X128632500Y-96540000D03*
X126132500Y-96540000D03*
X131132500Y-96540000D03*
X131132500Y-99040000D03*
X126132500Y-99040000D03*
%TD*%
D11*
%TO.C,C2*%
X121500000Y-68600000D03*
X121500000Y-67640000D03*
%TD*%
D10*
%TO.C,J3*%
X191000000Y-90840000D03*
X191000000Y-93340000D03*
X191000000Y-88340000D03*
X193500000Y-88340000D03*
X193500000Y-93340000D03*
%TD*%
%TO.C,J0*%
X111250000Y-107860000D03*
X111250000Y-105360000D03*
X111250000Y-110360000D03*
X108750000Y-110360000D03*
X108750000Y-105360000D03*
%TD*%
D12*
%TO.C,C1*%
X126500000Y-67640000D03*
X126500000Y-68600000D03*
%TD*%
D10*
%TO.C,J5*%
X191000000Y-124880000D03*
X191000000Y-127380000D03*
X191000000Y-122380000D03*
X193500000Y-122380000D03*
X193500000Y-127380000D03*
%TD*%
%TO.C,J11*%
X191000000Y-56800000D03*
X191000000Y-59300000D03*
X191000000Y-54300000D03*
X193500000Y-54300000D03*
X193500000Y-59300000D03*
%TD*%
%TO.C,J15*%
X108632500Y-76540000D03*
X108632500Y-74040000D03*
X108632500Y-79040000D03*
X106132500Y-79040000D03*
X106132500Y-74040000D03*
%TD*%
%TO.C,J7*%
X191000000Y-73820000D03*
X191000000Y-76320000D03*
X191000000Y-71320000D03*
X193500000Y-71320000D03*
X193500000Y-76320000D03*
%TD*%
%TO.C,J8*%
X111250000Y-141900000D03*
X111250000Y-139400000D03*
X111250000Y-144400000D03*
X108750000Y-144400000D03*
X108750000Y-139400000D03*
%TD*%
%TO.C,J9*%
X191000000Y-141900000D03*
X191000000Y-144400000D03*
X191000000Y-139400000D03*
X193500000Y-139400000D03*
X193500000Y-144400000D03*
%TD*%
%TO.C,J14*%
X128632500Y-56665000D03*
X131132500Y-56665000D03*
X126132500Y-56665000D03*
X126132500Y-54165000D03*
X131132500Y-54165000D03*
%TD*%
%TO.C,J10*%
X161250000Y-56800000D03*
X161250000Y-54300000D03*
X161250000Y-59300000D03*
X158750000Y-59300000D03*
X158750000Y-54300000D03*
%TD*%
%TO.C,J1*%
X191000000Y-107860000D03*
X191000000Y-110360000D03*
X191000000Y-105360000D03*
X193500000Y-105360000D03*
X193500000Y-110360000D03*
%TD*%
D11*
%TO.C,C3*%
X116500000Y-68600000D03*
X116500000Y-67640000D03*
%TD*%
D10*
%TO.C,J2*%
X161250000Y-90840000D03*
X161250000Y-88340000D03*
X161250000Y-93340000D03*
X158750000Y-93340000D03*
X158750000Y-88340000D03*
%TD*%
%TO.C,J6*%
X161250000Y-73820000D03*
X161250000Y-71320000D03*
X161250000Y-76320000D03*
X158750000Y-76320000D03*
X158750000Y-71320000D03*
%TD*%
%TO.C,J4*%
X111250000Y-124880000D03*
X111250000Y-122380000D03*
X111250000Y-127380000D03*
X108750000Y-127380000D03*
X108750000Y-122380000D03*
%TD*%
D13*
%TO.C,J12*%
X122472500Y-53200000D03*
D14*
X117392500Y-53200000D03*
X112312500Y-53200000D03*
X107232500Y-53200000D03*
X102152500Y-53200000D03*
%TD*%
D15*
%TO.C,U1*%
X129640000Y-77040000D03*
X129640000Y-76540000D03*
X129640000Y-76040000D03*
D16*
X129100000Y-75500000D03*
X128600000Y-75500000D03*
X128100000Y-75500000D03*
D15*
X127560000Y-76040000D03*
X127560000Y-76540000D03*
X127560000Y-77040000D03*
D16*
X128100000Y-77580000D03*
X128600000Y-77580000D03*
X129100000Y-77580000D03*
D17*
X128600000Y-76540000D03*
%TD*%
D10*
%TO.C,J16*%
X148507500Y-76540000D03*
X148507500Y-79040000D03*
X148507500Y-74040000D03*
X151007500Y-74040000D03*
X151007500Y-79040000D03*
%TD*%
M02*
