M48
; DRILL file {KiCad 9.0.4} date 2026-05-05T23:42:33-0300
; FORMAT={-:-/ absolute / metric / decimal}
; #@! TF.CreationDate,2026-05-05T23:42:33-03:00
; #@! TF.GenerationSoftware,Kicad,Pcbnew,9.0.4
; #@! TF.FileFunction,Plated,1,4,PTH
FMAT,2
METRIC
; #@! TA.AperFunction,Plated,PTH,ComponentDrill
T1C1.000
; #@! TA.AperFunction,Plated,PTH,ComponentDrill
T2C1.020
; #@! TA.AperFunction,Plated,PTH,ComponentDrill
T3C1.350
%
G90
G05
T1
X108.632Y-76.54
X111.25Y-107.86
X111.25Y-124.88
X111.25Y-141.9
X128.632Y-56.665
X128.632Y-96.54
X148.507Y-76.54
X161.25Y-56.8
X161.25Y-73.82
X161.25Y-90.84
X191.0Y-56.8
X191.0Y-73.82
X191.0Y-90.84
X191.0Y-107.86
X191.0Y-124.88
X191.0Y-141.9
T2
X102.152Y-53.2
X107.233Y-53.2
X112.312Y-53.2
X117.392Y-53.2
X122.472Y-53.2
T3
X106.132Y-74.04
X106.132Y-79.04
X108.632Y-74.04
X108.632Y-79.04
X108.75Y-105.36
X108.75Y-110.36
X108.75Y-122.38
X108.75Y-127.38
X108.75Y-139.4
X108.75Y-144.4
X111.25Y-105.36
X111.25Y-110.36
X111.25Y-122.38
X111.25Y-127.38
X111.25Y-139.4
X111.25Y-144.4
X126.132Y-54.165
X126.132Y-56.665
X126.132Y-96.54
X126.132Y-99.04
X131.132Y-54.165
X131.132Y-56.665
X131.132Y-96.54
X131.132Y-99.04
X148.507Y-74.04
X148.507Y-79.04
X151.007Y-74.04
X151.007Y-79.04
X158.75Y-54.3
X158.75Y-59.3
X158.75Y-71.32
X158.75Y-76.32
X158.75Y-88.34
X158.75Y-93.34
X161.25Y-54.3
X161.25Y-59.3
X161.25Y-71.32
X161.25Y-76.32
X161.25Y-88.34
X161.25Y-93.34
X191.0Y-54.3
X191.0Y-59.3
X191.0Y-71.32
X191.0Y-76.32
X191.0Y-88.34
X191.0Y-93.34
X191.0Y-105.36
X191.0Y-110.36
X191.0Y-122.38
X191.0Y-127.38
X191.0Y-139.4
X191.0Y-144.4
X193.5Y-54.3
X193.5Y-59.3
X193.5Y-71.32
X193.5Y-76.32
X193.5Y-88.34
X193.5Y-93.34
X193.5Y-105.36
X193.5Y-110.36
X193.5Y-122.38
X193.5Y-127.38
X193.5Y-139.4
X193.5Y-144.4
M30
