%TF.GenerationSoftware,KiCad,Pcbnew,9.0.4*%
%TF.CreationDate,2026-05-05T23:42:29-03:00*%
%TF.ProjectId,eval_trilha_v2,6576616c-5f74-4726-996c-68615f76322e,rev?*%
%TF.SameCoordinates,Original*%
%TF.FileFunction,Copper,L3,Inr*%
%TF.FilePolarity,Positive*%
%FSLAX46Y46*%
G04 Gerber Fmt 4.6, Leading zero omitted, Abs format (unit mm)*
G04 Created by KiCad (PCBNEW 9.0.4) date 2026-05-05 23:42:29*
%MOMM*%
%LPD*%
G01*
G04 APERTURE LIST*
%TA.AperFunction,ComponentPad*%
%ADD10C,1.900000*%
%TD*%
%TA.AperFunction,ComponentPad*%
%ADD11R,1.370000X1.370000*%
%TD*%
%TA.AperFunction,ComponentPad*%
%ADD12C,1.370000*%
%TD*%
G04 APERTURE END LIST*
D10*
%TO.N,Net-(U1-RFC)*%
%TO.C,J13*%
X128632500Y-96540000D03*
%TO.N,GND*%
X126132500Y-96540000D03*
X131132500Y-96540000D03*
X131132500Y-99040000D03*
X126132500Y-99040000D03*
%TD*%
%TO.N,Net-(J2-Pad1)*%
%TO.C,J3*%
X191000000Y-90840000D03*
%TO.N,GND*%
X191000000Y-93340000D03*
X191000000Y-88340000D03*
X193500000Y-88340000D03*
X193500000Y-93340000D03*
%TD*%
%TO.N,Net-(J0-Pad1)*%
%TO.C,J0*%
X111250000Y-107860000D03*
%TO.N,GND*%
X111250000Y-105360000D03*
X111250000Y-110360000D03*
X108750000Y-110360000D03*
X108750000Y-105360000D03*
%TD*%
%TO.N,Net-(J4-Pad1)*%
%TO.C,J5*%
X191000000Y-124880000D03*
%TO.N,GND*%
X191000000Y-127380000D03*
X191000000Y-122380000D03*
X193500000Y-122380000D03*
X193500000Y-127380000D03*
%TD*%
%TO.N,Net-(J10-Pad1)*%
%TO.C,J11*%
X191000000Y-56800000D03*
%TO.N,GND*%
X191000000Y-59300000D03*
X191000000Y-54300000D03*
X193500000Y-54300000D03*
X193500000Y-59300000D03*
%TD*%
%TO.N,/RF2*%
%TO.C,J15*%
X108632500Y-76540000D03*
%TO.N,GND*%
X108632500Y-74040000D03*
X108632500Y-79040000D03*
X106132500Y-79040000D03*
X106132500Y-74040000D03*
%TD*%
%TO.N,Net-(J6-Pad1)*%
%TO.C,J7*%
X191000000Y-73820000D03*
%TO.N,GND*%
X191000000Y-76320000D03*
X191000000Y-71320000D03*
X193500000Y-71320000D03*
X193500000Y-76320000D03*
%TD*%
%TO.N,Net-(J8-Pad1)*%
%TO.C,J8*%
X111250000Y-141900000D03*
%TO.N,GND*%
X111250000Y-139400000D03*
X111250000Y-144400000D03*
X108750000Y-144400000D03*
X108750000Y-139400000D03*
%TD*%
%TO.N,Net-(J8-Pad1)*%
%TO.C,J9*%
X191000000Y-141900000D03*
%TO.N,GND*%
X191000000Y-144400000D03*
X191000000Y-139400000D03*
X193500000Y-139400000D03*
X193500000Y-144400000D03*
%TD*%
%TO.N,/RF3*%
%TO.C,J14*%
X128632500Y-56665000D03*
%TO.N,GND*%
X131132500Y-56665000D03*
X126132500Y-56665000D03*
X126132500Y-54165000D03*
X131132500Y-54165000D03*
%TD*%
%TO.N,Net-(J10-Pad1)*%
%TO.C,J10*%
X161250000Y-56800000D03*
%TO.N,GND*%
X161250000Y-54300000D03*
X161250000Y-59300000D03*
X158750000Y-59300000D03*
X158750000Y-54300000D03*
%TD*%
%TO.N,Net-(J0-Pad1)*%
%TO.C,J1*%
X191000000Y-107860000D03*
%TO.N,GND*%
X191000000Y-110360000D03*
X191000000Y-105360000D03*
X193500000Y-105360000D03*
X193500000Y-110360000D03*
%TD*%
%TO.N,Net-(J2-Pad1)*%
%TO.C,J2*%
X161250000Y-90840000D03*
%TO.N,GND*%
X161250000Y-88340000D03*
X161250000Y-93340000D03*
X158750000Y-93340000D03*
X158750000Y-88340000D03*
%TD*%
%TO.N,Net-(J6-Pad1)*%
%TO.C,J6*%
X161250000Y-73820000D03*
%TO.N,GND*%
X161250000Y-71320000D03*
X161250000Y-76320000D03*
X158750000Y-76320000D03*
X158750000Y-71320000D03*
%TD*%
%TO.N,Net-(J4-Pad1)*%
%TO.C,J4*%
X111250000Y-124880000D03*
%TO.N,GND*%
X111250000Y-122380000D03*
X111250000Y-127380000D03*
X108750000Y-127380000D03*
X108750000Y-122380000D03*
%TD*%
D11*
%TO.N,/Ctrl1*%
%TO.C,J12*%
X122472500Y-53200000D03*
D12*
%TO.N,/Ctrl2*%
X117392500Y-53200000D03*
%TO.N,VDD*%
X112312500Y-53200000D03*
%TO.N,GND*%
X107232500Y-53200000D03*
%TO.N,unconnected-(J12-Pad05)*%
X102152500Y-53200000D03*
%TD*%
D10*
%TO.N,/RF1*%
%TO.C,J16*%
X148507500Y-76540000D03*
%TO.N,GND*%
X148507500Y-79040000D03*
X148507500Y-74040000D03*
X151007500Y-74040000D03*
X151007500Y-79040000D03*
%TD*%
M02*
